999
dxfrw 0.6.3
  0
SECTION
  2
HEADER
  9
$ACADVER
  1
AC1021
  9
$DWGCODEPAGE
  3
ANSI_1252
  9
$INSBASE
 10
0
 20
0
 30
0
  9
$EXTMIN
 10
-234.9877373382879
 20
-15274.02566021989
 30
0
  9
$EXTMAX
 10
24488.02682843153
 20
14967.50475145711
 30
0
  9
$LIMMIN
 10
0
 20
0
  9
$LIMMAX
 10
420
 20
297
  9
$ORTHOMODE
 70
    0
  9
$REGENMODE
 70
    1
  9
$FILLMODE
 70
    1
  9
$QTEXTMODE
 70
    0
  9
$MIRRTEXT
 70
    0
  9
$LTSCALE
 40
1
  9
$ATTMODE
 70
    0
  9
$TEXTSIZE
 40
2.5
  9
$TRACEWID
 40
15.68
  9
$TEXTSTYLE
  7
STANDARD
  9
$CLAYER
  8
dimensions
  9
$CELTYPE
  6
BYLAYER
  9
$CECOLOR
 62
  256
  9
$CELTSCALE
 40
1
  9
$DISPSILH
 70
    0
  9
$DIMSCALE
 40
1
  9
$DIMASZ
 40
2.5
  9
$DIMEXO
 40
0.625
  9
$DIMDLI
 40
3.75
  9
$DIMRND
 40
0
  9
$DIMDLE
 40
0
  9
$DIMEXE
 40
1.25
  9
$DIMTP
 40
0
  9
$DIMTM
 40
0
  9
$DIMTXT
 40
50
  9
$DIMCEN
 40
2.5
  9
$DIMTSZ
 40
0
  9
$DIMTOL
 70
    0
  9
$DIMLIM
 70
    0
  9
$DIMTIH
 70
    0
  9
$DIMTOH
 70
    0
  9
$DIMSE1
 70
    0
  9
$DIMSE2
 70
    0
  9
$DIMTAD
 70
    1
  9
$DIMZIN
 70
    1
  9
$DIMBLK
  1

  9
$DIMASO
 70
    1
  9
$DIMSHO
 70
    1
  9
$DIMPOST
  1

  9
$DIMAPOST
  1

  9
$DIMALT
 70
    0
  9
$DIMALTD
 70
    3
  9
$DIMALTF
 40
0.03937
  9
$DIMLFAC
 40
1
  9
$DIMTOFL
 70
    1
  9
$DIMTVP
 40
0
  9
$DIMTIX
 70
    0
  9
$DIMSOXD
 70
    0
  9
$DIMSAH
 70
    0
  9
$DIMBLK1
  1

  9
$DIMBLK2
  1

  9
$DIMSTYLE
  2
STANDARD
  9
$DIMCLRD
 70
    0
  9
$DIMCLRE
 70
    0
  9
$DIMCLRT
 70
    0
  9
$DIMTFAC
 40
1
  9
$DIMGAP
 40
0.625
  9
$DIMJUST
 70
    0
  9
$DIMSD1
 70
    0
  9
$DIMSD2
 70
    0
  9
$DIMTOLJ
 70
    0
  9
$DIMTZIN
 70
    8
  9
$DIMALTZ
 70
    0
  9
$DIMALTTZ
 70
    0
  9
$DIMUPT
 70
    0
  9
$DIMDEC
 70
    2
  9
$DIMTDEC
 70
    2
  9
$DIMALTU
 70
    2
  9
$DIMALTTD
 70
    3
  9
$DIMTXSTY
  7
standard
  9
$DIMAUNIT
 70
    0
  9
$DIMADEC
 70
    2
  9
$DIMALTRND
 40
0
  9
$DIMAZIN
 70
    0
  9
$DIMDSEP
 70
    0
  9
$DIMATFIT
 70
    3
  9
$DIMFRAC
 70
    0
  9
$DIMLDRBLK
  1
STANDARD
  9
$DIMLUNIT
 70
    2
  9
$DIMLWD
 70
   -2
  9
$DIMLWE
 70
   -2
  9
$DIMTMOVE
 70
    0
  9
$DIMFXL
 40
1
  9
$DIMFXLON
 70
    0
  9
$DIMJOGANG
 40
0.7854
  9
$DIMTFILL
 70
    0
  9
$DIMTFILLCLR
 70
    0
  9
$DIMARCSYM
 70
    0
  9
$DIMLTYPE
  6

  9
$DIMLTEX1
  6

  9
$DIMLTEX2
  6

  9
$LUNITS
 70
    2
  9
$LUPREC
 70
    4
  9
$SKETCHINC
 40
1
  9
$FILLETRAD
 40
0
  9
$AUNITS
 70
    0
  9
$AUPREC
 70
    2
  9
$MENU
  1
.
  9
$ELEVATION
 40
0
  9
$PELEVATION
 40
0
  9
$THICKNESS
 40
0
  9
$LIMCHECK
 70
    0
  9
$CHAMFERA
 40
0
  9
$CHAMFERB
 40
0
  9
$CHAMFERC
 40
0
  9
$CHAMFERD
 40
0
  9
$SKPOLY
 70
    0
  9
$USRTIMER
 70
    1
  9
$ANGBASE
 50
0
  9
$ANGDIR
 70
    0
  9
$PDMODE
 70
   34
  9
$PDSIZE
 40
0
  9
$PLINEWID
 40
0
  9
$SPLFRAME
 70
    0
  9
$SPLINETYPE
 70
    2
  9
$SPLINESEGS
 70
    8
  9
$HANDSEED
  5
20000
  9
$SURFTAB1
 70
    6
  9
$SURFTAB2
 70
    6
  9
$SURFTYPE
 70
    6
  9
$SURFU
 70
    6
  9
$SURFV
 70
    6
  9
$UCSBASE
  2

  9
$UCSNAME
  2

  9
$UCSORG
 10
0
 20
0
 30
0
  9
$UCSXDIR
 10
1
 20
0
 30
0
  9
$UCSYDIR
 10
0
 20
1
 30
0
  9
$UCSORTHOREF
  2

  9
$UCSORTHOVIEW
 70
    0
  9
$UCSORGTOP
 10
0
 20
0
 30
0
  9
$UCSORGBOTTOM
 10
0
 20
0
 30
0
  9
$UCSORGLEFT
 10
0
 20
0
 30
0
  9
$UCSORGRIGHT
 10
0
 20
0
 30
0
  9
$UCSORGFRONT
 10
0
 20
0
 30
0
  9
$UCSORGBACK
 10
0
 20
0
 30
0
  9
$PUCSBASE
  2

  9
$PUCSNAME
  2

  9
$PUCSORG
 10
0
 20
0
 30
0
  9
$PUCSXDIR
 10
1
 20
0
 30
0
  9
$PUCSYDIR
 10
0
 20
1
 30
0
  9
$PUCSORTHOREF
  2

  9
$PUCSORTHOVIEW
 70
    0
  9
$PUCSORGTOP
 10
0
 20
0
 30
0
  9
$PUCSORGBOTTOM
 10
0
 20
0
 30
0
  9
$PUCSORGLEFT
 10
0
 20
0
 30
0
  9
$PUCSORGRIGHT
 10
0
 20
0
 30
0
  9
$PUCSORGFRONT
 10
0
 20
0
 30
0
  9
$PUCSORGBACK
 10
0
 20
0
 30
0
  9
$USERI1
 70
    0
  9
$USERI2
 70
    0
  9
$USERI3
 70
    0
  9
$USERI4
 70
    0
  9
$USERI5
 70
    0
  9
$USERR1
 40
0
  9
$USERR2
 40
0
  9
$USERR3
 40
0
  9
$USERR4
 40
0
  9
$USERR5
 40
0
  9
$WORLDVIEW
 70
    1
  9
$SHADEDGE
 70
    3
  9
$SHADEDIF
 70
   70
  9
$TILEMODE
 70
    1
  9
$MAXACTVP
 70
   64
  9
$PINSBASE
 10
0
 20
0
 30
0
  9
$PLIMCHECK
 70
    0
  9
$PEXTMIN
 10
0
 20
0
 30
0
  9
$PEXTMAX
 10
0
 20
0
 30
0
  9
$SNAPSTYLE
 70
    0
  9
$PLIMMIN
 10
0
 20
0
  9
$PLIMMAX
 10
297
 20
210
  9
$UNITMODE
 70
    0
  9
$VISRETAIN
 70
    1
  9
$PLINEGEN
 70
    0
  9
$PSLTSCALE
 70
    1
  9
$TREEDEPTH
 70
 3020
  9
$CMLSTYLE
  2
Standard
  9
$CMLJUST
 70
    0
  9
$CMLSCALE
 40
20
  9
$PROXYGRAPHICS
 70
    1
  9
$MEASUREMENT
 70
    1
  9
$CELWEIGHT
370
   -1
  9
$ENDCAPS
280
    0
  9
$JOINSTYLE
280
    0
  9
$LWDISPLAY
290
    0
  9
$INSUNITS
 70
    4
  9
$HYPERLINKBASE
  1

  9
$STYLESHEET
  1

  9
$XEDIT
290
    1
  9
$CEPSNTYPE
380
    0
  9
$PSTYLEMODE
290
    1
  9
$EXTNAMES
290
    1
  9
$PSVPSCALE
 40
0
  9
$OLESTARTUP
290
    0
  9
$SORTENTS
280
  127
  9
$INDEXCTL
280
    0
  9
$HIDETEXT
280
    1
  9
$XCLIPFRAME
290
    0
  9
$HALOGAP
280
    0
  9
$OBSCOLOR
 70
  257
  9
$OBSLTYPE
280
    0
  9
$INTERSECTIONDISPLAY
280
    0
  9
$INTERSECTIONCOLOR
 70
  257
  9
$DIMASSOC
280
    1
  9
$PROJECTNAME
  1

  9
$CAMERADISPLAY
290
    0
  9
$LENSLENGTH
 40
50
  9
$CAMERAHEIGHT
 40
0
  9
$STEPSPERSEC
 40
2
  9
$STEPSIZE
 40
50
  9
$3DDWFPREC
 40
2
  9
$PSOLWIDTH
 40
5
  9
$PSOLHEIGHT
 40
80
  9
$LOFTANG1
 40
1.570796326794897
  9
$LOFTANG2
 40
1.570796326794897
  9
$LOFTMAG1
 40
0
  9
$LOFTMAG2
 40
0
  9
$LOFTPARAM
 70
    7
  9
$LOFTNORMALS
280
    1
  9
$LATITUDE
 40
1
  9
$LONGITUDE
 40
1
  9
$NORTHDIRECTION
 40
0
  9
$TIMEZONE
 70
-8000
  9
$LIGHTGLYPHDISPLAY
280
    1
  9
$TILEMODELIGHTSYNCH
280
    1
  9
$SOLIDHIST
280
    1
  9
$SHOWHIST
280
    1
  9
$DWFFRAME
280
    2
  9
$DGNFRAME
280
    0
  9
$REALWORLDSCALE
290
    1
  9
$INTERFERECOLOR
 62
    1
  9
$CSHADOW
280
    0
  9
$SHADOWPLANELOCATION
 40
0
  0
ENDSEC
  0
SECTION
  2
CLASSES
  0
ENDSEC
  0
SECTION
  2
TABLES
  0
TABLE
  2
VPORT
  5
8
330
0
100
AcDbSymbolTable
 70
    1
  0
VPORT
  5
31
330
2
100
AcDbSymbolTableRecord
100
AcDbViewportTableRecord
  2
*ACTIVE
 70
    0
 10
0
 20
0
 11
1
 21
1
 12
14587.31986979991
 22
4338.85860204993
 13
0
 23
0
 14
10
 24
10
 15
10
 25
10
 16
0
 26
0
 36
1
 17
0
 27
0
 37
0
 40
21089.17029720411
 41
1.641025641025641
 42
50
 43
0
 44
0
 50
0
 51
0
 71
    0
 72
  100
 73
    1
 74
    3
 75
    0
 76
    1
 77
    0
 78
    0
281
    0
 65
    1
110
0
120
0
130
0
111
1
121
0
131
0
112
0
122
1
132
0
 79
    0
146
0
348
10020
 60
    7
 61
    5
292
1
282
    1
141
0
142
0
 63
  250
421
3358443
  0
ENDTAB
  0
TABLE
  2
LTYPE
  5
5
330
0
100
AcDbSymbolTable
 70
    4
  0
LTYPE
  5
14
330
5
100
AcDbSymbolTableRecord
100
AcDbLinetypeTableRecord
  2
ByBlock
 70
    0
  3

 72
   65
 73
    0
 40
0
  0
LTYPE
  5
15
330
5
100
AcDbSymbolTableRecord
100
AcDbLinetypeTableRecord
  2
ByLayer
 70
    0
  3

 72
   65
 73
    0
 40
0
  0
LTYPE
  5
16
330
5
100
AcDbSymbolTableRecord
100
AcDbLinetypeTableRecord
  2
Continuous
 70
    0
  3
Solid line
 72
   65
 73
    0
 40
0
  0
LTYPE
  5
32
330
5
100
AcDbSymbolTableRecord
100
AcDbLinetypeTableRecord
  2
DOT
 70
    0
  3
Dot . . . . . . . . . . . . . . . . . . . . . .
 72
   65
 73
    2
 40
6.35
 49
0
 74
    0
 49
-6.35
 74
    0
  0
LTYPE
  5
33
330
5
100
AcDbSymbolTableRecord
100
AcDbLinetypeTableRecord
  2
DOTTINY
 70
    0
  3
Dot (.15x) .....................................
 72
   65
 73
    2
 40
0.9525
 49
0
 74
    0
 49
-0.9525
 74
    0
  0
LTYPE
  5
34
330
5
100
AcDbSymbolTableRecord
100
AcDbLinetypeTableRecord
  2
DOT2
 70
    0
  3
Dot (.5x) .....................................
 72
   65
 73
    2
 40
3.175
 49
0
 74
    0
 49
-3.175
 74
    0
  0
LTYPE
  5
35
330
5
100
AcDbSymbolTableRecord
100
AcDbLinetypeTableRecord
  2
DOTX2
 70
    0
  3
Dot (2x) .  .  .  .  .  .  .  .  .  .  .  .  .
 72
   65
 73
    2
 40
12.7
 49
0
 74
    0
 49
-12.7
 74
    0
  0
LTYPE
  5
36
330
5
100
AcDbSymbolTableRecord
100
AcDbLinetypeTableRecord
  2
DASHED
 70
    0
  3
Dashed _ _ _ _ _ _ _ _ _ _ _ _ _ _ _ _ _
 72
   65
 73
    2
 40
19.05
 49
12.7
 74
    0
 49
-6.35
 74
    0
  0
LTYPE
  5
37
330
5
100
AcDbSymbolTableRecord
100
AcDbLinetypeTableRecord
  2
DASHEDTINY
 70
    0
  3
Dashed (.15x) _ _ _ _ _ _ _ _ _ _ _ _ _ _ _ _ _
 72
   65
 73
    2
 40
2.8575
 49
1.905
 74
    0
 49
-0.9525
 74
    0
  0
LTYPE
  5
38
330
5
100
AcDbSymbolTableRecord
100
AcDbLinetypeTableRecord
  2
DASHED2
 70
    0
  3
Dashed (.5x) _ _ _ _ _ _ _ _ _ _ _ _ _ _ _ _ _
 72
   65
 73
    2
 40
9.524999999999999
 49
6.35
 74
    0
 49
-3.175
 74
    0
  0
LTYPE
  5
39
330
5
100
AcDbSymbolTableRecord
100
AcDbLinetypeTableRecord
  2
DASHEDX2
 70
    0
  3
Dashed (2x) ____  ____  ____  ____  ____  ___
 72
   65
 73
    2
 40
38.09999999999999
 49
25.4
 74
    0
 49
-12.7
 74
    0
  0
LTYPE
  5
3A
330
5
100
AcDbSymbolTableRecord
100
AcDbLinetypeTableRecord
  2
DASHDOT
 70
    0
  3
Dash dot __ . __ . __ . __ . __ . __ . __ . __
 72
   65
 73
    4
 40
25.4
 49
12.7
 74
    0
 49
-6.35
 74
    0
 49
0
 74
    0
 49
-6.35
 74
    0
  0
LTYPE
  5
3B
330
5
100
AcDbSymbolTableRecord
100
AcDbLinetypeTableRecord
  2
DASHDOTTINY
 70
    0
  3
Dash dot (.15x) _._._._._._._._._._._._._._._.
 72
   65
 73
    4
 40
3.81
 49
1.905
 74
    0
 49
-0.9525
 74
    0
 49
0
 74
    0
 49
-0.9525
 74
    0
  0
LTYPE
  5
3C
330
5
100
AcDbSymbolTableRecord
100
AcDbLinetypeTableRecord
  2
DASHDOT2
 70
    0
  3
Dash dot (.5x) _._._._._._._._._._._._._._._.
 72
   65
 73
    4
 40
12.7
 49
6.35
 74
    0
 49
-3.175
 74
    0
 49
0
 74
    0
 49
-3.175
 74
    0
  0
LTYPE
  5
3D
330
5
100
AcDbSymbolTableRecord
100
AcDbLinetypeTableRecord
  2
DASHDOTX2
 70
    0
  3
Dash dot (2x) ____  .  ____  .  ____  .  ___
 72
   65
 73
    4
 40
50.8
 49
25.4
 74
    0
 49
-12.7
 74
    0
 49
0
 74
    0
 49
-12.7
 74
    0
  0
LTYPE
  5
3E
330
5
100
AcDbSymbolTableRecord
100
AcDbLinetypeTableRecord
  2
DIVIDE
 70
    0
  3
Divide ____ . . ____ . . ____ . . ____ . . ____
 72
   65
 73
    6
 40
31.75
 49
12.7
 74
    0
 49
-6.35
 74
    0
 49
0
 74
    0
 49
-6.35
 74
    0
 49
0
 74
    0
 49
-6.35
 74
    0
  0
LTYPE
  5
3F
330
5
100
AcDbSymbolTableRecord
100
AcDbLinetypeTableRecord
  2
DIVIDETINY
 70
    0
  3
Divide (.15x) __..__..__..__..__..__..__..__.._
 72
   65
 73
    6
 40
4.7625
 49
1.905
 74
    0
 49
-0.9525
 74
    0
 49
0
 74
    0
 49
-0.9525
 74
    0
 49
0
 74
    0
 49
-0.9525
 74
    0
  0
LTYPE
  5
40
330
5
100
AcDbSymbolTableRecord
100
AcDbLinetypeTableRecord
  2
DIVIDE2
 70
    0
  3
Divide (.5x) __..__..__..__..__..__..__..__.._
 72
   65
 73
    6
 40
15.875
 49
6.35
 74
    0
 49
-3.175
 74
    0
 49
0
 74
    0
 49
-3.175
 74
    0
 49
0
 74
    0
 49
-3.175
 74
    0
  0
LTYPE
  5
41
330
5
100
AcDbSymbolTableRecord
100
AcDbLinetypeTableRecord
  2
DIVIDEX2
 70
    0
  3
Divide (2x) ________  .  .  ________  .  .  _
 72
   65
 73
    6
 40
63.5
 49
25.4
 74
    0
 49
-12.7
 74
    0
 49
0
 74
    0
 49
-12.7
 74
    0
 49
0
 74
    0
 49
-12.7
 74
    0
  0
LTYPE
  5
42
330
5
100
AcDbSymbolTableRecord
100
AcDbLinetypeTableRecord
  2
BORDER
 70
    0
  3
Border __ __ . __ __ . __ __ . __ __ . __ __ .
 72
   65
 73
    6
 40
44.45
 49
12.7
 74
    0
 49
-6.35
 74
    0
 49
12.7
 74
    0
 49
-6.35
 74
    0
 49
0
 74
    0
 49
-6.35
 74
    0
  0
LTYPE
  5
43
330
5
100
AcDbSymbolTableRecord
100
AcDbLinetypeTableRecord
  2
BORDERTINY
 70
    0
  3
Border (.15x) __.__.__.__.__.__.__.__.__.__.__.
 72
   65
 73
    6
 40
6.6675
 49
1.905
 74
    0
 49
-0.9525
 74
    0
 49
1.905
 74
    0
 49
-0.9525
 74
    0
 49
0
 74
    0
 49
-0.9525
 74
    0
  0
LTYPE
  5
44
330
5
100
AcDbSymbolTableRecord
100
AcDbLinetypeTableRecord
  2
BORDER2
 70
    0
  3
Border (.5x) __.__.__.__.__.__.__.__.__.__.__.
 72
   65
 73
    6
 40
22.225
 49
6.35
 74
    0
 49
-3.175
 74
    0
 49
6.35
 74
    0
 49
-3.175
 74
    0
 49
0
 74
    0
 49
-3.175
 74
    0
  0
LTYPE
  5
45
330
5
100
AcDbSymbolTableRecord
100
AcDbLinetypeTableRecord
  2
BORDERX2
 70
    0
  3
Border (2x) ____  ____  .  ____  ____  .  ___
 72
   65
 73
    6
 40
88.89999999999999
 49
25.4
 74
    0
 49
-12.7
 74
    0
 49
25.4
 74
    0
 49
-12.7
 74
    0
 49
0
 74
    0
 49
-12.7
 74
    0
  0
LTYPE
  5
46
330
5
100
AcDbSymbolTableRecord
100
AcDbLinetypeTableRecord
  2
CENTER
 70
    0
  3
Center ____ _ ____ _ ____ _ ____ _ ____ _ ____
 72
   65
 73
    4
 40
50.8
 49
31.75
 74
    0
 49
-6.35
 74
    0
 49
6.35
 74
    0
 49
-6.35
 74
    0
  0
LTYPE
  5
47
330
5
100
AcDbSymbolTableRecord
100
AcDbLinetypeTableRecord
  2
CENTERTINY
 70
    0
  3
Center (.15x) ___ _ ___ _ ___ _ ___ _ ___ _ ___
 72
   65
 73
    4
 40
7.62
 49
4.7625
 74
    0
 49
-0.9525
 74
    0
 49
0.9525
 74
    0
 49
-0.9525
 74
    0
  0
LTYPE
  5
48
330
5
100
AcDbSymbolTableRecord
100
AcDbLinetypeTableRecord
  2
CENTER2
 70
    0
  3
Center (.5x) ___ _ ___ _ ___ _ ___ _ ___ _ ___
 72
   65
 73
    4
 40
28.575
 49
19.05
 74
    0
 49
-3.175
 74
    0
 49
3.175
 74
    0
 49
-3.175
 74
    0
  0
LTYPE
  5
49
330
5
100
AcDbSymbolTableRecord
100
AcDbLinetypeTableRecord
  2
CENTERX2
 70
    0
  3
Center (2x) ________  __  ________  __  _____
 72
   65
 73
    4
 40
101.6
 49
63.5
 74
    0
 49
-12.7
 74
    0
 49
12.7
 74
    0
 49
-12.7
 74
    0
  0
ENDTAB
  0
TABLE
  2
LAYER
  5
2
330
0
100
AcDbSymbolTable
 70
    1
  0
LAYER
  5
10
330
2
100
AcDbSymbolTableRecord
100
AcDbLayerTableRecord
  2
0
 70
    0
 62
    7
  6
CONTINUOUS
370
    0
390
F
  0
LAYER
  5
4A
330
2
100
AcDbSymbolTableRecord
100
AcDbLayerTableRecord
  2
dimensions
 70
    0
 62
    1
  6
CONTINUOUS
370
    0
390
F
  0
LAYER
  5
4B
330
2
100
AcDbSymbolTableRecord
100
AcDbLayerTableRecord
  2
outline
 70
    0
 62
    3
  6
CONTINUOUS
370
    0
390
F
  0
ENDTAB
  0
TABLE
  2
STYLE
  5
3
330
0
100
AcDbSymbolTable
 70
    3
  0
STYLE
  5
4C
330
2
100
AcDbSymbolTableRecord
100
AcDbTextStyleTableRecord
  2
Standard
 70
    0
 40
0
 41
1
 50
0
 71
    0
 42
1
  3
txt
  4

  0
ENDTAB
  0
TABLE
  2
VIEW
  5
6
330
0
100
AcDbSymbolTable
 70
    0
  0
ENDTAB
  0
TABLE
  2
UCS
  5
7
330
0
100
AcDbSymbolTable
 70
    0
  0
ENDTAB
  0
TABLE
  2
APPID
  5
9
330
0
100
AcDbSymbolTable
 70
    1
  0
APPID
  5
12
330
9
100
AcDbSymbolTableRecord
100
AcDbRegAppTableRecord
  2
ACAD
 70
    0
  0
APPID
  5
4D
330
9
100
AcDbSymbolTableRecord
100
AcDbRegAppTableRecord
  2
LibreCad
 70
    0
  0
ENDTAB
  0
TABLE
  2
DIMSTYLE
  5
A
330
0
100
AcDbSymbolTable
 70
    1
100
AcDbDimStyleTable
 71
    1
  0
DIMSTYLE
105
4E
330
A
100
AcDbSymbolTableRecord
100
AcDbDimStyleTableRecord
  2
Standard
 70
    0
 40
1
 41
2.5
 42
0.625
 43
0.38
 44
1.25
 45
0
 46
0
 47
0
 48
0
 49
1
140
50
141
0.09
142
0
143
25.4
144
1
145
0
146
1
147
0.625
148
0
 71
    0
 72
    0
 73
    0
 74
    1
 75
    0
 76
    0
 77
    0
 78
    1
 79
    0
170
    0
171
    2
172
    0
173
    0
174
    0
175
    0
176
    0
177
    0
178
    0
179
    2
271
    4
272
    4
273
    2
274
    2
275
    0
276
    0
277
    2
278
    0
279
    0
280
    0
281
    0
282
    0
283
    1
284
    0
285
    0
286
    0
288
    0
289
    3
340
standard
341

371
   -2
372
   -2
  0
ENDTAB
  0
TABLE
  2
BLOCK_RECORD
  5
1
330
0
100
AcDbSymbolTable
 70
    2
  0
BLOCK_RECORD
  5
1F
330
1
100
AcDbSymbolTableRecord
100
AcDbBlockTableRecord
  2
*Model_Space
 70
    0
280
    1
281
    0
  0
BLOCK_RECORD
  5
1E
330
1
100
AcDbSymbolTableRecord
100
AcDbBlockTableRecord
  2
*Paper_Space
 70
    0
280
    1
281
    0
  0
BLOCK_RECORD
  5
4F
330
1
100
AcDbSymbolTableRecord
100
AcDbBlockTableRecord
  2
*D13
 70
    0
280
    1
281
    0
  0
BLOCK_RECORD
  5
52
330
1
100
AcDbSymbolTableRecord
100
AcDbBlockTableRecord
  2
*D18
 70
    0
280
    1
281
    0
  0
BLOCK_RECORD
  5
55
330
1
100
AcDbSymbolTableRecord
100
AcDbBlockTableRecord
  2
*D22
 70
    0
280
    1
281
    0
  0
BLOCK_RECORD
  5
58
330
1
100
AcDbSymbolTableRecord
100
AcDbBlockTableRecord
  2
*D6
 70
    0
280
    1
281
    0
  0
BLOCK_RECORD
  5
5B
330
1
100
AcDbSymbolTableRecord
100
AcDbBlockTableRecord
  2
*D41
 70
    0
280
    1
281
    0
  0
BLOCK_RECORD
  5
5E
330
1
100
AcDbSymbolTableRecord
100
AcDbBlockTableRecord
  2
*D32
 70
    0
280
    1
281
    0
  0
BLOCK_RECORD
  5
61
330
1
100
AcDbSymbolTableRecord
100
AcDbBlockTableRecord
  2
*D5
 70
    0
280
    1
281
    0
  0
BLOCK_RECORD
  5
64
330
1
100
AcDbSymbolTableRecord
100
AcDbBlockTableRecord
  2
*D21
 70
    0
280
    1
281
    0
  0
BLOCK_RECORD
  5
67
330
1
100
AcDbSymbolTableRecord
100
AcDbBlockTableRecord
  2
*D17
 70
    0
280
    1
281
    0
  0
BLOCK_RECORD
  5
6A
330
1
100
AcDbSymbolTableRecord
100
AcDbBlockTableRecord
  2
*D12
 70
    0
280
    1
281
    0
  0
BLOCK_RECORD
  5
6D
330
1
100
AcDbSymbolTableRecord
100
AcDbBlockTableRecord
  2
*D24
 70
    0
280
    1
281
    0
  0
BLOCK_RECORD
  5
70
330
1
100
AcDbSymbolTableRecord
100
AcDbBlockTableRecord
  2
*D7
 70
    0
280
    1
281
    0
  0
BLOCK_RECORD
  5
73
330
1
100
AcDbSymbolTableRecord
100
AcDbBlockTableRecord
  2
*D14
 70
    0
280
    1
281
    0
  0
BLOCK_RECORD
  5
76
330
1
100
AcDbSymbolTableRecord
100
AcDbBlockTableRecord
  2
*D45
 70
    0
280
    1
281
    0
  0
BLOCK_RECORD
  5
79
330
1
100
AcDbSymbolTableRecord
100
AcDbBlockTableRecord
  2
*D46
 70
    0
280
    1
281
    0
  0
BLOCK_RECORD
  5
7C
330
1
100
AcDbSymbolTableRecord
100
AcDbBlockTableRecord
  2
*D1
 70
    0
280
    1
281
    0
  0
BLOCK_RECORD
  5
7F
330
1
100
AcDbSymbolTableRecord
100
AcDbBlockTableRecord
  2
*D36
 70
    0
280
    1
281
    0
  0
BLOCK_RECORD
  5
82
330
1
100
AcDbSymbolTableRecord
100
AcDbBlockTableRecord
  2
*D16
 70
    0
280
    1
281
    0
  0
BLOCK_RECORD
  5
85
330
1
100
AcDbSymbolTableRecord
100
AcDbBlockTableRecord
  2
*D20
 70
    0
280
    1
281
    0
  0
BLOCK_RECORD
  5
88
330
1
100
AcDbSymbolTableRecord
100
AcDbBlockTableRecord
  2
*D35
 70
    0
280
    1
281
    0
  0
BLOCK_RECORD
  5
8B
330
1
100
AcDbSymbolTableRecord
100
AcDbBlockTableRecord
  2
*D28
 70
    0
280
    1
281
    0
  0
BLOCK_RECORD
  5
8E
330
1
100
AcDbSymbolTableRecord
100
AcDbBlockTableRecord
  2
*D23
 70
    0
280
    1
281
    0
  0
BLOCK_RECORD
  5
91
330
1
100
AcDbSymbolTableRecord
100
AcDbBlockTableRecord
  2
*D2
 70
    0
280
    1
281
    0
  0
BLOCK_RECORD
  5
94
330
1
100
AcDbSymbolTableRecord
100
AcDbBlockTableRecord
  2
*D27
 70
    0
280
    1
281
    0
  0
BLOCK_RECORD
  5
97
330
1
100
AcDbSymbolTableRecord
100
AcDbBlockTableRecord
  2
*D10
 70
    0
280
    1
281
    0
  0
BLOCK_RECORD
  5
9A
330
1
100
AcDbSymbolTableRecord
100
AcDbBlockTableRecord
  2
*D15
 70
    0
280
    1
281
    0
  0
BLOCK_RECORD
  5
9D
330
1
100
AcDbSymbolTableRecord
100
AcDbBlockTableRecord
  2
*D9
 70
    0
280
    1
281
    0
  0
BLOCK_RECORD
  5
A0
330
1
100
AcDbSymbolTableRecord
100
AcDbBlockTableRecord
  2
*D43
 70
    0
280
    1
281
    0
  0
BLOCK_RECORD
  5
A3
330
1
100
AcDbSymbolTableRecord
100
AcDbBlockTableRecord
  2
*D38
 70
    0
280
    1
281
    0
  0
BLOCK_RECORD
  5
A6
330
1
100
AcDbSymbolTableRecord
100
AcDbBlockTableRecord
  2
*D3
 70
    0
280
    1
281
    0
  0
BLOCK_RECORD
  5
A9
330
1
100
AcDbSymbolTableRecord
100
AcDbBlockTableRecord
  2
*D39
 70
    0
280
    1
281
    0
  0
BLOCK_RECORD
  5
AC
330
1
100
AcDbSymbolTableRecord
100
AcDbBlockTableRecord
  2
*D4
 70
    0
280
    1
281
    0
  0
BLOCK_RECORD
  5
AF
330
1
100
AcDbSymbolTableRecord
100
AcDbBlockTableRecord
  2
*D11
 70
    0
280
    1
281
    0
  0
BLOCK_RECORD
  5
B2
330
1
100
AcDbSymbolTableRecord
100
AcDbBlockTableRecord
  2
*D33
 70
    0
280
    1
281
    0
  0
BLOCK_RECORD
  5
B5
330
1
100
AcDbSymbolTableRecord
100
AcDbBlockTableRecord
  2
*D8
 70
    0
280
    1
281
    0
  0
BLOCK_RECORD
  5
B8
330
1
100
AcDbSymbolTableRecord
100
AcDbBlockTableRecord
  2
*D42
 70
    0
280
    1
281
    0
  0
BLOCK_RECORD
  5
BB
330
1
100
AcDbSymbolTableRecord
100
AcDbBlockTableRecord
  2
*D31
 70
    0
280
    1
281
    0
  0
BLOCK_RECORD
  5
BE
330
1
100
AcDbSymbolTableRecord
100
AcDbBlockTableRecord
  2
*D44
 70
    0
280
    1
281
    0
  0
BLOCK_RECORD
  5
C1
330
1
100
AcDbSymbolTableRecord
100
AcDbBlockTableRecord
  2
*D26
 70
    0
280
    1
281
    0
  0
BLOCK_RECORD
  5
C4
330
1
100
AcDbSymbolTableRecord
100
AcDbBlockTableRecord
  2
*D40
 70
    0
280
    1
281
    0
  0
BLOCK_RECORD
  5
C7
330
1
100
AcDbSymbolTableRecord
100
AcDbBlockTableRecord
  2
*D34
 70
    0
280
    1
281
    0
  0
BLOCK_RECORD
  5
CA
330
1
100
AcDbSymbolTableRecord
100
AcDbBlockTableRecord
  2
*D19
 70
    0
280
    1
281
    0
  0
BLOCK_RECORD
  5
CD
330
1
100
AcDbSymbolTableRecord
100
AcDbBlockTableRecord
  2
*D37
 70
    0
280
    1
281
    0
  0
BLOCK_RECORD
  5
D0
330
1
100
AcDbSymbolTableRecord
100
AcDbBlockTableRecord
  2
*D25
 70
    0
280
    1
281
    0
  0
BLOCK_RECORD
  5
D3
330
1
100
AcDbSymbolTableRecord
100
AcDbBlockTableRecord
  2
*D30
 70
    0
280
    1
281
    0
  0
BLOCK_RECORD
  5
D6
330
1
100
AcDbSymbolTableRecord
100
AcDbBlockTableRecord
  2
*D29
 70
    0
280
    1
281
    0
  0
ENDTAB
  0
ENDSEC
  0
SECTION
  2
BLOCKS
  0
BLOCK
  5
20
330
1F
100
AcDbEntity
  8
0
100
AcDbBlockBegin
  2
*Model_Space
 70
    0
 10
0
 20
0
 30
0
  3
*Model_Space
  1

  0
ENDBLK
  5
21
330
1F
100
AcDbEntity
  8
0
100
AcDbBlockEnd
  0
BLOCK
  5
1C
330
1B
100
AcDbEntity
  8
0
100
AcDbBlockBegin
  2
*Paper_Space
 70
    0
 10
0
 20
0
 30
0
  3
*Paper_Space
  1

  0
ENDBLK
  5
1D
330
1F
100
AcDbEntity
  8
0
100
AcDbBlockEnd
  0
BLOCK
  5
50
330
4F
100
AcDbEntity
  8
0
100
AcDbBlockBegin
  2
*D13
 70
    1
 10
0
 20
0
  3
*D13
  1

  0
LINE
  5
D9
100
AcDbEntity
  8
dimensions
  6
ByBlock
 62
    0
370
   -2
100
AcDbLine
 10
10576.59914203758
 20
-1540.187356463948
 11
10576.59914203758
 21
-2812.710705496116
  0
MTEXT
  5
DA
100
AcDbEntity
  8
dimensions
  6
CONTINUOUS
 62
    0
370
   -2
100
AcDbMText
 10
10550.97414203758
 20
-2176.449030980032
 30
0
 40
50
 41
300.0000000000093
 71
    5
 72
    1
  1
1272.5233
  7
standard
210
0
220
0
230
1
 50
90
 73
    2
 44
1
  0
SOLID
  5
DB
100
AcDbEntity
  8
dimensions
  6
ByBlock
 62
    0
370
   -2
100
AcDbTrace
 10
10576.59914203758
 20
-1540.187356463948
 30
0
 11
10577.01542669536
 21
-1542.687356463948
 31
0
 12
10576.18285737981
 22
-1542.687356463948
 32
0
 13
10576.18285737981
 23
-1542.687356463948
 33
0
  0
SOLID
  5
DC
100
AcDbEntity
  8
dimensions
  6
ByBlock
 62
    0
370
   -2
100
AcDbTrace
 10
10576.59914203758
 20
-2812.710705496116
 30
0
 11
10576.18285737981
 21
-2810.210705496116
 31
0
 12
10577.01542669536
 22
-2810.210705496116
 32
0
 13
10577.01542669536
 23
-2810.210705496116
 33
0
  0
LINE
  5
DD
100
AcDbEntity
  8
dimensions
  6
ByBlock
 62
    0
370
   -2
100
AcDbLine
 10
10703.41704548246
 20
-1540.187356463948
 11
10575.34914203758
 21
-1540.187356463948
  0
LINE
  5
DE
100
AcDbEntity
  8
dimensions
  6
ByBlock
 62
    0
370
   -2
100
AcDbLine
 10
10703.41704548246
 20
-2812.710705496116
 11
10575.34914203758
 21
-2812.710705496116
  0
ENDBLK
  5
51
330
4F
100
AcDbEntity
  8
0
100
AcDbBlockEnd
  0
BLOCK
  5
53
330
52
100
AcDbEntity
  8
0
100
AcDbBlockBegin
  2
*D18
 70
    1
 10
0
 20
0
  3
*D18
  1

  0
LINE
  5
DF
100
AcDbEntity
  8
dimensions
  6
ByBlock
 62
    0
370
   -2
100
AcDbLine
 10
13172.55274688305
 20
-2817.311383743704
 11
13304.62962476814
 21
-2817.311383743703
  0
ARC
  5
E0
100
AcDbEntity
  8
dimensions
  6
ByBlock
 62
    0
370
   -2
100
AcDbCircle
 10
11393.04481604353
 20
-2817.311383743703
 40
1910.334808724613
100
AcDbArc
 50
0
 51
10.25834279095088
  0
SOLID
  5
E1
100
AcDbEntity
  8
dimensions
  6
ByBlock
 62
    0
370
   -2
100
AcDbTrace
 10
13303.37962476814
 20
-2817.311383743703
 30
0
 11
13302.9617043607
 21
-2814.811656668732
 31
0
 12
13303.79427349801
 22
-2814.811111889061
 32
0
 13
13303.79427349801
 23
-2814.811111889061
 33
0
  0
SOLID
  5
E2
100
AcDbEntity
  8
dimensions
  6
ByBlock
 62
    0
370
   -2
100
AcDbTrace
 10
13272.84249685066
 20
-2477.105915449837
 30
0
 11
13273.69578281419
 21
-2479.492376423903
 31
0
 12
13272.87642546211
 22
-2479.64010995019
 32
0
 13
13272.87642546211
 23
-2479.64010995019
 33
0
  0
MTEXT
  5
E3
100
AcDbEntity
  8
dimensions
  6
CONTINUOUS
 62
    0
370
   -2
100
AcDbMText
 10
13296.35252435665
 20
-2646.468888922635
 30
0
 40
50
 41
177.7777777777808
 71
    8
 72
    1
  1
10.26%%D
  7
standard
210
0
220
0
230
1
 50
275.1291713954754
 73
    2
 44
1
  0
ENDBLK
  5
54
330
52
100
AcDbEntity
  8
0
100
AcDbBlockEnd
  0
BLOCK
  5
56
330
55
100
AcDbEntity
  8
0
100
AcDbBlockBegin
  2
*D22
 70
    1
 10
0
 20
0
  3
*D22
  1

  0
LINE
  5
E4
100
AcDbEntity
  8
dimensions
  6
ByBlock
 62
    0
370
   -2
100
AcDbLine
 10
15788.13424412437
 20
-2241.542606837093
 11
15788.13424412437
 21
-1771.735908929093
  0
MTEXT
  5
E5
100
AcDbEntity
  8
dimensions
  6
CONTINUOUS
 62
    0
370
   -2
100
AcDbMText
 10
15762.50924412437
 20
-2006.639257883093
 30
0
 40
50
 41
277.777777777784
 71
    5
 72
    1
  1
469.8067
  7
standard
210
0
220
0
230
1
 50
90
 73
    2
 44
1
  0
SOLID
  5
E6
100
AcDbEntity
  8
dimensions
  6
ByBlock
 62
    0
370
   -2
100
AcDbTrace
 10
15788.13424412437
 20
-2241.542606837093
 30
0
 11
15787.71795946659
 21
-2239.042606837093
 31
0
 12
15788.55052878214
 22
-2239.042606837093
 32
0
 13
15788.55052878214
 23
-2239.042606837093
 33
0
  0
SOLID
  5
E7
100
AcDbEntity
  8
dimensions
  6
ByBlock
 62
    0
370
   -2
100
AcDbTrace
 10
15788.13424412437
 20
-1771.735908929093
 30
0
 11
15788.55052878214
 21
-1774.235908929093
 31
0
 12
15787.71795946659
 22
-1774.235908929093
 32
0
 13
15787.71795946659
 23
-1774.235908929093
 33
0
  0
LINE
  5
E8
100
AcDbEntity
  8
dimensions
  6
ByBlock
 62
    0
370
   -2
100
AcDbLine
 10
8087.831478679374
 20
-2241.542606837093
 11
15789.38424412437
 21
-2241.542606837093
  0
LINE
  5
E9
100
AcDbEntity
  8
dimensions
  6
ByBlock
 62
    0
370
   -2
100
AcDbLine
 10
15206.11058830737
 20
-1771.735908929093
 11
15789.38424412437
 21
-1771.735908929093
  0
ENDBLK
  5
57
330
55
100
AcDbEntity
  8
0
100
AcDbBlockEnd
  0
BLOCK
  5
59
330
58
100
AcDbEntity
  8
0
100
AcDbBlockBegin
  2
*D6
 70
    1
 10
0
 20
0
  3
*D6
  1

  0
LINE
  5
EA
100
AcDbEntity
  8
dimensions
  6
ByBlock
 62
    0
370
   -2
100
AcDbLine
 10
8087.206478679374
 20
-784.4470431175467
 11
15205.48558830741
 21
-784.4470431175467
  0
MTEXT
  5
EB
100
AcDbEntity
  8
dimensions
  6
CONTINUOUS
 62
    0
370
   -2
100
AcDbMText
 10
11646.34603349339
 20
-758.8220431175467
 30
0
 40
50
 41
277.7777777777778
 71
    5
 72
    1
  1
7118.2791
  7
standard
210
0
220
0
230
1
 50
0
 73
    2
 44
1
  0
SOLID
  5
EC
100
AcDbEntity
  8
dimensions
  6
ByBlock
 62
    0
370
   -2
100
AcDbTrace
 10
8087.206478679374
 20
-784.4470431175467
 30
0
 11
8089.706478679374
 21
-784.0307584597739
 31
0
 12
8089.706478679374
 22
-784.8633277753196
 32
0
 13
8089.706478679374
 23
-784.8633277753196
 33
0
  0
SOLID
  5
ED
100
AcDbEntity
  8
dimensions
  6
ByBlock
 62
    0
370
   -2
100
AcDbTrace
 10
15205.48558830741
 20
-784.4470431175467
 30
0
 11
15202.98558830741
 21
-784.8633277753196
 31
0
 12
15202.98558830741
 22
-784.0307584597739
 32
0
 13
15202.98558830741
 23
-784.0307584597739
 33
0
  0
LINE
  5
EE
100
AcDbEntity
  8
dimensions
  6
ByBlock
 62
    0
370
   -2
100
AcDbLine
 10
8087.206478679374
 20
-2080.440969771433
 11
8087.206478679374
 21
-783.1970431175467
  0
LINE
  5
EF
100
AcDbEntity
  8
dimensions
  6
ByBlock
 62
    0
370
   -2
100
AcDbLine
 10
15205.48558830741
 20
-1771.110908928943
 11
15205.48558830741
 21
-783.1970431175467
  0
ENDBLK
  5
5A
330
58
100
AcDbEntity
  8
0
100
AcDbBlockEnd
  0
BLOCK
  5
5C
330
5B
100
AcDbEntity
  8
0
100
AcDbBlockBegin
  2
*D41
 70
    1
 10
0
 20
0
  3
*D41
  1

  0
LINE
  5
F0
100
AcDbEntity
  8
dimensions
  6
ByBlock
 62
    0
370
   -2
100
AcDbLine
 10
14078.00515149172
 20
-182.0387965176378
 11
15273.2478595677
 21
-182.0387965176378
  0
MTEXT
  5
F1
100
AcDbEntity
  8
dimensions
  6
CONTINUOUS
 62
    0
370
   -2
100
AcDbMText
 10
14675.62650552971
 20
-156.4137965176378
 30
0
 40
50
 41
294.4444444444475
 71
    5
 72
    1
  1
1195.2427
  7
standard
210
0
220
0
230
1
 50
0
 73
    2
 44
1
  0
SOLID
  5
F2
100
AcDbEntity
  8
dimensions
  6
ByBlock
 62
    0
370
   -2
100
AcDbTrace
 10
14078.00515149172
 20
-182.0387965176378
 30
0
 11
14080.50515149172
 21
-181.622511859865
 31
0
 12
14080.50515149172
 22
-182.4550811754107
 32
0
 13
14080.50515149172
 23
-182.4550811754107
 33
0
  0
SOLID
  5
F3
100
AcDbEntity
  8
dimensions
  6
ByBlock
 62
    0
370
   -2
100
AcDbTrace
 10
15273.2478595677
 20
-182.0387965176378
 30
0
 11
15270.7478595677
 21
-182.4550811754107
 31
0
 12
15270.7478595677
 22
-181.622511859865
 32
0
 13
15270.7478595677
 23
-181.622511859865
 33
0
  0
LINE
  5
F4
100
AcDbEntity
  8
dimensions
  6
ByBlock
 62
    0
370
   -2
100
AcDbLine
 10
14078.00515149172
 20
-1512.247254607532
 11
14078.00515149172
 21
-180.7887965176378
  0
LINE
  5
F5
100
AcDbEntity
  8
dimensions
  6
ByBlock
 62
    0
370
   -2
100
AcDbLine
 10
15273.2478595677
 20
-1512.247254607532
 11
15273.2478595677
 21
-180.7887965176378
  0
ENDBLK
  5
5D
330
5B
100
AcDbEntity
  8
0
100
AcDbBlockEnd
  0
BLOCK
  5
5F
330
5E
100
AcDbEntity
  8
0
100
AcDbBlockBegin
  2
*D32
 70
    1
 10
0
 20
0
  3
*D32
  1

  0
LINE
  5
F6
100
AcDbEntity
  8
dimensions
  6
ByBlock
 62
    0
370
   -2
100
AcDbLine
 10
3887.306436304937
 20
2091.949111912673
 11
232.2798520550726
 21
2091.949111912673
  0
MTEXT
  5
F7
100
AcDbEntity
  8
dimensions
  6
CONTINUOUS
 62
    0
370
   -2
100
AcDbMText
 10
2059.793144180005
 20
2117.574111912673
 30
0
 40
50
 41
311.1111111111297
 71
    5
 72
    1
  1
3655.0266
  7
standard
210
0
220
0
230
1
 50
0
 73
    2
 44
1
  0
SOLID
  5
F8
100
AcDbEntity
  8
dimensions
  6
ByBlock
 62
    0
370
   -2
100
AcDbTrace
 10
3887.306436304937
 20
2091.949111912673
 30
0
 11
3884.806436304937
 21
2091.5328272549
 31
0
 12
3884.806436304937
 22
2092.365396570446
 32
0
 13
3884.806436304937
 23
2092.365396570446
 33
0
  0
SOLID
  5
F9
100
AcDbEntity
  8
dimensions
  6
ByBlock
 62
    0
370
   -2
100
AcDbTrace
 10
232.2798520550726
 20
2091.949111912673
 30
0
 11
234.7798520550726
 21
2092.365396570446
 31
0
 12
234.7798520550726
 22
2091.5328272549
 32
0
 13
234.7798520550726
 23
2091.5328272549
 33
0
  0
LINE
  5
FA
100
AcDbEntity
  8
dimensions
  6
ByBlock
 62
    0
370
   -2
100
AcDbLine
 10
3887.306436304937
 20
1270.460990354075
 11
3887.306436304937
 21
2093.199111912673
  0
LINE
  5
FB
100
AcDbEntity
  8
dimensions
  6
ByBlock
 62
    0
370
   -2
100
AcDbLine
 10
232.2798520550726
 20
1113.497812551063
 11
232.2798520550726
 21
2093.199111912673
  0
ENDBLK
  5
60
330
5E
100
AcDbEntity
  8
0
100
AcDbBlockEnd
  0
BLOCK
  5
62
330
61
100
AcDbEntity
  8
0
100
AcDbBlockBegin
  2
*D5
 70
    1
 10
0
 20
0
  3
*D5
  1

  0
LINE
  5
FC
100
AcDbEntity
  8
dimensions
  6
ByBlock
 62
    0
370
   -2
100
AcDbLine
 10
8087.206478679375
 20
-1005.518482541583
 11
14805.34157136298
 21
-1005.518482541583
  0
MTEXT
  5
FD
100
AcDbEntity
  8
dimensions
  6
CONTINUOUS
 62
    0
370
   -2
100
AcDbMText
 10
11446.27402502118
 20
-979.8934825415827
 30
0
 40
50
 41
277.7777777777872
 71
    5
 72
    1
  1
6718.1351
  7
standard
210
0
220
0
230
1
 50
0
 73
    2
 44
1
  0
SOLID
  5
FE
100
AcDbEntity
  8
dimensions
  6
ByBlock
 62
    0
370
   -2
100
AcDbTrace
 10
8087.206478679375
 20
-1005.518482541583
 30
0
 11
8089.706478679375
 21
-1005.10219788381
 31
0
 12
8089.706478679375
 22
-1005.934767199356
 32
0
 13
8089.706478679375
 23
-1005.934767199356
 33
0
  0
SOLID
  5
FF
100
AcDbEntity
  8
dimensions
  6
ByBlock
 62
    0
370
   -2
100
AcDbTrace
 10
14805.34157136298
 20
-1005.518482541583
 30
0
 11
14802.84157136298
 21
-1005.934767199356
 31
0
 12
14802.84157136298
 22
-1005.10219788381
 32
0
 13
14802.84157136298
 23
-1005.10219788381
 33
0
  0
LINE
  5
100
100
AcDbEntity
  8
dimensions
  6
ByBlock
 62
    0
370
   -2
100
AcDbLine
 10
8087.206478679374
 20
-2080.440969771388
 11
8087.206478679375
 21
-1004.268482541583
  0
LINE
  5
101
100
AcDbEntity
  8
dimensions
  6
ByBlock
 62
    0
370
   -2
100
AcDbLine
 10
14805.34157136298
 20
-1750.528007684142
 11
14805.34157136298
 21
-1004.268482541583
  0
ENDBLK
  5
63
330
61
100
AcDbEntity
  8
0
100
AcDbBlockEnd
  0
BLOCK
  5
65
330
64
100
AcDbEntity
  8
0
100
AcDbBlockBegin
  2
*D21
 70
    1
 10
0
 20
0
  3
*D21
  1

  0
LINE
  5
102
100
AcDbEntity
  8
dimensions
  6
ByBlock
 62
    0
370
   -2
100
AcDbLine
 10
14533.6176312127
 20
-9972.098244116707
 11
14533.6176312127
 21
-10365.95276104647
  0
MTEXT
  5
103
100
AcDbEntity
  8
dimensions
  6
CONTINUOUS
 62
    0
370
   -2
100
AcDbMText
 10
14507.9926312127
 20
-10169.02550258159
 30
0
 40
50
 41
277.7777777777902
 71
    5
 72
    1
  1
393.8545
  7
standard
210
0
220
0
230
1
 50
90
 73
    2
 44
1
  0
SOLID
  5
104
100
AcDbEntity
  8
dimensions
  6
ByBlock
 62
    0
370
   -2
100
AcDbTrace
 10
14533.6176312127
 20
-9972.098244116707
 30
0
 11
14534.03391587047
 21
-9974.598244116707
 31
0
 12
14533.20134655492
 22
-9974.598244116707
 32
0
 13
14533.20134655492
 23
-9974.598244116707
 33
0
  0
SOLID
  5
105
100
AcDbEntity
  8
dimensions
  6
ByBlock
 62
    0
370
   -2
100
AcDbTrace
 10
14533.6176312127
 20
-10365.95276104647
 30
0
 11
14533.20134655492
 21
-10363.45276104647
 31
0
 12
14534.03391587047
 22
-10363.45276104647
 32
0
 13
14534.03391587047
 23
-10363.45276104647
 33
0
  0
LINE
  5
106
100
AcDbEntity
  8
dimensions
  6
ByBlock
 62
    0
370
   -2
100
AcDbLine
 10
14804.71657136306
 20
-9972.098244116707
 11
14532.3676312127
 21
-9972.098244116707
  0
LINE
  5
107
100
AcDbEntity
  8
dimensions
  6
ByBlock
 62
    0
370
   -2
100
AcDbLine
 10
14804.71657136306
 20
-10365.95276104647
 11
14532.3676312127
 21
-10365.95276104647
  0
ENDBLK
  5
66
330
64
100
AcDbEntity
  8
0
100
AcDbBlockEnd
  0
BLOCK
  5
68
330
67
100
AcDbEntity
  8
0
100
AcDbBlockBegin
  2
*D17
 70
    1
 10
0
 20
0
  3
*D17
  1

  0
LINE
  5
108
100
AcDbEntity
  8
dimensions
  6
ByBlock
 62
    0
370
   -2
100
AcDbLine
 10
11054.71964306974
 20
-2241.542606837093
 11
11054.71964306974
 21
-2196.470084875655
  0
MTEXT
  5
109
100
AcDbEntity
  8
dimensions
  6
CONTINUOUS
 62
    0
370
   -2
100
AcDbMText
 10
11029.09464306974
 20
-2076.400640431207
 30
0
 40
50
 41
238.8888888888951
 71
    5
 72
    1
  1
45.0725
  7
standard
210
0
220
0
230
1
 50
90
 73
    2
 44
1
  0
SOLID
  5
10A
100
AcDbEntity
  8
dimensions
  6
ByBlock
 62
    0
370
   -2
100
AcDbTrace
 10
11054.71964306974
 20
-2241.542606837093
 30
0
 11
11054.30335841197
 21
-2239.042606837093
 31
0
 12
11055.13592772751
 22
-2239.042606837093
 32
0
 13
11055.13592772751
 23
-2239.042606837093
 33
0
  0
SOLID
  5
10B
100
AcDbEntity
  8
dimensions
  6
ByBlock
 62
    0
370
   -2
100
AcDbTrace
 10
11054.71964306974
 20
-2196.470084875655
 30
0
 11
11055.13592772751
 21
-2198.970084875655
 31
0
 12
11054.30335841197
 22
-2198.970084875655
 32
0
 13
11054.30335841197
 23
-2198.970084875655
 33
0
  0
LINE
  5
10C
100
AcDbEntity
  8
dimensions
  6
ByBlock
 62
    0
370
   -2
100
AcDbLine
 10
8087.831478679374
 20
-2241.542606837093
 11
11055.96964306974
 21
-2241.542606837093
  0
LINE
  5
10D
100
AcDbEntity
  8
dimensions
  6
ByBlock
 62
    0
370
   -2
100
AcDbLine
 10
11392.41981604353
 20
-2196.470084875655
 11
11053.46964306974
 21
-2196.470084875655
  0
ENDBLK
  5
69
330
67
100
AcDbEntity
  8
0
100
AcDbBlockEnd
  0
BLOCK
  5
6B
330
6A
100
AcDbEntity
  8
0
100
AcDbBlockBegin
  2
*D12
 70
    1
 10
0
 20
0
  3
*D12
  1

  0
LINE
  5
10E
100
AcDbEntity
  8
dimensions
  6
ByBlock
 62
    0
370
   -2
100
AcDbLine
 10
10227.28027129137
 20
-2241.542606837093
 11
10227.28027129137
 21
-2176.449030980032
  0
MTEXT
  5
10F
100
AcDbEntity
  8
dimensions
  6
CONTINUOUS
 62
    0
370
   -2
100
AcDbMText
 10
10201.65527129137
 20
-2059.157364313359
 30
0
 40
50
 41
233.3333333333458
 71
    5
 72
    1
  1
65.0936
  7
standard
210
0
220
0
230
1
 50
90
 73
    2
 44
1
  0
SOLID
  5
110
100
AcDbEntity
  8
dimensions
  6
ByBlock
 62
    0
370
   -2
100
AcDbTrace
 10
10227.28027129137
 20
-2241.542606837093
 30
0
 11
10226.8639866336
 21
-2239.042606837093
 31
0
 12
10227.69655594915
 22
-2239.042606837093
 32
0
 13
10227.69655594915
 23
-2239.042606837093
 33
0
  0
SOLID
  5
111
100
AcDbEntity
  8
dimensions
  6
ByBlock
 62
    0
370
   -2
100
AcDbTrace
 10
10227.28027129137
 20
-2176.449030980032
 30
0
 11
10227.69655594915
 21
-2178.949030980032
 31
0
 12
10226.8639866336
 22
-2178.949030980032
 32
0
 13
10226.8639866336
 23
-2178.949030980032
 33
0
  0
LINE
  5
112
100
AcDbEntity
  8
dimensions
  6
ByBlock
 62
    0
370
   -2
100
AcDbLine
 10
8087.831478679374
 20
-2241.542606837093
 11
10228.53027129137
 21
-2241.542606837093
  0
LINE
  5
113
100
AcDbEntity
  8
dimensions
  6
ByBlock
 62
    0
370
   -2
100
AcDbLine
 10
10703.41704548246
 20
-2176.449030980032
 11
10226.03027129137
 21
-2176.449030980032
  0
ENDBLK
  5
6C
330
6A
100
AcDbEntity
  8
0
100
AcDbBlockEnd
  0
BLOCK
  5
6E
330
6D
100
AcDbEntity
  8
0
100
AcDbBlockBegin
  2
*D24
 70
    1
 10
0
 20
0
  3
*D24
  1

  0
ARC
  5
114
100
AcDbEntity
  8
dimensions
  6
ByBlock
 62
    0
370
   -2
100
AcDbCircle
 10
16383.73898172896
 20
-10169.02550258159
 40
2172.797797896391
100
AcDbArc
 50
172.8836989283126
 51
180
  0
SOLID
  5
115
100
AcDbEntity
  8
dimensions
  6
ByBlock
 62
    0
370
   -2
100
AcDbTrace
 10
14227.67882716089
 20
-9899.851060207657
 30
0
 11
14227.78365238277
 21
-9902.383313075985
 31
0
 12
14226.95743737134
 22
-9902.280646527965
 32
0
 13
14226.95743737134
 23
-9902.280646527965
 33
0
  0
SOLID
  5
116
100
AcDbEntity
  8
dimensions
  6
ByBlock
 62
    0
370
   -2
100
AcDbTrace
 10
14210.94118383257
 20
-10169.02550258159
 30
0
 11
14210.52633748144
 21
-10166.52526350877
 31
0
 12
14211.35890665921
 22
-10166.52574248182
 32
0
 13
14211.35890665921
 23
-10166.52574248182
 33
0
  0
MTEXT
  5
117
100
AcDbEntity
  8
dimensions
  6
CONTINUOUS
 62
    0
370
   -2
100
AcDbMText
 10
14214.50583644437
 20
-10034.13955144323
 30
0
 40
50
 41
138.8888888888889
 71
    8
 72
    1
  1
7.12%%D
  7
standard
210
0
220
0
230
1
 50
446.4418494641563
 73
    2
 44
1
  0
ENDBLK
  5
6F
330
6D
100
AcDbEntity
  8
0
100
AcDbBlockEnd
  0
BLOCK
  5
71
330
70
100
AcDbEntity
  8
0
100
AcDbBlockBegin
  2
*D7
 70
    1
 10
0
 20
0
  3
*D7
  1

  0
LINE
  5
118
100
AcDbEntity
  8
dimensions
  6
ByBlock
 62
    0
370
   -2
100
AcDbLine
 10
8918.162316274715
 20
-9558.817856295527
 11
8918.162316274715
 21
-10779.23314886765
  0
MTEXT
  5
119
100
AcDbEntity
  8
dimensions
  6
CONTINUOUS
 62
    0
370
   -2
100
AcDbMText
 10
8892.537316274715
 20
-10169.02550258159
 30
0
 40
50
 41
294.4444444444507
 71
    5
 72
    1
  1
1220.4153
  7
standard
210
0
220
0
230
1
 50
90
 73
    2
 44
1
  0
SOLID
  5
11A
100
AcDbEntity
  8
dimensions
  6
ByBlock
 62
    0
370
   -2
100
AcDbTrace
 10
8918.162316274715
 20
-9558.817856295527
 30
0
 11
8918.578600932487
 21
-9561.317856295527
 31
0
 12
8917.746031616942
 22
-9561.317856295527
 32
0
 13
8917.746031616942
 23
-9561.317856295527
 33
0
  0
SOLID
  5
11B
100
AcDbEntity
  8
dimensions
  6
ByBlock
 62
    0
370
   -2
100
AcDbTrace
 10
8918.162316274715
 20
-10779.23314886765
 30
0
 11
8917.746031616942
 21
-10776.73314886765
 31
0
 12
8918.578600932487
 22
-10776.73314886765
 32
0
 13
8918.578600932487
 23
-10776.73314886765
 33
0
  0
LINE
  5
11C
100
AcDbEntity
  8
dimensions
  6
ByBlock
 62
    0
370
   -2
100
AcDbLine
 10
9062.249656490087
 20
-9558.817856295527
 11
8916.912316274715
 21
-9558.817856295527
  0
LINE
  5
11D
100
AcDbEntity
  8
dimensions
  6
ByBlock
 62
    0
370
   -2
100
AcDbLine
 10
9062.249656490085
 20
-10779.23314886765
 11
8916.912316274715
 21
-10779.23314886765
  0
ENDBLK
  5
72
330
70
100
AcDbEntity
  8
0
100
AcDbBlockEnd
  0
BLOCK
  5
74
330
73
100
AcDbEntity
  8
0
100
AcDbBlockBegin
  2
*D14
 70
    1
 10
0
 20
0
  3
*D14
  1

  0
LINE
  5
11E
100
AcDbEntity
  8
dimensions
  6
ByBlock
 62
    0
370
   -2
100
AcDbLine
 10
11337.24493535519
 20
-1540.187356463948
 11
11712.99095534955
 21
-1540.187356463948
  0
ARC
  5
11F
100
AcDbEntity
  8
dimensions
  6
ByBlock
 62
    0
370
   -2
100
AcDbCircle
 10
10704.04204548247
 20
-1540.187356463948
 40
1007.698909867084
100
AcDbArc
 50
357.0553729716179
 51
0
  0
SOLID
  5
120
100
AcDbEntity
  8
dimensions
  6
ByBlock
 62
    0
370
   -2
100
AcDbTrace
 10
11710.410438058
 20
-1591.953671498337
 30
0
 11
11710.12000674673
 21
-1589.435945824295
 31
0
 12
11710.95152919174
 22
-1589.477684159659
 32
0
 13
11710.95152919174
 23
-1589.477684159659
 33
0
  0
SOLID
  5
121
100
AcDbEntity
  8
dimensions
  6
ByBlock
 62
    0
370
   -2
100
AcDbTrace
 10
11711.74095534955
 20
-1540.187356463948
 30
0
 11
11712.15413856313
 21
-1542.687870920678
 31
0
 12
11711.32156988812
 22
-1542.686838160428
 32
0
 13
11711.32156988812
 23
-1542.686838160428
 33
0
  0
MTEXT
  5
122
100
AcDbEntity
  8
dimensions
  6
CONTINUOUS
 62
    0
370
   -2
100
AcDbMText
 10
11710.78347744912
 20
-1566.063003251994
 30
0
 40
50
 41
155.5555555555555
 71
    8
 72
    1
  1
2.94%%D
  7
standard
210
0
220
0
230
1
 50
88.52768648580897
 73
    2
 44
1
  0
ENDBLK
  5
75
330
73
100
AcDbEntity
  8
0
100
AcDbBlockEnd
  0
BLOCK
  5
77
330
76
100
AcDbEntity
  8
0
100
AcDbBlockBegin
  2
*D45
 70
    1
 10
0
 20
0
  3
*D45
  1

  0
LINE
  5
123
100
AcDbEntity
  8
dimensions
  6
ByBlock
 62
    0
370
   -2
100
AcDbLine
 10
15927.3673565024
 20
-1512.872254607532
 11
15927.3673565024
 21
-582.5066036722549
  0
MTEXT
  5
124
100
AcDbEntity
  8
dimensions
  6
CONTINUOUS
 62
    0
370
   -2
100
AcDbMText
 10
15901.7423565024
 20
-1047.689429139893
 30
0
 40
50
 41
272.2222222222377
 71
    5
 72
    1
  1
930.3657
  7
standard
210
0
220
0
230
1
 50
90
 73
    2
 44
1
  0
SOLID
  5
125
100
AcDbEntity
  8
dimensions
  6
ByBlock
 62
    0
370
   -2
100
AcDbTrace
 10
15927.3673565024
 20
-1512.872254607532
 30
0
 11
15926.95107184462
 21
-1510.372254607532
 31
0
 12
15927.78364116017
 22
-1510.372254607532
 32
0
 13
15927.78364116017
 23
-1510.372254607532
 33
0
  0
SOLID
  5
126
100
AcDbEntity
  8
dimensions
  6
ByBlock
 62
    0
370
   -2
100
AcDbTrace
 10
15927.3673565024
 20
-582.5066036722549
 30
0
 11
15927.78364116017
 21
-585.0066036722549
 31
0
 12
15926.95107184462
 22
-585.0066036722549
 32
0
 13
15926.95107184462
 23
-585.0066036722549
 33
0
  0
LINE
  5
127
100
AcDbEntity
  8
dimensions
  6
ByBlock
 62
    0
370
   -2
100
AcDbLine
 10
15273.8728595677
 20
-1512.872254607532
 11
15928.6173565024
 21
-1512.872254607532
  0
LINE
  5
128
100
AcDbEntity
  8
dimensions
  6
ByBlock
 62
    0
370
   -2
100
AcDbLine
 10
15517.4129956876
 20
-582.5066036722549
 11
15928.6173565024
 21
-582.5066036722549
  0
ENDBLK
  5
78
330
76
100
AcDbEntity
  8
0
100
AcDbBlockEnd
  0
BLOCK
  5
7A
330
79
100
AcDbEntity
  8
0
100
AcDbBlockBegin
  2
*D46
 70
    1
 10
0
 20
0
  3
*D46
  1

  0
ARC
  5
129
100
AcDbEntity
  8
dimensions
  6
ByBlock
 62
    0
370
   -2
100
AcDbCircle
 10
14078.00515149173
 20
-1512.872254607529
 40
363.4186030842376
100
AcDbArc
 50
53.48995413851765
 51
90
  0
SOLID
  5
12A
100
AcDbEntity
  8
dimensions
  6
ByBlock
 62
    0
370
   -2
100
AcDbTrace
 10
14294.22603569299
 20
-1220.773623486255
 30
0
 11
14291.96502820182
 21
-1219.628574124371
 31
0
 12
14292.45807213019
 22
-1218.957694589819
 32
0
 13
14292.45807213019
 23
-1218.957694589819
 33
0
  0
SOLID
  5
12B
100
AcDbEntity
  8
dimensions
  6
ByBlock
 62
    0
370
   -2
100
AcDbTrace
 10
14078.00515149173
 20
-1149.453651523291
 30
0
 11
14080.50656853666
 21
-1149.045968210381
 31
0
 12
14080.5037048704
 22
-1149.878532601047
 32
0
 13
14080.5037048704
 23
-1149.878532601047
 33
0
  0
MTEXT
  5
12C
100
AcDbEntity
  8
dimensions
  6
CONTINUOUS
 62
    0
370
   -2
100
AcDbMText
 10
14192.04074068847
 20
-1167.150358651972
 30
0
 40
50
 41
177.7777777777871
 71
    8
 72
    1
  1
36.51%%D
  7
standard
210
0
220
0
230
1
 50
341.744977069259
 73
    2
 44
1
  0
ENDBLK
  5
7B
330
79
100
AcDbEntity
  8
0
100
AcDbBlockEnd
  0
BLOCK
  5
7D
330
7C
100
AcDbEntity
  8
0
100
AcDbBlockBegin
  2
*D1
 70
    1
 10
0
 20
0
  3
*D1
  1

  0
LINE
  5
12D
100
AcDbEntity
  8
dimensions
  6
ByBlock
 62
    0
370
   -2
100
AcDbLine
 10
8087.206478679374
 20
-1820.38796517602
 11
9062.874656490087
 21
-1820.38796517602
  0
MTEXT
  5
12E
100
AcDbEntity
  8
dimensions
  6
CONTINUOUS
 62
    0
370
   -2
100
AcDbMText
 10
8575.040567584731
 20
-1794.76296517602
 30
0
 40
50
 41
272.2222222222346
 71
    5
 72
    1
  1
975.6682
  7
standard
210
0
220
0
230
1
 50
0
 73
    2
 44
1
  0
SOLID
  5
12F
100
AcDbEntity
  8
dimensions
  6
ByBlock
 62
    0
370
   -2
100
AcDbTrace
 10
8087.206478679374
 20
-1820.38796517602
 30
0
 11
8089.706478679374
 21
-1819.971680518247
 31
0
 12
8089.706478679374
 22
-1820.804249833793
 32
0
 13
8089.706478679374
 23
-1820.804249833793
 33
0
  0
SOLID
  5
130
100
AcDbEntity
  8
dimensions
  6
ByBlock
 62
    0
370
   -2
100
AcDbTrace
 10
9062.874656490087
 20
-1820.38796517602
 30
0
 11
9060.374656490087
 21
-1820.804249833793
 31
0
 12
9060.374656490087
 22
-1819.971680518247
 32
0
 13
9060.374656490087
 23
-1819.971680518247
 33
0
  0
LINE
  5
131
100
AcDbEntity
  8
dimensions
  6
ByBlock
 62
    0
370
   -2
100
AcDbLine
 10
8087.206478679374
 20
-2080.440969771433
 11
8087.206478679374
 21
-1819.13796517602
  0
LINE
  5
132
100
AcDbEntity
  8
dimensions
  6
ByBlock
 62
    0
370
   -2
100
AcDbLine
 10
9062.874656490087
 20
-1964.960585904641
 11
9062.874656490087
 21
-1819.13796517602
  0
ENDBLK
  5
7E
330
7C
100
AcDbEntity
  8
0
100
AcDbBlockEnd
  0
BLOCK
  5
80
330
7F
100
AcDbEntity
  8
0
100
AcDbBlockBegin
  2
*D36
 70
    1
 10
0
 20
0
  3
*D36
  1

  0
LINE
  5
133
100
AcDbEntity
  8
dimensions
  6
ByBlock
 62
    0
370
   -2
100
AcDbLine
 10
14713.16735717918
 20
-8191.74584329348
 11
15337.38014734072
 21
-8191.74584329348
  0
MTEXT
  5
134
100
AcDbEntity
  8
dimensions
  6
CONTINUOUS
 62
    0
370
   -2
100
AcDbMText
 10
15025.27375225995
 20
-8166.12084329348
 30
0
 40
50
 41
266.6666666666698
 71
    5
 72
    1
  1
624.2128
  7
standard
210
0
220
0
230
1
 50
0
 73
    2
 44
1
  0
SOLID
  5
135
100
AcDbEntity
  8
dimensions
  6
ByBlock
 62
    0
370
   -2
100
AcDbTrace
 10
14713.16735717918
 20
-8191.74584329348
 30
0
 11
14715.66735717918
 21
-8191.329558635707
 31
0
 12
14715.66735717918
 22
-8192.162127951253
 32
0
 13
14715.66735717918
 23
-8192.162127951253
 33
0
  0
SOLID
  5
136
100
AcDbEntity
  8
dimensions
  6
ByBlock
 62
    0
370
   -2
100
AcDbTrace
 10
15337.38014734072
 20
-8191.74584329348
 30
0
 11
15334.88014734072
 21
-8192.162127951253
 31
0
 12
15334.88014734072
 22
-8191.329558635707
 32
0
 13
15334.88014734072
 23
-8191.329558635707
 33
0
  0
LINE
  5
137
100
AcDbEntity
  8
dimensions
  6
ByBlock
 62
    0
370
   -2
100
AcDbLine
 10
14713.16735717918
 20
-8485.460612788855
 11
14713.16735717918
 21
-8190.49584329348
  0
LINE
  5
138
100
AcDbEntity
  8
dimensions
  6
ByBlock
 62
    0
370
   -2
100
AcDbLine
 10
15337.38014734072
 20
-8485.460612788855
 11
15337.38014734072
 21
-8190.49584329348
  0
ENDBLK
  5
81
330
7F
100
AcDbEntity
  8
0
100
AcDbBlockEnd
  0
BLOCK
  5
83
330
82
100
AcDbEntity
  8
0
100
AcDbBlockBegin
  2
*D16
 70
    1
 10
0
 20
0
  3
*D16
  1

  0
LINE
  5
139
100
AcDbEntity
  8
dimensions
  6
ByBlock
 62
    0
370
   -2
100
AcDbLine
 10
11255.83027959988
 20
-1575.628786007606
 11
11255.83027959988
 21
-2817.311383743703
  0
MTEXT
  5
13A
100
AcDbEntity
  8
dimensions
  6
CONTINUOUS
 62
    0
370
   -2
100
AcDbMText
 10
11230.20527959988
 20
-2196.470084875655
 30
0
 40
50
 41
294.4444444444507
 71
    5
 72
    1
  1
1241.6826
  7
standard
210
0
220
0
230
1
 50
90
 73
    2
 44
1
  0
SOLID
  5
13B
100
AcDbEntity
  8
dimensions
  6
ByBlock
 62
    0
370
   -2
100
AcDbTrace
 10
11255.83027959988
 20
-1575.628786007606
 30
0
 11
11256.24656425765
 21
-1578.128786007606
 31
0
 12
11255.41399494211
 22
-1578.128786007606
 32
0
 13
11255.41399494211
 23
-1578.128786007606
 33
0
  0
SOLID
  5
13C
100
AcDbEntity
  8
dimensions
  6
ByBlock
 62
    0
370
   -2
100
AcDbTrace
 10
11255.83027959988
 20
-2817.311383743703
 30
0
 11
11255.41399494211
 21
-2814.811383743703
 31
0
 12
11256.24656425765
 22
-2814.811383743703
 32
0
 13
11256.24656425765
 23
-2814.811383743703
 33
0
  0
LINE
  5
13D
100
AcDbEntity
  8
dimensions
  6
ByBlock
 62
    0
370
   -2
100
AcDbLine
 10
11392.41981604353
 20
-1575.628786007606
 11
11254.58027959988
 21
-1575.628786007606
  0
LINE
  5
13E
100
AcDbEntity
  8
dimensions
  6
ByBlock
 62
    0
370
   -2
100
AcDbLine
 10
11392.41981604353
 20
-2817.311383743703
 11
11254.58027959988
 21
-2817.311383743703
  0
ENDBLK
  5
84
330
82
100
AcDbEntity
  8
0
100
AcDbBlockEnd
  0
BLOCK
  5
86
330
85
100
AcDbEntity
  8
0
100
AcDbBlockBegin
  2
*D20
 70
    1
 10
0
 20
0
  3
*D20
  1

  0
LINE
  5
13F
100
AcDbEntity
  8
dimensions
  6
ByBlock
 62
    0
370
   -2
100
AcDbLine
 10
14426.94104848209
 20
-1751.153007684142
 11
14426.94104848209
 21
-2199.754490545109
  0
MTEXT
  5
140
100
AcDbEntity
  8
dimensions
  6
CONTINUOUS
 62
    0
370
   -2
100
AcDbMText
 10
14401.31604848209
 20
-1975.453749114625
 30
0
 40
50
 41
272.2222222222284
 71
    5
 72
    1
  1
448.6015
  7
standard
210
0
220
0
230
1
 50
90
 73
    2
 44
1
  0
SOLID
  5
141
100
AcDbEntity
  8
dimensions
  6
ByBlock
 62
    0
370
   -2
100
AcDbTrace
 10
14426.94104848209
 20
-1751.153007684142
 30
0
 11
14427.35733313986
 21
-1753.653007684142
 31
0
 12
14426.52476382431
 22
-1753.653007684142
 32
0
 13
14426.52476382431
 23
-1753.653007684142
 33
0
  0
SOLID
  5
142
100
AcDbEntity
  8
dimensions
  6
ByBlock
 62
    0
370
   -2
100
AcDbTrace
 10
14426.94104848209
 20
-2199.754490545109
 30
0
 11
14426.52476382431
 21
-2197.254490545109
 31
0
 12
14427.35733313986
 22
-2197.254490545109
 32
0
 13
14427.35733313986
 23
-2197.254490545109
 33
0
  0
LINE
  5
143
100
AcDbEntity
  8
dimensions
  6
ByBlock
 62
    0
370
   -2
100
AcDbLine
 10
14804.71657136298
 20
-1751.153007684142
 11
14425.69104848209
 21
-1751.153007684142
  0
LINE
  5
144
100
AcDbEntity
  8
dimensions
  6
ByBlock
 62
    0
370
   -2
100
AcDbLine
 10
14804.71657136298
 20
-2199.754490545109
 11
14425.69104848209
 21
-2199.754490545109
  0
ENDBLK
  5
87
330
85
100
AcDbEntity
  8
0
100
AcDbBlockEnd
  0
BLOCK
  5
89
330
88
100
AcDbEntity
  8
0
100
AcDbBlockBegin
  2
*D35
 70
    1
 10
0
 20
0
  3
*D35
  1

  0
LINE
  5
145
100
AcDbEntity
  8
dimensions
  6
ByBlock
 62
    0
370
   -2
100
AcDbLine
 10
14633.50530535837
 20
-9802.611577564323
 11
15439.85108480059
 21
-9802.611577564323
  0
MTEXT
  5
146
100
AcDbEntity
  8
dimensions
  6
CONTINUOUS
 62
    0
370
   -2
100
AcDbMText
 10
15036.67819507948
 20
-9776.986577564323
 30
0
 40
50
 41
277.7777777777871
 71
    5
 72
    1
  1
806.3458
  7
standard
210
0
220
0
230
1
 50
0
 73
    2
 44
1
  0
SOLID
  5
147
100
AcDbEntity
  8
dimensions
  6
ByBlock
 62
    0
370
   -2
100
AcDbTrace
 10
14633.50530535837
 20
-9802.611577564323
 30
0
 11
14636.00530535837
 21
-9802.19529290655
 31
0
 12
14636.00530535837
 22
-9803.027862222096
 32
0
 13
14636.00530535837
 23
-9803.027862222096
 33
0
  0
SOLID
  5
148
100
AcDbEntity
  8
dimensions
  6
ByBlock
 62
    0
370
   -2
100
AcDbTrace
 10
15439.85108480059
 20
-9802.611577564323
 30
0
 11
15437.35108480059
 21
-9803.027862222096
 31
0
 12
15437.35108480059
 22
-9802.19529290655
 32
0
 13
15437.35108480059
 23
-9802.19529290655
 33
0
  0
LINE
  5
149
100
AcDbEntity
  8
dimensions
  6
ByBlock
 62
    0
370
   -2
100
AcDbLine
 10
14633.50530535837
 20
-10168.4005025816
 11
14633.50530535837
 21
-9801.361577564323
  0
LINE
  5
14A
100
AcDbEntity
  8
dimensions
  6
ByBlock
 62
    0
370
   -2
100
AcDbLine
 10
15439.85108480059
 20
-10168.40050258159
 11
15439.85108480059
 21
-9801.361577564323
  0
ENDBLK
  5
8A
330
88
100
AcDbEntity
  8
0
100
AcDbBlockEnd
  0
BLOCK
  5
8C
330
8B
100
AcDbEntity
  8
0
100
AcDbBlockBegin
  2
*D28
 70
    1
 10
0
 20
0
  3
*D28
  1

  0
LINE
  5
14B
100
AcDbEntity
  8
dimensions
  6
ByBlock
 62
    0
370
   -2
100
AcDbLine
 10
3719.333945540672
 20
1269.835990354075
 11
3719.333945540672
 21
-306.6352789205313
  0
MTEXT
  5
14C
100
AcDbEntity
  8
dimensions
  6
CONTINUOUS
 62
    0
370
   -2
100
AcDbMText
 10
3693.708945540672
 20
481.6003557167718
 30
0
 40
50
 41
294.4444444444537
 71
    5
 72
    1
  1
1576.4713
  7
standard
210
0
220
0
230
1
 50
90
 73
    2
 44
1
  0
SOLID
  5
14D
100
AcDbEntity
  8
dimensions
  6
ByBlock
 62
    0
370
   -2
100
AcDbTrace
 10
3719.333945540672
 20
1269.835990354075
 30
0
 11
3719.750230198445
 21
1267.335990354075
 31
0
 12
3718.917660882899
 22
1267.335990354075
 32
0
 13
3718.917660882899
 23
1267.335990354075
 33
0
  0
SOLID
  5
14E
100
AcDbEntity
  8
dimensions
  6
ByBlock
 62
    0
370
   -2
100
AcDbTrace
 10
3719.333945540672
 20
-306.6352789205313
 30
0
 11
3718.917660882899
 21
-304.1352789205313
 31
0
 12
3719.750230198445
 22
-304.1352789205313
 32
0
 13
3719.750230198445
 23
-304.1352789205313
 33
0
  0
LINE
  5
14F
100
AcDbEntity
  8
dimensions
  6
ByBlock
 62
    0
370
   -2
100
AcDbLine
 10
3886.681436304937
 20
1269.835990354075
 11
3718.083945540672
 21
1269.835990354075
  0
LINE
  5
150
100
AcDbEntity
  8
dimensions
  6
ByBlock
 62
    0
370
   -2
100
AcDbLine
 10
3886.681436304936
 20
-306.6352789205313
 11
3718.083945540672
 21
-306.6352789205313
  0
ENDBLK
  5
8D
330
8B
100
AcDbEntity
  8
0
100
AcDbBlockEnd
  0
BLOCK
  5
8F
330
8E
100
AcDbEntity
  8
0
100
AcDbBlockBegin
  2
*D23
 70
    1
 10
0
 20
0
  3
*D23
  1

  0
ARC
  5
151
100
AcDbEntity
  8
dimensions
  6
ByBlock
 62
    0
370
   -2
100
AcDbCircle
 10
15205.48558830731
 20
-1771.735908929093
 40
402.9813617926017
100
AcDbArc
 50
0
 51
78.68393259151841
  0
SOLID
  5
152
100
AcDbEntity
  8
dimensions
  6
ByBlock
 62
    0
370
   -2
100
AcDbTrace
 10
15608.46695009992
 20
-1771.735908929093
 30
0
 11
15608.04291275618
 21
-1769.237212219324
 31
0
 12
15608.87547806637
 22
-1769.234629692998
 32
0
 13
15608.87547806637
 23
-1769.234629692998
 33
0
  0
SOLID
  5
153
100
AcDbEntity
  8
dimensions
  6
ByBlock
 62
    0
370
   -2
100
AcDbTrace
 10
15284.55904628535
 20
-1376.588637401608
 30
0
 11
15287.09186164911
 21
-1376.678855190134
 31
0
 12
15286.9259624224
 22
-1377.494728410533
 32
0
 13
15286.9259624224
 23
-1377.494728410533
 33
0
  0
MTEXT
  5
154
100
AcDbEntity
  8
dimensions
  6
CONTINUOUS
 62
    0
370
   -2
100
AcDbMText
 10
15517.62509520163
 20
-1515.870664092606
 30
0
 40
50
 41
188.888888888892
 71
    8
 72
    1
  1
78.68%%D
  7
standard
210
0
220
0
230
1
 50
309.3419662957593
 73
    2
 44
1
  0
ENDBLK
  5
90
330
8E
100
AcDbEntity
  8
0
100
AcDbBlockEnd
  0
BLOCK
  5
92
330
91
100
AcDbEntity
  8
0
100
AcDbBlockBegin
  2
*D2
 70
    1
 10
0
 20
0
  3
*D2
  1

  0
LINE
  5
155
100
AcDbEntity
  8
dimensions
  6
ByBlock
 62
    0
370
   -2
100
AcDbLine
 10
8087.206478679374
 20
-1627.316514324018
 11
9235.019191438849
 21
-1627.316514324018
  0
MTEXT
  5
156
100
AcDbEntity
  8
dimensions
  6
CONTINUOUS
 62
    0
370
   -2
100
AcDbMText
 10
8661.112835059112
 20
-1601.691514324018
 30
0
 40
50
 41
283.3333333333333
 71
    5
 72
    1
  1
1147.8127
  7
standard
210
0
220
0
230
1
 50
0
 73
    2
 44
1
  0
SOLID
  5
157
100
AcDbEntity
  8
dimensions
  6
ByBlock
 62
    0
370
   -2
100
AcDbTrace
 10
8087.206478679374
 20
-1627.316514324018
 30
0
 11
8089.706478679374
 21
-1626.900229666245
 31
0
 12
8089.706478679374
 22
-1627.732798981791
 32
0
 13
8089.706478679374
 23
-1627.732798981791
 33
0
  0
SOLID
  5
158
100
AcDbEntity
  8
dimensions
  6
ByBlock
 62
    0
370
   -2
100
AcDbTrace
 10
9235.019191438849
 20
-1627.316514324018
 30
0
 11
9232.519191438849
 21
-1627.732798981791
 31
0
 12
9232.519191438849
 22
-1626.900229666245
 32
0
 13
9232.519191438849
 23
-1626.900229666245
 33
0
  0
LINE
  5
159
100
AcDbEntity
  8
dimensions
  6
ByBlock
 62
    0
370
   -2
100
AcDbLine
 10
8087.206478679374
 20
-2080.440969771433
 11
8087.206478679374
 21
-1626.066514324018
  0
LINE
  5
15A
100
AcDbEntity
  8
dimensions
  6
ByBlock
 62
    0
370
   -2
100
AcDbLine
 10
9235.019191438849
 20
-1945.933018730515
 11
9235.019191438849
 21
-1626.066514324018
  0
ENDBLK
  5
93
330
91
100
AcDbEntity
  8
0
100
AcDbBlockEnd
  0
BLOCK
  5
95
330
94
100
AcDbEntity
  8
0
100
AcDbBlockBegin
  2
*D27
 70
    1
 10
0
 20
0
  3
*D27
  1

  0
LINE
  5
15B
100
AcDbEntity
  8
dimensions
  6
ByBlock
 62
    0
370
   -2
100
AcDbLine
 10
4931.596487477557
 20
2142.939540409636
 11
4931.596487477557
 21
-376.3431176980676
  0
MTEXT
  5
15C
100
AcDbEntity
  8
dimensions
  6
CONTINUOUS
 62
    0
370
   -2
100
AcDbMText
 10
4905.971487477557
 20
883.2982113557841
 30
0
 40
50
 41
300.0000000000031
 71
    5
 72
    1
  1
2519.2827
  7
standard
210
0
220
0
230
1
 50
90
 73
    2
 44
1
  0
SOLID
  5
15D
100
AcDbEntity
  8
dimensions
  6
ByBlock
 62
    0
370
   -2
100
AcDbTrace
 10
4931.596487477557
 20
2142.939540409636
 30
0
 11
4932.01277213533
 21
2140.439540409636
 31
0
 12
4931.180202819784
 22
2140.439540409636
 32
0
 13
4931.180202819784
 23
2140.439540409636
 33
0
  0
SOLID
  5
15E
100
AcDbEntity
  8
dimensions
  6
ByBlock
 62
    0
370
   -2
100
AcDbTrace
 10
4931.596487477557
 20
-376.3431176980676
 30
0
 11
4931.180202819784
 21
-373.8431176980676
 31
0
 12
4932.01277213533
 22
-373.8431176980676
 32
0
 13
4932.01277213533
 23
-373.8431176980676
 33
0
  0
LINE
  5
15F
100
AcDbEntity
  8
dimensions
  6
ByBlock
 62
    0
370
   -2
100
AcDbLine
 10
5115.493840086835
 20
2142.939540409636
 11
4930.346487477557
 21
2142.939540409636
  0
LINE
  5
160
100
AcDbEntity
  8
dimensions
  6
ByBlock
 62
    0
370
   -2
100
AcDbLine
 10
5115.493840086835
 20
-376.3431176980676
 11
4930.346487477557
 21
-376.3431176980676
  0
ENDBLK
  5
96
330
94
100
AcDbEntity
  8
0
100
AcDbBlockEnd
  0
BLOCK
  5
98
330
97
100
AcDbEntity
  8
0
100
AcDbBlockBegin
  2
*D10
 70
    1
 10
0
 20
0
  3
*D10
  1

  0
ARC
  5
161
100
AcDbEntity
  8
dimensions
  6
ByBlock
 62
    0
370
   -2
100
AcDbCircle
 10
9235.019191439236
 20
-1946.558018730473
 40
154.4372974759844
100
AcDbArc
 50
180
 51
232.0588714655418
  0
SOLID
  5
162
100
AcDbEntity
  8
dimensions
  6
ByBlock
 62
    0
370
   -2
100
AcDbTrace
 10
9080.581893963252
 20
-1946.558018730473
 30
0
 11
9081.018399513829
 21
-1949.054567512414
 31
0
 12
9080.185857469447
 22
-1949.061306171394
 32
0
 13
9080.185857469447
 23
-1949.061306171394
 33
0
  0
SOLID
  5
163
100
AcDbEntity
  8
dimensions
  6
ByBlock
 62
    0
370
   -2
100
AcDbTrace
 10
9140.063192262896
 20
-2068.353901551317
 30
0
 11
9137.845488700361
 21
-2067.127082972628
 31
0
 12
9138.362692794874
 22
-2066.474647849564
 32
0
 13
9138.362692794874
 23
-2066.474647849564
 33
0
  0
MTEXT
  5
164
100
AcDbEntity
  8
dimensions
  6
CONTINUOUS
 62
    0
370
   -2
100
AcDbMText
 10
9096.808273049714
 20
-2014.055906791992
 30
0
 40
50
 41
188.8888888888951
 71
    8
 72
    1
  1
52.06%%D
  7
standard
210
0
220
0
230
1
 50
-63.97056426722904
 73
    2
 44
1
  0
ENDBLK
  5
99
330
97
100
AcDbEntity
  8
0
100
AcDbBlockEnd
  0
BLOCK
  5
9B
330
9A
100
AcDbEntity
  8
0
100
AcDbBlockBegin
  2
*D15
 70
    1
 10
0
 20
0
  3
*D15
  1

  0
LINE
  5
165
100
AcDbEntity
  8
dimensions
  6
ByBlock
 62
    0
370
   -2
100
AcDbLine
 10
11280.08853451278
 20
-9582.079541581028
 11
11280.08853451278
 21
-10755.97146358215
  0
MTEXT
  5
166
100
AcDbEntity
  8
dimensions
  6
CONTINUOUS
 62
    0
370
   -2
100
AcDbMText
 10
11254.46353451278
 20
-10169.02550258159
 30
0
 40
50
 41
277.7777777777809
 71
    5
 72
    1
  1
1173.8919
  7
standard
210
0
220
0
230
1
 50
90
 73
    2
 44
1
  0
SOLID
  5
167
100
AcDbEntity
  8
dimensions
  6
ByBlock
 62
    0
370
   -2
100
AcDbTrace
 10
11280.08853451278
 20
-9582.079541581028
 30
0
 11
11280.50481917055
 21
-9584.579541581028
 31
0
 12
11279.67224985501
 22
-9584.579541581028
 32
0
 13
11279.67224985501
 23
-9584.579541581028
 33
0
  0
SOLID
  5
168
100
AcDbEntity
  8
dimensions
  6
ByBlock
 62
    0
370
   -2
100
AcDbTrace
 10
11280.08853451278
 20
-10755.97146358215
 30
0
 11
11279.67224985501
 21
-10753.47146358215
 31
0
 12
11280.50481917055
 22
-10753.47146358215
 32
0
 13
11280.50481917055
 23
-10753.47146358215
 33
0
  0
LINE
  5
169
100
AcDbEntity
  8
dimensions
  6
ByBlock
 62
    0
370
   -2
100
AcDbLine
 10
11392.41981604353
 20
-9582.079541581028
 11
11278.83853451278
 21
-9582.079541581028
  0
LINE
  5
16A
100
AcDbEntity
  8
dimensions
  6
ByBlock
 62
    0
370
   -2
100
AcDbLine
 10
11392.41981604353
 20
-10755.97146358215
 11
11278.83853451278
 21
-10755.97146358215
  0
ENDBLK
  5
9C
330
9A
100
AcDbEntity
  8
0
100
AcDbBlockEnd
  0
BLOCK
  5
9E
330
9D
100
AcDbEntity
  8
0
100
AcDbBlockBegin
  2
*D9
 70
    1
 10
0
 20
0
  3
*D9
  1

  0
LINE
  5
16B
100
AcDbEntity
  8
dimensions
  6
ByBlock
 62
    0
370
   -2
100
AcDbLine
 10
8347.20851751
 20
-1946.558018730473
 11
8295.830299902231
 21
-1946.558018730473
  0
ARC
  5
16C
100
AcDbEntity
  8
dimensions
  6
ByBlock
 62
    0
370
   -2
100
AcDbCircle
 10
9235.019191439238
 20
-1946.558018730473
 40
937.938891537008
100
AcDbArc
 50
180
 51
186.6837975716508
  0
SOLID
  5
16D
100
AcDbEntity
  8
dimensions
  6
ByBlock
 62
    0
370
   -2
100
AcDbTrace
 10
8297.080299902231
 20
-1946.558018730473
 30
0
 11
8297.499915962893
 21
-1949.057461724008
 31
0
 12
8296.667347386716
 22
-1949.058571296653
 32
0
 13
8296.667347386716
 23
-1949.058571296653
 33
0
  0
SOLID
  5
16E
100
AcDbEntity
  8
dimensions
  6
ByBlock
 62
    0
370
   -2
100
AcDbTrace
 10
8303.454905303075
 20
-2055.724611849852
 30
0
 11
8302.753720368935
 21
-2053.289117525401
 31
0
 12
8303.580759621269
 22
-2053.193317001975
 32
0
 13
8303.580759621269
 23
-2053.193317001975
 33
0
  0
MTEXT
  5
16F
100
AcDbEntity
  8
dimensions
  6
CONTINUOUS
 62
    0
370
   -2
100
AcDbMText
 10
8299.299244602913
 20
-2001.19786097835
 30
0
 40
50
 41
150.0000000000062
 71
    8
 72
    1
  1
6.68%%D
  7
standard
210
0
220
0
230
1
 50
-86.65810121417464
 73
    2
 44
1
  0
ENDBLK
  5
9F
330
9D
100
AcDbEntity
  8
0
100
AcDbBlockEnd
  0
BLOCK
  5
A1
330
A0
100
AcDbEntity
  8
0
100
AcDbBlockBegin
  2
*D43
 70
    1
 10
0
 20
0
  3
*D43
  1

  0
LINE
  5
170
100
AcDbEntity
  8
dimensions
  6
ByBlock
 62
    0
370
   -2
100
AcDbLine
 10
16569.00682971363
 20
-1771.735908929093
 11
16569.00682971363
 21
-1512.872254607532
  0
MTEXT
  5
171
100
AcDbEntity
  8
dimensions
  6
CONTINUOUS
 62
    0
370
   -2
100
AcDbMText
 10
16543.38182971363
 20
-1376.136143496417
 30
0
 40
50
 41
272.2222222222316
 71
    5
 72
    1
  1
258.8637
  7
standard
210
0
220
0
230
1
 50
90
 73
    2
 44
1
  0
SOLID
  5
172
100
AcDbEntity
  8
dimensions
  6
ByBlock
 62
    0
370
   -2
100
AcDbTrace
 10
16569.00682971363
 20
-1771.735908929093
 30
0
 11
16568.59054505586
 21
-1769.235908929093
 31
0
 12
16569.4231143714
 22
-1769.235908929093
 32
0
 13
16569.4231143714
 23
-1769.235908929093
 33
0
  0
SOLID
  5
173
100
AcDbEntity
  8
dimensions
  6
ByBlock
 62
    0
370
   -2
100
AcDbTrace
 10
16569.00682971363
 20
-1512.872254607532
 30
0
 11
16569.4231143714
 21
-1515.372254607532
 31
0
 12
16568.59054505586
 22
-1515.372254607532
 32
0
 13
16568.59054505586
 23
-1515.372254607532
 33
0
  0
LINE
  5
174
100
AcDbEntity
  8
dimensions
  6
ByBlock
 62
    0
370
   -2
100
AcDbLine
 10
15206.11058830737
 20
-1771.735908929093
 11
16570.25682971363
 21
-1771.735908929093
  0
LINE
  5
175
100
AcDbEntity
  8
dimensions
  6
ByBlock
 62
    0
370
   -2
100
AcDbLine
 10
16280.52057998272
 20
-1512.872254607532
 11
16570.25682971363
 21
-1512.872254607532
  0
ENDBLK
  5
A2
330
A0
100
AcDbEntity
  8
0
100
AcDbBlockEnd
  0
BLOCK
  5
A4
330
A3
100
AcDbEntity
  8
0
100
AcDbBlockBegin
  2
*D38
 70
    1
 10
0
 20
0
  3
*D38
  1

  0
LINE
  5
176
100
AcDbEntity
  8
dimensions
  6
ByBlock
 62
    0
370
   -2
100
AcDbLine
 10
12446.28638289179
 20
-2241.542606837093
 11
12446.28638289179
 21
-1771.735908928943
  0
MTEXT
  5
177
100
AcDbEntity
  8
dimensions
  6
CONTINUOUS
 62
    0
370
   -2
100
AcDbMText
 10
12420.66138289179
 20
-2006.639257883018
 30
0
 40
50
 41
277.777777777784
 71
    5
 72
    1
  1
469.8067
  7
standard
210
0
220
0
230
1
 50
90
 73
    2
 44
1
  0
SOLID
  5
178
100
AcDbEntity
  8
dimensions
  6
ByBlock
 62
    0
370
   -2
100
AcDbTrace
 10
12446.28638289179
 20
-2241.542606837093
 30
0
 11
12445.87009823402
 21
-2239.042606837093
 31
0
 12
12446.70266754957
 22
-2239.042606837093
 32
0
 13
12446.70266754957
 23
-2239.042606837093
 33
0
  0
SOLID
  5
179
100
AcDbEntity
  8
dimensions
  6
ByBlock
 62
    0
370
   -2
100
AcDbTrace
 10
12446.28638289179
 20
-1771.735908928943
 30
0
 11
12446.70266754957
 21
-1774.235908928943
 31
0
 12
12445.87009823402
 22
-1774.235908928943
 32
0
 13
12445.87009823402
 23
-1774.235908928943
 33
0
  0
LINE
  5
17A
100
AcDbEntity
  8
dimensions
  6
ByBlock
 62
    0
370
   -2
100
AcDbLine
 10
7738.34902462537
 20
-2241.542606837093
 11
12447.53638289179
 21
-2241.542606837093
  0
LINE
  5
17B
100
AcDbEntity
  8
dimensions
  6
ByBlock
 62
    0
370
   -2
100
AcDbLine
 10
12795.4873352921
 20
-1771.735908928943
 11
12445.03638289179
 21
-1771.735908928943
  0
ENDBLK
  5
A5
330
A3
100
AcDbEntity
  8
0
100
AcDbBlockEnd
  0
BLOCK
  5
A7
330
A6
100
AcDbEntity
  8
0
100
AcDbBlockBegin
  2
*D3
 70
    1
 10
0
 20
0
  3
*D3
  1

  0
LINE
  5
17C
100
AcDbEntity
  8
dimensions
  6
ByBlock
 62
    0
370
   -2
100
AcDbLine
 10
8087.206478679374
 20
-1351.500155964015
 11
10704.04204548246
 21
-1351.500155964015
  0
MTEXT
  5
17D
100
AcDbEntity
  8
dimensions
  6
CONTINUOUS
 62
    0
370
   -2
100
AcDbMText
 10
9395.624262080919
 20
-1325.875155964015
 30
0
 40
50
 41
300.0000000000156
 71
    5
 72
    1
  1
2616.8356
  7
standard
210
0
220
0
230
1
 50
0
 73
    2
 44
1
  0
SOLID
  5
17E
100
AcDbEntity
  8
dimensions
  6
ByBlock
 62
    0
370
   -2
100
AcDbTrace
 10
8087.206478679374
 20
-1351.500155964015
 30
0
 11
8089.706478679374
 21
-1351.083871306242
 31
0
 12
8089.706478679374
 22
-1351.916440621788
 32
0
 13
8089.706478679374
 23
-1351.916440621788
 33
0
  0
SOLID
  5
17F
100
AcDbEntity
  8
dimensions
  6
ByBlock
 62
    0
370
   -2
100
AcDbTrace
 10
10704.04204548246
 20
-1351.500155964015
 30
0
 11
10701.54204548246
 21
-1351.916440621788
 31
0
 12
10701.54204548246
 22
-1351.083871306242
 32
0
 13
10701.54204548246
 23
-1351.083871306242
 33
0
  0
LINE
  5
180
100
AcDbEntity
  8
dimensions
  6
ByBlock
 62
    0
370
   -2
100
AcDbLine
 10
8087.206478679374
 20
-2080.440969771388
 11
8087.206478679374
 21
-1350.250155964015
  0
LINE
  5
181
100
AcDbEntity
  8
dimensions
  6
ByBlock
 62
    0
370
   -2
100
AcDbLine
 10
10704.04204548246
 20
-1539.562356463948
 11
10704.04204548246
 21
-1350.250155964015
  0
ENDBLK
  5
A8
330
A6
100
AcDbEntity
  8
0
100
AcDbBlockEnd
  0
BLOCK
  5
AA
330
A9
100
AcDbEntity
  8
0
100
AcDbBlockBegin
  2
*D39
 70
    1
 10
0
 20
0
  3
*D39
  1

  0
LINE
  5
182
100
AcDbEntity
  8
dimensions
  6
ByBlock
 62
    0
370
   -2
100
AcDbLine
 10
7737.72402462537
 20
-3275.765276018427
 11
12796.11233529209
 21
-3275.765276018427
  0
MTEXT
  5
183
100
AcDbEntity
  8
dimensions
  6
CONTINUOUS
 62
    0
370
   -2
100
AcDbMText
 10
10266.91817995873
 20
-3250.140276018427
 30
0
 40
50
 41
311.1111111111235
 71
    5
 72
    1
  1
5058.3883
  7
standard
210
0
220
0
230
1
 50
0
 73
    2
 44
1
  0
SOLID
  5
184
100
AcDbEntity
  8
dimensions
  6
ByBlock
 62
    0
370
   -2
100
AcDbTrace
 10
7737.72402462537
 20
-3275.765276018427
 30
0
 11
7740.22402462537
 21
-3275.348991360655
 31
0
 12
7740.22402462537
 22
-3276.1815606762
 32
0
 13
7740.22402462537
 23
-3276.1815606762
 33
0
  0
SOLID
  5
185
100
AcDbEntity
  8
dimensions
  6
ByBlock
 62
    0
370
   -2
100
AcDbTrace
 10
12796.11233529209
 20
-3275.765276018427
 30
0
 11
12793.61233529209
 21
-3276.1815606762
 31
0
 12
12793.61233529209
 22
-3275.348991360655
 32
0
 13
12793.61233529209
 23
-3275.348991360655
 33
0
  0
LINE
  5
186
100
AcDbEntity
  8
dimensions
  6
ByBlock
 62
    0
370
   -2
100
AcDbLine
 10
7737.72402462537
 20
-2242.167606837093
 11
7737.72402462537
 21
-3277.015276018427
  0
LINE
  5
187
100
AcDbEntity
  8
dimensions
  6
ByBlock
 62
    0
370
   -2
100
AcDbLine
 10
12796.11233529209
 20
-1772.360908928943
 11
12796.11233529209
 21
-3277.015276018427
  0
ENDBLK
  5
AB
330
A9
100
AcDbEntity
  8
0
100
AcDbBlockEnd
  0
BLOCK
  5
AD
330
AC
100
AcDbEntity
  8
0
100
AcDbBlockBegin
  2
*D4
 70
    1
 10
0
 20
0
  3
*D4
  1

  0
LINE
  5
188
100
AcDbEntity
  8
dimensions
  6
ByBlock
 62
    0
370
   -2
100
AcDbLine
 10
8087.206478701681
 20
-1169.461359446413
 11
11393.04481604353
 21
-1169.461359446413
  0
MTEXT
  5
189
100
AcDbEntity
  8
dimensions
  6
CONTINUOUS
 62
    0
370
   -2
100
AcDbMText
 10
9740.125647372606
 20
-1143.836359446413
 30
0
 40
50
 41
311.1111111111265
 71
    5
 72
    1
  1
3305.8383
  7
standard
210
0
220
0
230
1
 50
0
 73
    2
 44
1
  0
SOLID
  5
18A
100
AcDbEntity
  8
dimensions
  6
ByBlock
 62
    0
370
   -2
100
AcDbTrace
 10
8087.206478701681
 20
-1169.461359446413
 30
0
 11
8089.706478701681
 21
-1169.04507478864
 31
0
 12
8089.706478701681
 22
-1169.877644104185
 32
0
 13
8089.706478701681
 23
-1169.877644104185
 33
0
  0
SOLID
  5
18B
100
AcDbEntity
  8
dimensions
  6
ByBlock
 62
    0
370
   -2
100
AcDbTrace
 10
11393.04481604353
 20
-1169.461359446413
 30
0
 11
11390.54481604353
 21
-1169.877644104185
 31
0
 12
11390.54481604353
 22
-1169.04507478864
 32
0
 13
11390.54481604353
 23
-1169.04507478864
 33
0
  0
LINE
  5
18C
100
AcDbEntity
  8
dimensions
  6
ByBlock
 62
    0
370
   -2
100
AcDbLine
 10
8087.206478701681
 20
-2080.440969768645
 11
8087.206478701681
 21
-1168.211359446413
  0
LINE
  5
18D
100
AcDbEntity
  8
dimensions
  6
ByBlock
 62
    0
370
   -2
100
AcDbLine
 10
11393.04481604353
 20
-1575.003786007606
 11
11393.04481604353
 21
-1168.211359446413
  0
ENDBLK
  5
AE
330
AC
100
AcDbEntity
  8
0
100
AcDbBlockEnd
  0
BLOCK
  5
B0
330
AF
100
AcDbEntity
  8
0
100
AcDbBlockBegin
  2
*D11
 70
    1
 10
0
 20
0
  3
*D11
  1

  0
LINE
  5
18E
100
AcDbEntity
  8
dimensions
  6
ByBlock
 62
    0
370
   -2
100
AcDbLine
 10
8732.237200408157
 20
-2241.542606837093
 11
8732.237200408157
 21
-2374.729808910772
  0
MTEXT
  5
18F
100
AcDbEntity
  8
dimensions
  6
CONTINUOUS
 62
    0
370
   -2
100
AcDbMText
 10
8706.612200408157
 20
-2115.917606837089
 30
0
 40
50
 41
250.0000000000062
 71
    5
 72
    1
  1
133.1872
  7
standard
210
0
220
0
230
1
 50
90
 73
    2
 44
1
  0
SOLID
  5
190
100
AcDbEntity
  8
dimensions
  6
ByBlock
 62
    0
370
   -2
100
AcDbTrace
 10
8732.237200408157
 20
-2241.542606837093
 30
0
 11
8732.65348506593
 21
-2244.042606837093
 31
0
 12
8731.820915750384
 22
-2244.042606837093
 32
0
 13
8731.820915750384
 23
-2244.042606837093
 33
0
  0
SOLID
  5
191
100
AcDbEntity
  8
dimensions
  6
ByBlock
 62
    0
370
   -2
100
AcDbTrace
 10
8732.237200408157
 20
-2374.729808910772
 30
0
 11
8731.820915750384
 21
-2372.229808910772
 31
0
 12
8732.65348506593
 22
-2372.229808910772
 32
0
 13
8732.65348506593
 23
-2372.229808910772
 33
0
  0
LINE
  5
192
100
AcDbEntity
  8
dimensions
  6
ByBlock
 62
    0
370
   -2
100
AcDbLine
 10
8087.831478679374
 20
-2241.542606837093
 11
8733.487200408157
 21
-2241.542606837093
  0
LINE
  5
193
100
AcDbEntity
  8
dimensions
  6
ByBlock
 62
    0
370
   -2
100
AcDbLine
 10
9234.394191439238
 20
-2374.729808910772
 11
8730.987200408157
 21
-2374.729808910772
  0
ENDBLK
  5
B1
330
AF
100
AcDbEntity
  8
0
100
AcDbBlockEnd
  0
BLOCK
  5
B3
330
B2
100
AcDbEntity
  8
0
100
AcDbBlockBegin
  2
*D33
 70
    1
 10
0
 20
0
  3
*D33
  1

  0
LINE
  5
194
100
AcDbEntity
  8
dimensions
  6
ByBlock
 62
    0
370
   -2
100
AcDbLine
 10
14633.50530535837
 20
-8997.91098015058
 11
7737.724024625382
 21
-8997.91098015058
  0
MTEXT
  5
195
100
AcDbEntity
  8
dimensions
  6
CONTINUOUS
 62
    0
370
   -2
100
AcDbMText
 10
11185.61466499187
 20
-8972.28598015058
 30
0
 40
50
 41
300.0000000000093
 71
    5
 72
    1
  1
6895.7813
  7
standard
210
0
220
0
230
1
 50
0
 73
    2
 44
1
  0
SOLID
  5
196
100
AcDbEntity
  8
dimensions
  6
ByBlock
 62
    0
370
   -2
100
AcDbTrace
 10
14633.50530535837
 20
-8997.91098015058
 30
0
 11
14631.00530535837
 21
-8998.327264808353
 31
0
 12
14631.00530535837
 22
-8997.494695492807
 32
0
 13
14631.00530535837
 23
-8997.494695492807
 33
0
  0
SOLID
  5
197
100
AcDbEntity
  8
dimensions
  6
ByBlock
 62
    0
370
   -2
100
AcDbTrace
 10
7737.724024625382
 20
-8997.91098015058
 30
0
 11
7740.224024625382
 21
-8997.494695492807
 31
0
 12
7740.224024625382
 22
-8998.327264808353
 32
0
 13
7740.224024625382
 23
-8998.327264808353
 33
0
  0
LINE
  5
198
100
AcDbEntity
  8
dimensions
  6
ByBlock
 62
    0
370
   -2
100
AcDbLine
 10
14633.50530535837
 20
-10168.40050258159
 11
14633.50530535837
 21
-8996.66098015058
  0
LINE
  5
199
100
AcDbEntity
  8
dimensions
  6
ByBlock
 62
    0
370
   -2
100
AcDbLine
 10
7737.724024625382
 20
-10168.40050258159
 11
7737.724024625382
 21
-8996.66098015058
  0
ENDBLK
  5
B4
330
B2
100
AcDbEntity
  8
0
100
AcDbBlockEnd
  0
BLOCK
  5
B6
330
B5
100
AcDbEntity
  8
0
100
AcDbBlockBegin
  2
*D8
 70
    1
 10
0
 20
0
  3
*D8
  1

  0
LINE
  5
19A
100
AcDbEntity
  8
dimensions
  6
ByBlock
 62
    0
370
   -2
100
AcDbLine
 10
8969.464651751508
 20
-1965.585585904641
 11
8969.464651751508
 21
-2801.752138375932
  0
MTEXT
  5
19B
100
AcDbEntity
  8
dimensions
  6
CONTINUOUS
 62
    0
370
   -2
100
AcDbMText
 10
8943.839651751508
 20
-2383.668862140287
 30
0
 40
50
 41
261.1111111111267
 71
    5
 72
    1
  1
836.1666
  7
standard
210
0
220
0
230
1
 50
90
 73
    2
 44
1
  0
SOLID
  5
19C
100
AcDbEntity
  8
dimensions
  6
ByBlock
 62
    0
370
   -2
100
AcDbTrace
 10
8969.464651751508
 20
-1965.585585904641
 30
0
 11
8969.880936409281
 21
-1968.085585904641
 31
0
 12
8969.048367093736
 22
-1968.085585904641
 32
0
 13
8969.048367093736
 23
-1968.085585904641
 33
0
  0
SOLID
  5
19D
100
AcDbEntity
  8
dimensions
  6
ByBlock
 62
    0
370
   -2
100
AcDbTrace
 10
8969.464651751508
 20
-2801.752138375932
 30
0
 11
8969.048367093736
 21
-2799.252138375932
 31
0
 12
8969.880936409281
 22
-2799.252138375932
 32
0
 13
8969.880936409281
 23
-2799.252138375932
 33
0
  0
LINE
  5
19E
100
AcDbEntity
  8
dimensions
  6
ByBlock
 62
    0
370
   -2
100
AcDbLine
 10
9062.249656490087
 20
-1965.585585904641
 11
8968.214651751508
 21
-1965.585585904641
  0
LINE
  5
19F
100
AcDbEntity
  8
dimensions
  6
ByBlock
 62
    0
370
   -2
100
AcDbLine
 10
9062.249656490087
 20
-2801.752138375932
 11
8968.214651751508
 21
-2801.752138375932
  0
ENDBLK
  5
B7
330
B5
100
AcDbEntity
  8
0
100
AcDbBlockEnd
  0
BLOCK
  5
B9
330
B8
100
AcDbEntity
  8
0
100
AcDbBlockBegin
  2
*D42
 70
    1
 10
0
 20
0
  3
*D42
  1

  0
ARC
  5
1A0
100
AcDbEntity
  8
dimensions
  6
ByBlock
 62
    0
370
   -2
100
AcDbCircle
 10
12796.1123352921
 20
-1771.735908928943
 40
736.5039594511341
100
AcDbArc
 50
11.41669467253178
 51
90
  0
SOLID
  5
1A1
100
AcDbEntity
  8
dimensions
  6
ByBlock
 62
    0
370
   -2
100
AcDbTrace
 10
13518.04348876161
 20
-1625.950134803435
 30
0
 11
13517.13656559133
 21
-1623.583537397981
 31
0
 12
13517.95238043045
 22
-1623.417351317171
 32
0
 13
13517.95238043045
 23
-1623.417351317171
 33
0
  0
SOLID
  5
1A2
100
AcDbEntity
  8
dimensions
  6
ByBlock
 62
    0
370
   -2
100
AcDbTrace
 10
12796.1123352921
 20
-1035.231949477808
 30
0
 11
12798.61303821254
 21
-1034.819908436157
 31
0
 12
12798.61162517038
 22
-1035.652476552589
 32
0
 13
12798.61162517038
 23
-1035.652476552589
 33
0
  0
MTEXT
  5
1A3
100
AcDbEntity
  8
dimensions
  6
CONTINUOUS
 62
    0
370
   -2
100
AcDbMText
 10
13262.9126102745
 20
-1201.247866865078
 30
0
 40
50
 41
188.888888888892
 71
    8
 72
    1
  1
78.58%%D
  7
standard
210
0
220
0
230
1
 50
320.7083473362658
 73
    2
 44
1
  0
ENDBLK
  5
BA
330
B8
100
AcDbEntity
  8
0
100
AcDbBlockEnd
  0
BLOCK
  5
BC
330
BB
100
AcDbEntity
  8
0
100
AcDbBlockBegin
  2
*D31
 70
    1
 10
0
 20
0
  3
*D31
  1

  0
LINE
  5
1A4
100
AcDbEntity
  8
dimensions
  6
ByBlock
 62
    0
370
   -2
100
AcDbLine
 10
-184.3627373382877
 20
1112.872812551063
 11
-184.3627373382877
 21
-99.29361873029126
  0
MTEXT
  5
1A5
100
AcDbEntity
  8
dimensions
  6
CONTINUOUS
 62
    0
370
   -2
100
AcDbMText
 10
-209.9877373382877
 20
506.7895969103861
 30
0
 40
50
 41
283.3333333333396
 71
    5
 72
    1
  1
1212.1664
  7
standard
210
0
220
0
230
1
 50
90
 73
    2
 44
1
  0
SOLID
  5
1A6
100
AcDbEntity
  8
dimensions
  6
ByBlock
 62
    0
370
   -2
100
AcDbTrace
 10
-184.3627373382877
 20
1112.872812551063
 30
0
 11
-183.9464526805149
 21
1110.372812551063
 31
0
 12
-184.7790219960605
 22
1110.372812551063
 32
0
 13
-184.7790219960605
 23
1110.372812551063
 33
0
  0
SOLID
  5
1A7
100
AcDbEntity
  8
dimensions
  6
ByBlock
 62
    0
370
   -2
100
AcDbTrace
 10
-184.3627373382877
 20
-99.29361873029126
 30
0
 11
-184.7790219960605
 21
-96.79361873029126
 31
0
 12
-183.9464526805149
 22
-96.79361873029126
 32
0
 13
-183.9464526805149
 23
-96.79361873029126
 33
0
  0
LINE
  5
1A8
100
AcDbEntity
  8
dimensions
  6
ByBlock
 62
    0
370
   -2
100
AcDbLine
 10
231.6548520550726
 20
1112.872812551063
 11
-185.6127373382877
 21
1112.872812551063
  0
LINE
  5
1A9
100
AcDbEntity
  8
dimensions
  6
ByBlock
 62
    0
370
   -2
100
AcDbLine
 10
231.6548520550724
 20
-99.29361873029126
 11
-185.6127373382877
 21
-99.29361873029126
  0
ENDBLK
  5
BD
330
BB
100
AcDbEntity
  8
0
100
AcDbBlockEnd
  0
BLOCK
  5
BF
330
BE
100
AcDbEntity
  8
0
100
AcDbBlockBegin
  2
*D44
 70
    1
 10
0
 20
0
  3
*D44
  1

  0
LINE
  5
1AA
100
AcDbEntity
  8
dimensions
  6
ByBlock
 62
    0
370
   -2
100
AcDbLine
 10
14766.69199299969
 20
-371.5384939429164
 11
15516.7879956876
 21
-371.5384939429164
  0
MTEXT
  5
1AB
100
AcDbEntity
  8
dimensions
  6
CONTINUOUS
 62
    0
370
   -2
100
AcDbMText
 10
15141.73999434364
 20
-345.9134939429164
 30
0
 40
50
 41
272.2222222222284
 71
    5
 72
    1
  1
750.0960
  7
standard
210
0
220
0
230
1
 50
0
 73
    2
 44
1
  0
SOLID
  5
1AC
100
AcDbEntity
  8
dimensions
  6
ByBlock
 62
    0
370
   -2
100
AcDbTrace
 10
14766.69199299969
 20
-371.5384939429164
 30
0
 11
14769.19199299969
 21
-371.1222092851435
 31
0
 12
14769.19199299969
 22
-371.9547786006892
 32
0
 13
14769.19199299969
 23
-371.9547786006892
 33
0
  0
SOLID
  5
1AD
100
AcDbEntity
  8
dimensions
  6
ByBlock
 62
    0
370
   -2
100
AcDbTrace
 10
15516.7879956876
 20
-371.5384939429164
 30
0
 11
15514.2879956876
 21
-371.9547786006892
 31
0
 12
15514.2879956876
 22
-371.1222092851435
 32
0
 13
15514.2879956876
 23
-371.1222092851435
 33
0
  0
LINE
  5
1AE
100
AcDbEntity
  8
dimensions
  6
ByBlock
 62
    0
370
   -2
100
AcDbLine
 10
14766.69199299969
 20
-581.8816036722549
 11
14766.69199299969
 21
-370.2884939429164
  0
LINE
  5
1AF
100
AcDbEntity
  8
dimensions
  6
ByBlock
 62
    0
370
   -2
100
AcDbLine
 10
15516.7879956876
 20
-581.8816036722549
 11
15516.7879956876
 21
-370.2884939429164
  0
ENDBLK
  5
C0
330
BE
100
AcDbEntity
  8
0
100
AcDbBlockEnd
  0
BLOCK
  5
C2
330
C1
100
AcDbEntity
  8
0
100
AcDbBlockBegin
  2
*D26
 70
    1
 10
0
 20
0
  3
*D26
  1

  0
LINE
  5
1B0
100
AcDbEntity
  8
dimensions
  6
ByBlock
 62
    0
370
   -2
100
AcDbLine
 10
16557.20963769619
 20
3296.416433105052
 11
16557.20963769619
 21
2849.647792202462
  0
MTEXT
  5
1B1
100
AcDbEntity
  8
dimensions
  6
CONTINUOUS
 62
    0
370
   -2
100
AcDbMText
 10
16531.58463769619
 20
3073.032112653757
 30
0
 40
50
 41
283.3333333333426
 71
    5
 72
    1
  1
446.7686
  7
standard
210
0
220
0
230
1
 50
90
 73
    2
 44
1
  0
SOLID
  5
1B2
100
AcDbEntity
  8
dimensions
  6
ByBlock
 62
    0
370
   -2
100
AcDbTrace
 10
16557.20963769619
 20
3296.416433105052
 30
0
 11
16557.62592235396
 21
3293.916433105052
 31
0
 12
16556.79335303841
 22
3293.916433105052
 32
0
 13
16556.79335303841
 23
3293.916433105052
 33
0
  0
SOLID
  5
1B3
100
AcDbEntity
  8
dimensions
  6
ByBlock
 62
    0
370
   -2
100
AcDbTrace
 10
16557.20963769619
 20
2849.647792202462
 30
0
 11
16556.79335303841
 21
2852.147792202462
 31
0
 12
16557.62592235396
 22
2852.147792202462
 32
0
 13
16557.62592235396
 23
2852.147792202462
 33
0
  0
LINE
  5
1B4
100
AcDbEntity
  8
dimensions
  6
ByBlock
 62
    0
370
   -2
100
AcDbLine
 10
16708.33785736931
 20
3296.416433105052
 11
16555.95963769619
 21
3296.416433105052
  0
LINE
  5
1B5
100
AcDbEntity
  8
dimensions
  6
ByBlock
 62
    0
370
   -2
100
AcDbLine
 10
23683.02695143705
 20
2849.647792202462
 11
16555.95963769619
 21
2849.647792202462
  0
ENDBLK
  5
C3
330
C1
100
AcDbEntity
  8
0
100
AcDbBlockEnd
  0
BLOCK
  5
C5
330
C4
100
AcDbEntity
  8
0
100
AcDbBlockBegin
  2
*D40
 70
    1
 10
0
 20
0
  3
*D40
  1

  0
LINE
  5
1B6
100
AcDbEntity
  8
dimensions
  6
ByBlock
 62
    0
370
   -2
100
AcDbLine
 10
12796.1123352921
 20
115.8428705112242
 11
15205.48558830734
 21
115.8428705112242
  0
MTEXT
  5
1B7
100
AcDbEntity
  8
dimensions
  6
CONTINUOUS
 62
    0
370
   -2
100
AcDbMText
 10
14000.79896179972
 20
141.4678705112242
 30
0
 40
50
 41
316.666666666676
 71
    5
 72
    1
  1
2409.3733
  7
standard
210
0
220
0
230
1
 50
0
 73
    2
 44
1
  0
SOLID
  5
1B8
100
AcDbEntity
  8
dimensions
  6
ByBlock
 62
    0
370
   -2
100
AcDbTrace
 10
12796.1123352921
 20
115.8428705112242
 30
0
 11
12798.6123352921
 21
116.259155168997
 31
0
 12
12798.6123352921
 22
115.4265858534514
 32
0
 13
12798.6123352921
 23
115.4265858534514
 33
0
  0
SOLID
  5
1B9
100
AcDbEntity
  8
dimensions
  6
ByBlock
 62
    0
370
   -2
100
AcDbTrace
 10
15205.48558830734
 20
115.8428705112242
 30
0
 11
15202.98558830734
 21
115.4265858534514
 31
0
 12
15202.98558830734
 22
116.259155168997
 32
0
 13
15202.98558830734
 23
116.259155168997
 33
0
  0
LINE
  5
1BA
100
AcDbEntity
  8
dimensions
  6
ByBlock
 62
    0
370
   -2
100
AcDbLine
 10
12796.1123352921
 20
-1771.110908928943
 11
12796.1123352921
 21
117.0928705112242
  0
LINE
  5
1BB
100
AcDbEntity
  8
dimensions
  6
ByBlock
 62
    0
370
   -2
100
AcDbLine
 10
15205.48558830734
 20
-1771.110908928939
 11
15205.48558830734
 21
117.0928705112242
  0
ENDBLK
  5
C6
330
C4
100
AcDbEntity
  8
0
100
AcDbBlockEnd
  0
BLOCK
  5
C8
330
C7
100
AcDbEntity
  8
0
100
AcDbBlockBegin
  2
*D34
 70
    1
 10
0
 20
0
  3
*D34
  1

  0
LINE
  5
1BC
100
AcDbEntity
  8
dimensions
  6
ByBlock
 62
    0
370
   -2
100
AcDbLine
 10
14577.44809106042
 20
-2241.542606837093
 11
14577.44809106042
 21
-1945.829277093908
  0
MTEXT
  5
1BD
100
AcDbEntity
  8
dimensions
  6
CONTINUOUS
 62
    0
370
   -2
100
AcDbMText
 10
14551.82309106042
 20
-2093.685941965501
 30
0
 40
50
 41
261.1111111111204
 71
    5
 72
    1
  1
295.7133
  7
standard
210
0
220
0
230
1
 50
90
 73
    2
 44
1
  0
SOLID
  5
1BE
100
AcDbEntity
  8
dimensions
  6
ByBlock
 62
    0
370
   -2
100
AcDbTrace
 10
14577.44809106042
 20
-2241.542606837093
 30
0
 11
14577.03180640265
 21
-2239.042606837093
 31
0
 12
14577.86437571819
 22
-2239.042606837093
 32
0
 13
14577.86437571819
 23
-2239.042606837093
 33
0
  0
SOLID
  5
1BF
100
AcDbEntity
  8
dimensions
  6
ByBlock
 62
    0
370
   -2
100
AcDbTrace
 10
14577.44809106042
 20
-1945.829277093908
 30
0
 11
14577.86437571819
 21
-1948.329277093908
 31
0
 12
14577.03180640265
 22
-1948.329277093908
 32
0
 13
14577.03180640265
 23
-1948.329277093908
 33
0
  0
LINE
  5
1C0
100
AcDbEntity
  8
dimensions
  6
ByBlock
 62
    0
370
   -2
100
AcDbLine
 10
7738.34902462537
 20
-2241.542606837093
 11
14578.69809106042
 21
-2241.542606837093
  0
LINE
  5
1C1
100
AcDbEntity
  8
dimensions
  6
ByBlock
 62
    0
370
   -2
100
AcDbLine
 10
14632.88030535837
 20
-1945.829277093908
 11
14576.19809106042
 21
-1945.829277093908
  0
ENDBLK
  5
C9
330
C7
100
AcDbEntity
  8
0
100
AcDbBlockEnd
  0
BLOCK
  5
CB
330
CA
100
AcDbEntity
  8
0
100
AcDbBlockBegin
  2
*D19
 70
    1
 10
0
 20
0
  3
*D19
  1

  0
LINE
  5
1C2
100
AcDbEntity
  8
dimensions
  6
ByBlock
 62
    0
370
   -2
100
AcDbLine
 10
13202.86395859656
 20
-2241.542606837093
 11
13202.86395859656
 21
-1975.453749114647
  0
MTEXT
  5
1C3
100
AcDbEntity
  8
dimensions
  6
CONTINUOUS
 62
    0
370
   -2
100
AcDbMText
 10
13177.23895859656
 20
-1838.717638003532
 30
0
 40
50
 41
272.2222222222284
 71
    5
 72
    1
  1
266.0889
  7
standard
210
0
220
0
230
1
 50
90
 73
    2
 44
1
  0
SOLID
  5
1C4
100
AcDbEntity
  8
dimensions
  6
ByBlock
 62
    0
370
   -2
100
AcDbTrace
 10
13202.86395859656
 20
-2241.542606837093
 30
0
 11
13202.44767393878
 21
-2239.042606837093
 31
0
 12
13203.28024325433
 22
-2239.042606837093
 32
0
 13
13203.28024325433
 23
-2239.042606837093
 33
0
  0
SOLID
  5
1C5
100
AcDbEntity
  8
dimensions
  6
ByBlock
 62
    0
370
   -2
100
AcDbTrace
 10
13202.86395859656
 20
-1975.453749114647
 30
0
 11
13203.28024325433
 21
-1977.953749114647
 31
0
 12
13202.44767393878
 22
-1977.953749114647
 32
0
 13
13202.44767393878
 23
-1977.953749114647
 33
0
  0
LINE
  5
1C6
100
AcDbEntity
  8
dimensions
  6
ByBlock
 62
    0
370
   -2
100
AcDbLine
 10
8087.831478679374
 20
-2241.542606837093
 11
13204.11395859656
 21
-2241.542606837093
  0
LINE
  5
1C7
100
AcDbEntity
  8
dimensions
  6
ByBlock
 62
    0
370
   -2
100
AcDbLine
 10
14804.71657136298
 20
-1975.453749114647
 11
13201.61395859656
 21
-1975.453749114647
  0
ENDBLK
  5
CC
330
CA
100
AcDbEntity
  8
0
100
AcDbBlockEnd
  0
BLOCK
  5
CE
330
CD
100
AcDbEntity
  8
0
100
AcDbBlockBegin
  2
*D37
 70
    1
 10
0
 20
0
  3
*D37
  1

  0
LINE
  5
1C8
100
AcDbEntity
  8
dimensions
  6
ByBlock
 62
    0
370
   -2
100
AcDbLine
 10
14713.19690850047
 20
-8485.461311804225
 11
14731.73653178489
 21
-8093.793373884918
  0
LINE
  5
1C9
100
AcDbEntity
  8
dimensions
  6
ByBlock
 62
    0
370
   -2
100
AcDbLine
 10
14633.50530535837
 20
-8996.03598015058
 11
14633.50530535837
 21
-8091.469784479142
  0
ARC
  5
1CA
100
AcDbEntity
  8
dimensions
  6
ByBlock
 62
    0
370
   -2
100
AcDbCircle
 10
14633.50530535837
 20
-10169.02550258161
 40
2076.305718102471
100
AcDbArc
 50
87.2899240040842
 51
90
  0
SOLID
  5
1CB
100
AcDbEntity
  8
dimensions
  6
ByBlock
 62
    0
370
   -2
100
AcDbTrace
 10
14731.67742914232
 20
-8095.041975854178
 30
0
 11
14729.16072201389
 21
-8095.341104833137
 31
0
 12
14729.19958697235
 22
-8094.509443134973
 32
0
 13
14729.19958697235
 23
-8094.509443134973
 33
0
  0
SOLID
  5
1CC
100
AcDbEntity
  8
dimensions
  6
ByBlock
 62
    0
370
   -2
100
AcDbTrace
 10
14633.50530535837
 20
-8092.719784479142
 30
0
 11
14636.00555552149
 21
-8092.305004973726
 31
0
 12
14636.00505428914
 22
-8093.137574138394
 32
0
 13
14636.00505428914
 23
-8093.137574138394
 33
0
  0
MTEXT
  5
1CD
100
AcDbEntity
  8
dimensions
  6
CONTINUOUS
 62
    0
370
   -2
100
AcDbMText
 10
14682.61987756774
 20
-8092.675588286256
 30
0
 40
50
 41
138.8888888888889
 71
    8
 72
    1
  1
2.71%%D
  7
standard
210
0
220
0
230
1
 50
358.6449620020421
 73
    2
 44
1
  0
ENDBLK
  5
CF
330
CD
100
AcDbEntity
  8
0
100
AcDbBlockEnd
  0
BLOCK
  5
D1
330
D0
100
AcDbEntity
  8
0
100
AcDbBlockBegin
  2
*D25
 70
    1
 10
0
 20
0
  3
*D25
  1

  0
LINE
  5
1CE
100
AcDbEntity
  8
dimensions
  6
ByBlock
 62
    0
370
   -2
100
AcDbLine
 10
4232.926802749077
 20
3556.007558875981
 11
4232.926802749077
 21
2142.939540409635
  0
MTEXT
  5
1CF
100
AcDbEntity
  8
dimensions
  6
CONTINUOUS
 62
    0
370
   -2
100
AcDbMText
 10
4207.301802749077
 20
2849.473549642808
 30
0
 40
50
 41
294.4444444444507
 71
    5
 72
    1
  1
1413.0680
  7
standard
210
0
220
0
230
1
 50
90
 73
    2
 44
1
  0
SOLID
  5
1D0
100
AcDbEntity
  8
dimensions
  6
ByBlock
 62
    0
370
   -2
100
AcDbTrace
 10
4232.926802749077
 20
3556.007558875981
 30
0
 11
4233.34308740685
 21
3553.507558875981
 31
0
 12
4232.510518091304
 22
3553.507558875981
 32
0
 13
4232.510518091304
 23
3553.507558875981
 33
0
  0
SOLID
  5
1D1
100
AcDbEntity
  8
dimensions
  6
ByBlock
 62
    0
370
   -2
100
AcDbTrace
 10
4232.926802749077
 20
2142.939540409635
 30
0
 11
4232.510518091304
 21
2145.439540409635
 31
0
 12
4233.34308740685
 22
2145.439540409635
 32
0
 13
4233.34308740685
 23
2145.439540409635
 33
0
  0
LINE
  5
1D2
100
AcDbEntity
  8
dimensions
  6
ByBlock
 62
    0
370
   -2
100
AcDbLine
 10
5115.493840086834
 20
3556.007558875981
 11
4231.676802749077
 21
3556.007558875981
  0
LINE
  5
1D3
100
AcDbEntity
  8
dimensions
  6
ByBlock
 62
    0
370
   -2
100
AcDbLine
 10
5115.493840086834
 20
2142.939540409635
 11
4231.676802749077
 21
2142.939540409635
  0
ENDBLK
  5
D2
330
D0
100
AcDbEntity
  8
0
100
AcDbBlockEnd
  0
BLOCK
  5
D4
330
D3
100
AcDbEntity
  8
0
100
AcDbBlockBegin
  2
*D30
 70
    1
 10
0
 20
0
  3
*D30
  1

  0
ARC
  5
1D4
100
AcDbEntity
  8
dimensions
  6
ByBlock
 62
    0
370
   -2
100
AcDbCircle
 10
5116.118840086835
 20
2142.939540409636
 40
936.0673094350166
100
AcDbArc
 50
180
 51
215.3947958449871
  0
SOLID
  5
1D5
100
AcDbEntity
  8
dimensions
  6
ByBlock
 62
    0
370
   -2
100
AcDbTrace
 10
4180.051530651818
 20
2142.939540409636
 30
0
 11
4180.471153372575
 21
2140.440098534232
 31
0
 12
4179.638584799358
 22
2140.438986743099
 32
0
 13
4179.638584799358
 23
2140.438986743099
 33
0
  0
SOLID
  5
1D6
100
AcDbEntity
  8
dimensions
  6
ByBlock
 62
    0
370
   -2
100
AcDbTrace
 10
4353.055108616886
 20
1600.762678575724
 30
0
 11
4351.270144730206
 21
1602.561899751551
 31
0
 12
4351.949482276985
 22
1603.043223096845
 32
0
 13
4351.949482276985
 23
1603.043223096845
 33
0
  0
MTEXT
  5
1D7
100
AcDbEntity
  8
dimensions
  6
CONTINUOUS
 62
    0
370
   -2
100
AcDbMText
 10
4224.946068652714
 20
1858.574623910528
 30
0
 40
50
 41
188.8888888888982
 71
    8
 72
    1
  1
35.39%%D
  7
standard
210
0
220
0
230
1
 50
-72.30260207750645
 73
    2
 44
1
  0
ENDBLK
  5
D5
330
D3
100
AcDbEntity
  8
0
100
AcDbBlockEnd
  0
BLOCK
  5
D7
330
D6
100
AcDbEntity
  8
0
100
AcDbBlockBegin
  2
*D29
 70
    1
 10
0
 20
0
  3
*D29
  1

  0
LINE
  5
1D8
100
AcDbEntity
  8
dimensions
  6
ByBlock
 62
    0
370
   -2
100
AcDbLine
 10
3887.306436304937
 20
2453.17984393159
 11
5116.118840086835
 21
2453.17984393159
  0
MTEXT
  5
1D9
100
AcDbEntity
  8
dimensions
  6
CONTINUOUS
 62
    0
370
   -2
100
AcDbMText
 10
4501.712638195886
 20
2478.80484393159
 30
0
 40
50
 41
294.4444444444445
 71
    5
 72
    1
  1
1228.8124
  7
standard
210
0
220
0
230
1
 50
0
 73
    2
 44
1
  0
SOLID
  5
1DA
100
AcDbEntity
  8
dimensions
  6
ByBlock
 62
    0
370
   -2
100
AcDbTrace
 10
3887.306436304937
 20
2453.17984393159
 30
0
 11
3889.806436304937
 21
2453.596128589363
 31
0
 12
3889.806436304937
 22
2452.763559273817
 32
0
 13
3889.806436304937
 23
2452.763559273817
 33
0
  0
SOLID
  5
1DB
100
AcDbEntity
  8
dimensions
  6
ByBlock
 62
    0
370
   -2
100
AcDbTrace
 10
5116.118840086835
 20
2453.17984393159
 30
0
 11
5113.618840086835
 21
2452.763559273817
 31
0
 12
5113.618840086835
 22
2453.596128589363
 32
0
 13
5113.618840086835
 23
2453.596128589363
 33
0
  0
LINE
  5
1DC
100
AcDbEntity
  8
dimensions
  6
ByBlock
 62
    0
370
   -2
100
AcDbLine
 10
3887.306436304937
 20
1270.460990354075
 11
3887.306436304937
 21
2454.42984393159
  0
LINE
  5
1DD
100
AcDbEntity
  8
dimensions
  6
ByBlock
 62
    0
370
   -2
100
AcDbLine
 10
5116.118840086835
 20
2143.564540409636
 11
5116.118840086835
 21
2454.42984393159
  0
ENDBLK
  5
D8
330
D6
100
AcDbEntity
  8
0
100
AcDbBlockEnd
  0
ENDSEC
  0
SECTION
  2
ENTITIES
  0
IMAGE
  5
1E0
100
AcDbEntity
  8
0
  6
ByLayer
 62
  256
370
   -1
100
AcDbRasterImage
 10
-222.8851722056016
 20
-4606.258806087486
 30
0
 11
21.48382758060539
 21
0
 31
0
 12
1.31546158798169e-15
 22
21.48382758060539
 32
0
 13
770
 23
455
340
1DE
 70
    1
280
    0
281
   50
282
   50
283
    0
360
1DF
  0
LINE
  5
1E1
100
AcDbEntity
  8
outline
  6
ByLayer
 62
  256
370
   -1
100
AcDbLine
 10
5116.118840086835
 20
3556.007558875975
 11
5116.118840086834
 21
-4591.313513942118
  0
LINE
  5
1E2
100
AcDbEntity
  8
outline
  6
ByLayer
 62
  256
370
   -1
100
AcDbLine
 10
5726.326486372902
 20
2230.856927011269
 11
5116.118840086835
 21
2230.856927011269
  0
LINE
  5
1E3
100
AcDbEntity
  8
outline
  6
ByLayer
 62
  256
370
   -1
100
AcDbLine
 10
5276.595477152541
 20
3206.525104821971
 11
5116.118840086835
 21
3206.525104821971
  0
ARC
  5
1E4
100
AcDbEntity
  8
outline
  6
ByLayer
 62
  256
370
   -1
100
AcDbCircle
 10
4684.11254811482
 20
3146.051969882318
 40
595.5610978317394
100
AcDbArc
 50
5.82784399012986
 51
43.49978543482209
  0
LINE
  5
1E5
100
AcDbEntity
  8
outline
  6
ByLayer
 62
  256
370
   -1
100
AcDbLine
 10
5276.595477152541
 20
3206.525104821971
 11
5363.318622927067
 21
3206.525104821971
  0
ARC
  5
1E6
100
AcDbEntity
  8
outline
  6
ByLayer
 62
  256
370
   -1
100
AcDbCircle
 10
5327.846178700283
 20
2946.321814735951
 40
262.6100654411625
100
AcDbArc
 50
23.02473193957439
 51
82.23695740734112
  0
ARC
  5
1E7
100
AcDbEntity
  8
outline
  6
ByLayer
 62
  256
370
   -1
100
AcDbCircle
 10
4551.349268342154
 20
2511.668915921187
 40
1151.289313936341
100
AcDbArc
 50
6.681327439918999
 51
27.82369971466606
  0
ARC
  5
1E8
100
AcDbEntity
  8
outline
  6
ByLayer
 62
  256
370
   -1
100
AcDbCircle
 10
2819.938536735374
 20
2218.654472349988
 40
2906.413565495797
100
AcDbArc
 50
0.2405546182748559
 51
8.447547030393698
  0
LINE
  5
1E9
100
AcDbEntity
  8
outline
  6
ByLayer
 62
  256
370
   -1
100
AcDbLine
 10
5726.326486372904
 20
2230.856927011269
 11
5726.326486372904
 21
589.6895380191222
  0
ARC
  5
1EA
100
AcDbEntity
  8
outline
  6
ByLayer
 62
  256
370
   -1
100
AcDbCircle
 10
-10061.50376095158
 20
777.8144370336577
 40
15788.95103849407
100
AcDbArc
 50
352.1434658107021
 51
359.3173062756258
  0
LINE
  5
1EB
100
AcDbEntity
  8
outline
  6
ByLayer
 62
  256
370
   -1
100
AcDbLine
 10
5579.243445408348
 20
-1380.425985789323
 11
5314.981735679215
 21
-3497.135647004193
  0
ARC
  5
1EC
100
AcDbEntity
  8
outline
  6
ByLayer
 62
  256
370
   -1
100
AcDbCircle
 10
3641.174350948108
 20
-3280.665886354935
 40
1687.747113301023
100
AcDbArc
 50
346.3752563562171
 51
352.6309674942634
  0
ARC
  5
1ED
100
AcDbEntity
  8
outline
  6
ByLayer
 62
  256
370
   -1
100
AcDbCircle
 10
4828.849009820114
 20
-3491.419757630145
 40
489.6190631053134
100
AcDbArc
 50
305.9246703919975
 51
337.5701735097924
  0
LINE
  5
1EE
100
AcDbEntity
  8
outline
  6
ByLayer
 62
  256
370
   -1
100
AcDbLine
 10
6799.058729879571
 20
-3419.435773677825
 11
6799.058729879571
 21
-4043.648563839364
  0
LINE
  5
1EF
100
AcDbEntity
  8
outline
  6
ByLayer
 62
  256
370
   -1
100
AcDbLine
 10
6799.058729879571
 20
-3419.435773677825
 11
5116.118840086834
 21
-3339.773721857011
  0
LINE
  5
1F0
100
AcDbEntity
  8
outline
  6
ByLayer
 62
  256
370
   -1
100
AcDbLine
 10
6799.058729879571
 20
-4043.648563839364
 11
5116.118840086834
 21
-4146.119501299238
  0
LINE
  5
1F1
100
AcDbEntity
  8
outline
  6
ByLayer
 62
  256
370
   -1
100
AcDbLine
 10
9999.957828118597
 20
-99.2936187302937
 11
9999.957828118597
 21
1112.872812551061
  0
ARC
  5
1F2
100
AcDbEntity
  8
outline
  6
ByLayer
 62
  256
370
   -1
100
AcDbCircle
 10
9984.719634726443
 20
137.659785156884
 40
237.4428734487027
100
AcDbArc
 50
273.679557033454
 51
350.8789660248783
  0
ARC
  5
1F3
100
AcDbEntity
  8
outline
  6
ByLayer
 62
  256
370
   -1
100
AcDbCircle
 10
6205.730456500451
 20
225.4267407217002
 40
4015.388541224684
100
AcDbArc
 50
358.210276932386
 51
6.790544196367888
  0
ARC
  5
1F4
100
AcDbEntity
  8
outline
  6
ByLayer
 62
  256
370
   -1
100
AcDbCircle
 10
9189.737731171539
 20
577.7851905566654
 40
1010.655360150369
100
AcDbArc
 50
6.957367103122127
 51
26.60792118741921
  0
ARC
  5
1F5
100
AcDbEntity
  8
outline
  6
ByLayer
 62
  256
370
   -1
100
AcDbCircle
 10
9953.57586410881
 20
966.1917793808527
 40
153.8395660332047
100
AcDbArc
 50
24.68523238285239
 51
72.45254092423291
  0
LINE
  5
1F6
100
AcDbEntity
  8
outline
  6
ByLayer
 62
  256
370
   -1
100
AcDbLine
 10
6344.931243868733
 20
1269.835990354075
 11
5116.118840086835
 21
2142.939540409636
  0
LINE
  5
1F7
100
AcDbEntity
  8
outline
  6
ByLayer
 62
  256
370
   -1
100
AcDbLine
 10
9999.957828118597
 20
-99.2936187302937
 11
5116.118840086835
 21
-376.3431176980676
  0
LINE
  5
1F8
100
AcDbEntity
  8
outline
  6
ByLayer
 62
  256
370
   -1
100
AcDbLine
 10
9999.957828118597
 20
1112.872812551061
 11
5116.118840086835
 21
1322.606687194561
  0
LINE
  5
1F9
100
AcDbEntity
  8
outline
  6
ByLayer
 62
  256
370
   -1
100
AcDbLine
 10
4505.911193800769
 20
2230.856927011269
 11
5116.118840086835
 21
2230.856927011269
  0
LINE
  5
1FA
100
AcDbEntity
  8
outline
  6
ByLayer
 62
  256
370
   -1
100
AcDbLine
 10
4955.64220302113
 20
3206.525104821971
 11
5116.118840086835
 21
3206.525104821971
  0
ARC
  5
1FB
100
AcDbEntity
  8
outline
  6
ByLayer
 62
  256
370
   -1
100
AcDbCircle
 10
5548.125132058851
 20
3146.051969882318
 40
595.5610978317394
100
AcDbArc
 50
136.5002145651779
 51
174.1721560098702
  0
LINE
  5
1FC
100
AcDbEntity
  8
outline
  6
ByLayer
 62
  256
370
   -1
100
AcDbLine
 10
4955.64220302113
 20
3206.525104821971
 11
4868.919057246604
 21
3206.525104821971
  0
ARC
  5
1FD
100
AcDbEntity
  8
outline
  6
ByLayer
 62
  256
370
   -1
100
AcDbCircle
 10
4904.391501473388
 20
2946.321814735951
 40
262.6100654411625
100
AcDbArc
 50
97.76304259265885
 51
156.9752680604256
  0
ARC
  5
1FE
100
AcDbEntity
  8
outline
  6
ByLayer
 62
  256
370
   -1
100
AcDbCircle
 10
5680.888411831516
 20
2511.668915921187
 40
1151.289313936341
100
AcDbArc
 50
152.176300285334
 51
173.318672560081
  0
ARC
  5
1FF
100
AcDbEntity
  8
outline
  6
ByLayer
 62
  256
370
   -1
100
AcDbCircle
 10
7412.299143438297
 20
2218.654472349988
 40
2906.413565495797
100
AcDbArc
 50
171.5524529696063
 51
179.7594453817251
  0
LINE
  5
200
100
AcDbEntity
  8
outline
  6
ByLayer
 62
  256
370
   -1
100
AcDbLine
 10
4505.911193800766
 20
2230.856927011269
 11
4505.911193800765
 21
589.6895380191222
  0
ARC
  5
201
100
AcDbEntity
  8
outline
  6
ByLayer
 62
  256
370
   -1
100
AcDbCircle
 10
20293.74144112525
 20
777.8144370336529
 40
15788.95103849407
100
AcDbArc
 50
180.6826937243742
 51
187.8565341892979
  0
LINE
  5
202
100
AcDbEntity
  8
outline
  6
ByLayer
 62
  256
370
   -1
100
AcDbLine
 10
4652.994234765321
 20
-1380.425985789323
 11
4917.255944494453
 21
-3497.135647004191
  0
ARC
  5
203
100
AcDbEntity
  8
outline
  6
ByLayer
 62
  256
370
   -1
100
AcDbCircle
 10
6591.063329225561
 20
-3280.665886354935
 40
1687.747113301023
100
AcDbArc
 50
187.3690325057366
 51
193.6247436437829
  0
ARC
  5
204
100
AcDbEntity
  8
outline
  6
ByLayer
 62
  256
370
   -1
100
AcDbCircle
 10
5403.388670353554
 20
-3491.419757630145
 40
489.6190631053134
100
AcDbArc
 50
202.4298264902075
 51
234.0753296080025
  0
LINE
  5
205
100
AcDbEntity
  8
outline
  6
ByLayer
 62
  256
370
   -1
100
AcDbLine
 10
3433.178950294097
 20
-3419.435773677823
 11
3433.178950294097
 21
-4043.648563839364
  0
LINE
  5
206
100
AcDbEntity
  8
outline
  6
ByLayer
 62
  256
370
   -1
100
AcDbLine
 10
3433.178950294097
 20
-3419.435773677823
 11
5116.118840086834
 21
-3339.773721857009
  0
LINE
  5
207
100
AcDbEntity
  8
outline
  6
ByLayer
 62
  256
370
   -1
100
AcDbLine
 10
3433.178950294097
 20
-4043.648563839364
 11
5116.118840086834
 21
-4146.119501299238
  0
LINE
  5
208
100
AcDbEntity
  8
outline
  6
ByLayer
 62
  256
370
   -1
100
AcDbLine
 10
232.2798520550724
 20
-99.29361873029126
 11
232.2798520550724
 21
1112.872812551063
  0
ARC
  5
209
100
AcDbEntity
  8
outline
  6
ByLayer
 62
  256
370
   -1
100
AcDbCircle
 10
247.5180454472259
 20
137.6597851568865
 40
237.4428734487027
100
AcDbArc
 50
189.1210339751217
 51
266.320442966546
  0
ARC
  5
20A
100
AcDbEntity
  8
outline
  6
ByLayer
 62
  256
370
   -1
100
AcDbCircle
 10
4026.507223673219
 20
225.4267407217002
 40
4015.388541224684
100
AcDbArc
 50
173.2094558036321
 51
181.789723067614
  0
ARC
  5
20B
100
AcDbEntity
  8
outline
  6
ByLayer
 62
  256
370
   -1
100
AcDbCircle
 10
1042.499949002131
 20
577.7851905566666
 40
1010.655360150369
100
AcDbArc
 50
153.3920788125808
 51
173.0426328968778
  0
ARC
  5
20C
100
AcDbEntity
  8
outline
  6
ByLayer
 62
  256
370
   -1
100
AcDbCircle
 10
278.6618160648584
 20
966.1917793808552
 40
153.8395660332047
100
AcDbArc
 50
107.5474590757671
 51
155.3147676171476
  0
LINE
  5
20D
100
AcDbEntity
  8
outline
  6
ByLayer
 62
  256
370
   -1
100
AcDbLine
 10
3887.306436304937
 20
1269.835990354075
 11
5116.118840086835
 21
2142.939540409636
  0
LINE
  5
20E
100
AcDbEntity
  8
outline
  6
ByLayer
 62
  256
370
   -1
100
AcDbLine
 10
232.2798520550724
 20
-99.29361873029126
 11
5116.118840086835
 21
-376.3431176980676
  0
LINE
  5
20F
100
AcDbEntity
  8
outline
  6
ByLayer
 62
  256
370
   -1
100
AcDbLine
 10
232.2798520550724
 20
1112.872812551063
 11
5116.118840086835
 21
1322.606687194561
  0
LINE
  5
210
100
AcDbEntity
  8
outline
  6
ByLayer
 62
  256
370
   -1
100
AcDbLine
 10
7737.724024625383
 20
-10169.02550258159
 11
15885.04509744348
 21
-10169.02550258159
  0
LINE
  5
211
100
AcDbEntity
  8
outline
  6
ByLayer
 62
  256
370
   -1
100
AcDbLine
 10
9062.874656490087
 20
-9558.817856295527
 11
9062.874656490087
 21
-10169.02550258159
  0
LINE
  5
212
100
AcDbEntity
  8
outline
  6
ByLayer
 62
  256
370
   -1
100
AcDbLine
 10
8087.206478679385
 20
-10008.54886551588
 11
8087.206478679385
 21
-10169.02550258159
  0
ARC
  5
213
100
AcDbEntity
  8
outline
  6
ByLayer
 62
  256
370
   -1
100
AcDbCircle
 10
8147.679613619041
 20
-10601.0317945536
 40
595.5610978317394
100
AcDbArc
 50
95.82784399012986
 51
133.4997854348221
  0
LINE
  5
214
100
AcDbEntity
  8
outline
  6
ByLayer
 62
  256
370
   -1
100
AcDbLine
 10
8087.206478679385
 20
-10008.54886551588
 11
8087.206478679385
 21
-9921.825719741359
  0
ARC
  5
215
100
AcDbEntity
  8
outline
  6
ByLayer
 62
  256
370
   -1
100
AcDbCircle
 10
8347.409768765407
 20
-9957.298163968142
 40
262.6100654411625
100
AcDbArc
 50
113.0247319395744
 51
172.2369574073411
  0
ARC
  5
216
100
AcDbEntity
  8
outline
  6
ByLayer
 62
  256
370
   -1
100
AcDbCircle
 10
8782.06266758017
 20
-10733.79507432627
 40
1151.289313936341
100
AcDbArc
 50
96.681327439919
 51
117.823699714666
  0
ARC
  5
217
100
AcDbEntity
  8
outline
  6
ByLayer
 62
  256
370
   -1
100
AcDbCircle
 10
9075.07711115137
 20
-12465.20580593305
 40
2906.413565495797
100
AcDbArc
 50
90.24055461827486
 51
98.44754703039371
  0
LINE
  5
218
100
AcDbEntity
  8
outline
  6
ByLayer
 62
  256
370
   -1
100
AcDbLine
 10
9062.874656490087
 20
-9558.817856295522
 11
10704.04204548224
 21
-9558.817856295522
  0
ARC
  5
219
100
AcDbEntity
  8
outline
  6
ByLayer
 62
  256
370
   -1
100
AcDbCircle
 10
10515.9171464677
 20
-25346.64810362
 40
15788.95103849407
100
AcDbArc
 50
82.14346581070208
 51
89.31730627562582
  0
LINE
  5
21A
100
AcDbEntity
  8
outline
  6
ByLayer
 62
  256
370
   -1
100
AcDbLine
 10
12674.15756929068
 20
-9705.900897260075
 11
14790.86723050555
 21
-9970.162606989214
  0
ARC
  5
21B
100
AcDbEntity
  8
outline
  6
ByLayer
 62
  256
370
   -1
100
AcDbCircle
 10
14574.39746985629
 20
-11643.96999172032
 40
1687.747113301023
100
AcDbArc
 50
76.37525635621704
 51
82.63096749426337
  0
ARC
  5
21C
100
AcDbEntity
  8
outline
  6
ByLayer
 62
  256
370
   -1
100
AcDbCircle
 10
14785.1513411315
 20
-10456.29533284831
 40
489.6190631053134
100
AcDbArc
 50
35.92467039199751
 51
67.57017350979245
  0
LINE
  5
21D
100
AcDbEntity
  8
outline
  6
ByLayer
 62
  256
370
   -1
100
AcDbLine
 10
14713.16735717918
 20
-8486.085612788855
 11
15337.38014734072
 21
-8486.085612788855
  0
LINE
  5
21E
100
AcDbEntity
  8
outline
  6
ByLayer
 62
  256
370
   -1
100
AcDbLine
 10
14713.16735717918
 20
-8486.085612788855
 11
14633.50530535837
 21
-10169.02550258159
  0
LINE
  5
21F
100
AcDbEntity
  8
outline
  6
ByLayer
 62
  256
370
   -1
100
AcDbLine
 10
15337.38014734072
 20
-8486.085612788855
 11
15439.85108480059
 21
-10169.02550258159
  0
LINE
  5
220
100
AcDbEntity
  8
outline
  6
ByLayer
 62
  256
370
   -1
100
AcDbLine
 10
11393.02520223165
 20
-5285.186514549828
 11
10180.8587709503
 21
-5285.186514549828
  0
ARC
  5
221
100
AcDbEntity
  8
outline
  6
ByLayer
 62
  256
370
   -1
100
AcDbCircle
 10
11156.07179834447
 20
-5300.424707941984
 40
237.4428734487027
100
AcDbArc
 50
3.679557033453969
 51
80.87896602487824
  0
ARC
  5
222
100
AcDbEntity
  8
outline
  6
ByLayer
 62
  256
370
   -1
100
AcDbCircle
 10
11068.30484277966
 20
-9079.413886167978
 40
4015.388541224684
100
AcDbArc
 50
88.21027693238595
 51
96.79054419636789
  0
ARC
  5
223
100
AcDbEntity
  8
outline
  6
ByLayer
 62
  256
370
   -1
100
AcDbCircle
 10
10715.94639294469
 20
-6095.406611496886
 40
1010.655360150369
100
AcDbArc
 50
96.95736710312212
 51
116.6079211874192
  0
ARC
  5
224
100
AcDbEntity
  8
outline
  6
ByLayer
 62
  256
370
   -1
100
AcDbCircle
 10
10327.5398041205
 20
-5331.568478559611
 40
153.8395660332047
100
AcDbArc
 50
114.6852323828524
 51
162.4525409242329
  0
LINE
  5
225
100
AcDbEntity
  8
outline
  6
ByLayer
 62
  256
370
   -1
100
AcDbLine
 10
10023.89559314728
 20
-8940.213098799693
 11
9150.792043091722
 21
-10169.02550258159
  0
LINE
  5
226
100
AcDbEntity
  8
outline
  6
ByLayer
 62
  256
370
   -1
100
AcDbLine
 10
11393.02520223165
 20
-5285.186514549828
 11
11670.07470119943
 21
-10169.02550258159
  0
LINE
  5
227
100
AcDbEntity
  8
outline
  6
ByLayer
 62
  256
370
   -1
100
AcDbLine
 10
10180.8587709503
 20
-5285.186514549828
 11
9971.124896306796
 21
-10169.02550258159
  0
LINE
  5
228
100
AcDbEntity
  8
outline
  6
ByLayer
 62
  256
370
   -1
100
AcDbLine
 10
9062.874656490087
 20
-10779.23314886765
 11
9062.874656490087
 21
-10169.02550258159
  0
LINE
  5
229
100
AcDbEntity
  8
outline
  6
ByLayer
 62
  256
370
   -1
100
AcDbLine
 10
8087.206478679385
 20
-10329.50213964729
 11
8087.206478679385
 21
-10169.02550258159
  0
ARC
  5
22A
100
AcDbEntity
  8
outline
  6
ByLayer
 62
  256
370
   -1
100
AcDbCircle
 10
8147.679613619041
 20
-9737.019210609575
 40
595.5610978317394
100
AcDbArc
 50
226.5002145651779
 51
264.1721560098702
  0
LINE
  5
22B
100
AcDbEntity
  8
outline
  6
ByLayer
 62
  256
370
   -1
100
AcDbLine
 10
8087.206478679385
 20
-10329.50213964729
 11
8087.206478679385
 21
-10416.22528542182
  0
ARC
  5
22C
100
AcDbEntity
  8
outline
  6
ByLayer
 62
  256
370
   -1
100
AcDbCircle
 10
8347.409768765407
 20
-10380.75284119504
 40
262.6100654411625
100
AcDbArc
 50
187.7630425926588
 51
246.9752680604256
  0
ARC
  5
22D
100
AcDbEntity
  8
outline
  6
ByLayer
 62
  256
370
   -1
100
AcDbCircle
 10
8782.06266758017
 20
-9604.255930836911
 40
1151.289313936341
100
AcDbArc
 50
242.176300285334
 51
263.318672560081
  0
ARC
  5
22E
100
AcDbEntity
  8
outline
  6
ByLayer
 62
  256
370
   -1
100
AcDbCircle
 10
9075.07711115137
 20
-7872.845199230128
 40
2906.413565495797
100
AcDbArc
 50
261.5524529696063
 51
269.7594453817251
  0
LINE
  5
22F
100
AcDbEntity
  8
outline
  6
ByLayer
 62
  256
370
   -1
100
AcDbLine
 10
9062.874656490087
 20
-10779.23314886766
 11
10704.04204548224
 21
-10779.23314886766
  0
ARC
  5
230
100
AcDbEntity
  8
outline
  6
ByLayer
 62
  256
370
   -1
100
AcDbCircle
 10
10515.91714646771
 20
5008.597098456829
 40
15788.95103849407
100
AcDbArc
 50
270.6826937243741
 51
277.8565341892979
  0
LINE
  5
231
100
AcDbEntity
  8
outline
  6
ByLayer
 62
  256
370
   -1
100
AcDbLine
 10
12674.15756929068
 20
-10632.1501079031
 11
14790.86723050555
 21
-10367.88839817397
  0
ARC
  5
232
100
AcDbEntity
  8
outline
  6
ByLayer
 62
  256
370
   -1
100
AcDbCircle
 10
14574.39746985629
 20
-8694.081013442863
 40
1687.747113301023
100
AcDbArc
 50
277.3690325057366
 51
283.6247436437829
  0
ARC
  5
233
100
AcDbEntity
  8
outline
  6
ByLayer
 62
  256
370
   -1
100
AcDbCircle
 10
14785.1513411315
 20
-9881.75567231487
 40
489.6190631053134
100
AcDbArc
 50
292.4298264902075
 51
324.0753296080025
  0
LINE
  5
234
100
AcDbEntity
  8
outline
  6
ByLayer
 62
  256
370
   -1
100
AcDbLine
 10
14713.16735717918
 20
-11851.96539237432
 11
15337.38014734072
 21
-11851.96539237432
  0
LINE
  5
235
100
AcDbEntity
  8
outline
  6
ByLayer
 62
  256
370
   -1
100
AcDbLine
 10
14713.16735717918
 20
-11851.96539237432
 11
14633.50530535837
 21
-10169.02550258159
  0
LINE
  5
236
100
AcDbEntity
  8
outline
  6
ByLayer
 62
  256
370
   -1
100
AcDbLine
 10
15337.38014734072
 20
-11851.96539237432
 11
15439.85108480059
 21
-10169.02550258159
  0
LINE
  5
237
100
AcDbEntity
  8
outline
  6
ByLayer
 62
  256
370
   -1
100
AcDbLine
 10
11393.02520223165
 20
-15052.86449061335
 11
10180.8587709503
 21
-15052.86449061335
  0
ARC
  5
238
100
AcDbEntity
  8
outline
  6
ByLayer
 62
  256
370
   -1
100
AcDbCircle
 10
11156.07179834447
 20
-15037.6262972212
 40
237.4428734487027
100
AcDbArc
 50
279.1210339751217
 51
356.320442966546
  0
ARC
  5
239
100
AcDbEntity
  8
outline
  6
ByLayer
 62
  256
370
   -1
100
AcDbCircle
 10
11068.30484277966
 20
-11258.63711899521
 40
4015.388541224684
100
AcDbArc
 50
263.2094558036321
 51
271.789723067614
  0
ARC
  5
23A
100
AcDbEntity
  8
outline
  6
ByLayer
 62
  256
370
   -1
100
AcDbCircle
 10
10715.94639294469
 20
-14242.64439366629
 40
1010.655360150369
100
AcDbArc
 50
243.3920788125808
 51
263.0426328968778
  0
ARC
  5
23B
100
AcDbEntity
  8
outline
  6
ByLayer
 62
  256
370
   -1
100
AcDbCircle
 10
10327.5398041205
 20
-15006.48252660357
 40
153.8395660332047
100
AcDbArc
 50
197.5474590757671
 51
245.3147676171476
  0
LINE
  5
23C
100
AcDbEntity
  8
outline
  6
ByLayer
 62
  256
370
   -1
100
AcDbLine
 10
10023.89559314728
 20
-11397.83790636349
 11
9150.792043091722
 21
-10169.02550258159
  0
LINE
  5
23D
100
AcDbEntity
  8
outline
  6
ByLayer
 62
  256
370
   -1
100
AcDbLine
 10
11393.02520223165
 20
-15052.86449061335
 11
11670.07470119943
 21
-10169.02550258159
  0
LINE
  5
23E
100
AcDbEntity
  8
outline
  6
ByLayer
 62
  256
370
   -1
100
AcDbLine
 10
10180.8587709503
 20
-15052.86449061335
 11
9971.124896306796
 21
-10169.02550258159
  0
ARC
  5
23F
100
AcDbEntity
  8
outline
  6
ByLayer
 62
  256
370
   -1
100
AcDbCircle
 10
8147.679613619028
 20
-2673.548898809109
 40
595.5610978317394
100
AcDbArc
 50
95.82784399012986
 51
133.4997854348221
  0
ARC
  5
240
100
AcDbEntity
  8
outline
  6
ByLayer
 62
  256
370
   -1
100
AcDbCircle
 10
8147.679613619028
 20
-1809.536314865078
 40
595.5610978317394
100
AcDbArc
 50
226.5002145651779
 51
264.1721560098702
  0
LINE
  5
241
100
AcDbEntity
  8
outline
  6
ByLayer
 62
  256
370
   -1
100
AcDbLine
 10
8087.206478679374
 20
-2081.065969771388
 11
8087.206478679374
 21
-2402.019243902796
  0
ARC
  5
242
100
AcDbEntity
  8
outline
  6
ByLayer
 62
  256
370
   -1
100
AcDbCircle
 10
17365.20021651428
 20
-76289.43713082005
 40
74786.11848582099
100
AcDbArc
 50
96.24109840033465
 51
97.12649674296776
  0
ARC
  5
243
100
AcDbEntity
  8
outline
  6
ByLayer
 62
  256
370
   -1
100
AcDbCircle
 10
10113.49393015085
 20
-2631.445263139513
 40
1113.906820209236
100
AcDbArc
 50
101.9802662199228
 51
142.0588714655416
  0
ARC
  5
244
100
AcDbEntity
  8
outline
  6
ByLayer
 62
  256
370
   -1
100
AcDbCircle
 10
10192.77181459529
 20
-3422.148730127978
 40
1905.811794324285
100
AcDbArc
 50
86.56113934561337
 51
99.3764851213615
  0
LINE
  5
245
100
AcDbEntity
  8
outline
  6
ByLayer
 62
  256
370
   -1
100
AcDbLine
 10
10307.08890945154
 20
-1519.768590090457
 11
15205.48558830741
 21
-1771.735908928943
  0
ARC
  5
246
100
AcDbEntity
  8
outline
  6
ByLayer
 62
  256
370
   -1
100
AcDbCircle
 10
14659.66177436672
 20
-1662.510363100914
 40
556.645179379278
100
AcDbArc
 50
285.1715716699925
 51
348.6839325915194
  0
LINE
  5
247
100
AcDbEntity
  8
outline
  6
ByLayer
 62
  256
370
   -1
100
AcDbLine
 10
14805.34157136298
 20
-2199.754490545151
 11
11393.04481604353
 21
-2817.311383743703
  0
LINE
  5
248
100
AcDbEntity
  8
outline
  6
ByLayer
 62
  256
370
   -1
100
AcDbLine
 10
11393.04481604353
 20
-2817.311383743703
 11
8997.820105216242
 21
-2801.317749616206
  0
ARC
  5
249
100
AcDbEntity
  8
outline
  6
ByLayer
 62
  256
370
   -1
100
AcDbCircle
 10
8371.521990185664
 20
-2369.202044979422
 40
286.2032121207963
100
AcDbArc
 50
186.5842442217114
 51
240.8178578672716
  0
ARC
  5
24A
100
AcDbEntity
  8
outline
  6
ByLayer
 62
  256
370
   -1
100
AcDbCircle
 10
8825.352338973891
 20
-1659.489645479399
 40
1128.233250595516
100
AcDbArc
 50
238.2686650000911
 51
260.1868256358174
  0
ARC
  5
24B
100
AcDbEntity
  8
outline
  6
ByLayer
 62
  256
370
   -1
100
AcDbCircle
 10
9141.226377371991
 20
1161.384333127737
 40
3965.29609934451
100
AcDbArc
 50
262.6371097888863
 51
267.9274268254107
  0
LINE
  5
24C
100
AcDbEntity
  8
outline
  6
ByLayer
 62
  256
370
   -1
100
AcDbLine
 10
14742.93399028206
 20
-614.6019310853878
 11
15516.7879956876
 21
-582.5066036722549
  0
LINE
  5
24D
100
AcDbEntity
  8
outline
  6
ByLayer
 62
  256
370
   -1
100
AcDbLine
 10
15516.7879956876
 20
-582.5066036722549
 11
15205.48558830741
 21
-1771.735908928943
  0
SPLINE
  5
24E
100
AcDbEntity
  8
outline
  6
ByLayer
 62
  256
370
   -1
100
AcDbSpline
210
0
220
0
230
0
 70
    8
 71
    2
 72
   18
 73
   15
 74
    0
 42
1e-07
 43
1e-07
 40
0
 40
0
 40
0
 40
0.07692307692307693
 40
0.1538461538461539
 40
0.2307692307692308
 40
0.3076923076923077
 40
0.3846153846153846
 40
0.4615384615384616
 40
0.5384615384615384
 40
0.6153846153846154
 40
0.6923076923076923
 40
0.7692307692307693
 40
0.8461538461538461
 40
0.9230769230769231
 40
1
 40
1
 40
1
 10
15439.85108480059
 20
-1959.014805562775
 30
0
 10
15289.88631866422
 20
-1935.267324424084
 30
0
 10
15074.43229828576
 20
-1902.391051008743
 30
0
 10
14913.12835795937
 20
-1896.247550397514
 30
0
 10
14801.81753360081
 20
-1896.497355904876
 30
0
 10
14731.37675136152
 20
-1911.395479812065
 30
0
 10
14678.50888656939
 20
-1920.495989223522
 30
0
 10
14618.42250542972
 20
-1945.758973093018
 30
0
 10
14678.91892075467
 20
-1974.763172969067
 30
0
 10
14732.72327513379
 20
-1986.471181047151
 30
0
 10
14803.39640663455
 20
-1991.467086751632
 30
0
 10
14911.90539144277
 20
-1999.056953711094
 30
0
 10
15074.39137898632
 20
-1998.812556926215
 30
0
 10
15291.41080269519
 20
-1980.236117584722
 30
0
 10
15439.85108480059
 20
-1959.014805562775
 30
0
  0
LINE
  5
24F
100
AcDbEntity
  8
outline
  6
ByLayer
 62
  256
370
   -1
100
AcDbLine
 10
14633.50530535837
 20
-1945.829277093908
 11
15439.85108480059
 21
-1959.014805562775
  0
LINE
  5
250
100
AcDbEntity
  8
outline
  6
ByLayer
 62
  256
370
   -1
100
AcDbLine
 10
10991.1805106663
 20
4960.098242582307
 11
10991.1805106663
 21
1871.428851763917
  0
LINE
  5
251
100
AcDbEntity
  8
outline
  6
ByLayer
 62
  256
370
   -1
100
AcDbLine
 10
10991.1805106663
 20
6820.183678639019
 11
10991.1805106663
 21
14967.50475145711
  0
LINE
  5
252
100
AcDbEntity
  8
outline
  6
ByLayer
 62
  256
370
   -1
100
AcDbLine
 10
10380.97286438024
 20
8145.334310503723
 11
10991.1805106663
 21
8145.334310503723
  0
LINE
  5
253
100
AcDbEntity
  8
outline
  6
ByLayer
 62
  256
370
   -1
100
AcDbLine
 10
10830.7038736006
 20
7169.666132693021
 11
10991.1805106663
 21
7169.666132693021
  0
ARC
  5
254
100
AcDbEntity
  8
outline
  6
ByLayer
 62
  256
370
   -1
100
AcDbCircle
 10
11423.18680263832
 20
7230.139267632679
 40
595.5610978317394
100
AcDbArc
 50
185.8278439901299
 51
223.4997854348221
  0
LINE
  5
255
100
AcDbEntity
  8
outline
  6
ByLayer
 62
  256
370
   -1
100
AcDbLine
 10
10830.7038736006
 20
7169.666132693021
 11
10743.98072782607
 21
7169.666132693021
  0
ARC
  5
256
100
AcDbEntity
  8
outline
  6
ByLayer
 62
  256
370
   -1
100
AcDbCircle
 10
10779.45317205285
 20
7429.869422779042
 40
262.6100654411625
100
AcDbArc
 50
203.0247319395744
 51
262.2369574073412
  0
ARC
  5
257
100
AcDbEntity
  8
outline
  6
ByLayer
 62
  256
370
   -1
100
AcDbCircle
 10
11555.95008241098
 20
7864.522321593807
 40
1151.289313936341
100
AcDbArc
 50
186.681327439919
 51
207.823699714666
  0
ARC
  5
258
100
AcDbEntity
  8
outline
  6
ByLayer
 62
  256
370
   -1
100
AcDbCircle
 10
13287.36081401776
 20
8157.536765165001
 40
2906.413565495797
100
AcDbArc
 50
180.2405546182748
 51
188.4475470303937
  0
LINE
  5
259
100
AcDbEntity
  8
outline
  6
ByLayer
 62
  256
370
   -1
100
AcDbLine
 10
10380.97286438023
 20
8145.334310503723
 11
10380.97286438023
 21
9786.501699495868
  0
ARC
  5
25A
100
AcDbEntity
  8
outline
  6
ByLayer
 62
  256
370
   -1
100
AcDbCircle
 10
26168.80311170472
 20
9598.376800481332
 40
15788.95103849407
100
AcDbArc
 50
172.1434658107021
 51
179.3173062756258
  0
LINE
  5
25B
100
AcDbEntity
  8
outline
  6
ByLayer
 62
  256
370
   -1
100
AcDbLine
 10
10528.05590534479
 20
11756.61722330432
 11
10792.31761507393
 21
13873.32688451919
  0
ARC
  5
25C
100
AcDbEntity
  8
outline
  6
ByLayer
 62
  256
370
   -1
100
AcDbCircle
 10
12466.12499980503
 20
13656.85712386993
 40
1687.747113301023
100
AcDbArc
 50
166.3752563562171
 51
172.6309674942634
  0
ARC
  5
25D
100
AcDbEntity
  8
outline
  6
ByLayer
 62
  256
370
   -1
100
AcDbCircle
 10
11278.45034093302
 20
13867.61099514513
 40
489.6190631053134
100
AcDbArc
 50
125.9246703919975
 51
157.5701735097925
  0
LINE
  5
25E
100
AcDbEntity
  8
outline
  6
ByLayer
 62
  256
370
   -1
100
AcDbLine
 10
9308.240620873567
 20
13795.62701119282
 11
9308.240620873567
 21
14419.83980135435
  0
LINE
  5
25F
100
AcDbEntity
  8
outline
  6
ByLayer
 62
  256
370
   -1
100
AcDbLine
 10
9308.240620873567
 20
13795.62701119282
 11
10991.1805106663
 21
13715.964959372
  0
LINE
  5
260
100
AcDbEntity
  8
outline
  6
ByLayer
 62
  256
370
   -1
100
AcDbLine
 10
9308.240620873567
 20
14419.83980135435
 11
10991.1805106663
 21
14522.31073881423
  0
LINE
  5
261
100
AcDbEntity
  8
outline
  6
ByLayer
 62
  256
370
   -1
100
AcDbLine
 10
6107.341522634541
 20
10475.48485624529
 11
6107.341522634541
 21
9263.318424963933
  0
ARC
  5
262
100
AcDbEntity
  8
outline
  6
ByLayer
 62
  256
370
   -1
100
AcDbCircle
 10
6122.579716026697
 20
10238.53145235811
 40
237.4428734487027
100
AcDbArc
 50
93.67955703345397
 51
170.8789660248782
  0
ARC
  5
263
100
AcDbEntity
  8
outline
  6
ByLayer
 62
  256
370
   -1
100
AcDbCircle
 10
9901.56889425269
 20
10150.76449679329
 40
4015.388541224684
100
AcDbArc
 50
178.2102769323859
 51
186.7905441963679
  0
ARC
  5
264
100
AcDbEntity
  8
outline
  6
ByLayer
 62
  256
370
   -1
100
AcDbCircle
 10
6917.5616195816
 20
9798.406046958324
 40
1010.655360150369
100
AcDbArc
 50
186.9573671031221
 51
206.6079211874192
  0
ARC
  5
265
100
AcDbEntity
  8
outline
  6
ByLayer
 62
  256
370
   -1
100
AcDbCircle
 10
6153.723486644324
 20
9409.999458134136
 40
153.8395660332047
100
AcDbArc
 50
204.6852323828524
 51
252.4525409242329
  0
LINE
  5
266
100
AcDbEntity
  8
outline
  6
ByLayer
 62
  256
370
   -1
100
AcDbLine
 10
9762.368106884405
 20
9106.355247160916
 11
10991.1805106663
 21
8233.251697105354
  0
LINE
  5
267
100
AcDbEntity
  8
outline
  6
ByLayer
 62
  256
370
   -1
100
AcDbLine
 10
6107.341522634541
 20
10475.48485624529
 11
10991.1805106663
 21
10752.53435521306
  0
LINE
  5
268
100
AcDbEntity
  8
outline
  6
ByLayer
 62
  256
370
   -1
100
AcDbLine
 10
6107.341522634541
 20
9263.318424963933
 11
10991.1805106663
 21
9053.584550320427
  0
LINE
  5
269
100
AcDbEntity
  8
outline
  6
ByLayer
 62
  256
370
   -1
100
AcDbLine
 10
11601.38815695237
 20
8145.334310503723
 11
10991.1805106663
 21
8145.334310503723
  0
LINE
  5
26A
100
AcDbEntity
  8
outline
  6
ByLayer
 62
  256
370
   -1
100
AcDbLine
 10
11151.65714773201
 20
7169.666132693021
 11
10991.1805106663
 21
7169.666132693021
  0
ARC
  5
26B
100
AcDbEntity
  8
outline
  6
ByLayer
 62
  256
370
   -1
100
AcDbCircle
 10
10559.17421869429
 20
7230.139267632679
 40
595.5610978317394
100
AcDbArc
 50
316.5002145651779
 51
354.1721560098702
  0
LINE
  5
26C
100
AcDbEntity
  8
outline
  6
ByLayer
 62
  256
370
   -1
100
AcDbLine
 10
11151.65714773201
 20
7169.666132693021
 11
11238.38029350654
 21
7169.666132693021
  0
ARC
  5
26D
100
AcDbEntity
  8
outline
  6
ByLayer
 62
  256
370
   -1
100
AcDbCircle
 10
11202.90784927975
 20
7429.869422779042
 40
262.6100654411625
100
AcDbArc
 50
277.7630425926588
 51
336.9752680604255
  0
ARC
  5
26E
100
AcDbEntity
  8
outline
  6
ByLayer
 62
  256
370
   -1
100
AcDbCircle
 10
10426.41093892162
 20
7864.522321593807
 40
1151.289313936341
100
AcDbArc
 50
332.1763002853339
 51
353.318672560081
  0
ARC
  5
26F
100
AcDbEntity
  8
outline
  6
ByLayer
 62
  256
370
   -1
100
AcDbCircle
 10
8695.000207314841
 20
8157.536765165001
 40
2906.413565495797
100
AcDbArc
 50
351.5524529696063
 51
359.7594453817251
  0
LINE
  5
270
100
AcDbEntity
  8
outline
  6
ByLayer
 62
  256
370
   -1
100
AcDbLine
 10
11601.38815695237
 20
8145.334310503723
 11
11601.38815695237
 21
9786.501699495868
  0
ARC
  5
271
100
AcDbEntity
  8
outline
  6
ByLayer
 62
  256
370
   -1
100
AcDbCircle
 10
-4186.442090372115
 20
9598.376800481337
 40
15788.95103849407
100
AcDbArc
 50
0.6826937243741231
 51
7.856534189297917
  0
LINE
  5
272
100
AcDbEntity
  8
outline
  6
ByLayer
 62
  256
370
   -1
100
AcDbLine
 10
11454.30511598782
 20
11756.61722330432
 11
11190.04340625868
 21
13873.32688451919
  0
ARC
  5
273
100
AcDbEntity
  8
outline
  6
ByLayer
 62
  256
370
   -1
100
AcDbCircle
 10
9516.236021527575
 20
13656.85712386992
 40
1687.747113301023
100
AcDbArc
 50
7.36903250573663
 51
13.62474364378296
  0
ARC
  5
274
100
AcDbEntity
  8
outline
  6
ByLayer
 62
  256
370
   -1
100
AcDbCircle
 10
10703.91068039958
 20
13867.61099514513
 40
489.6190631053134
100
AcDbArc
 50
22.4298264902075
 51
54.07532960800249
  0
LINE
  5
275
100
AcDbEntity
  8
outline
  6
ByLayer
 62
  256
370
   -1
100
AcDbLine
 10
12674.12040045904
 20
13795.62701119281
 11
12674.12040045904
 21
14419.83980135436
  0
LINE
  5
276
100
AcDbEntity
  8
outline
  6
ByLayer
 62
  256
370
   -1
100
AcDbLine
 10
12674.12040045904
 20
13795.62701119281
 11
10991.1805106663
 21
13715.964959372
  0
LINE
  5
277
100
AcDbEntity
  8
outline
  6
ByLayer
 62
  256
370
   -1
100
AcDbLine
 10
12674.12040045904
 20
14419.83980135436
 11
10991.1805106663
 21
14522.31073881423
  0
LINE
  5
278
100
AcDbEntity
  8
outline
  6
ByLayer
 62
  256
370
   -1
100
AcDbLine
 10
15875.01949869806
 20
10475.48485624529
 11
15875.01949869806
 21
9263.318424963927
  0
ARC
  5
279
100
AcDbEntity
  8
outline
  6
ByLayer
 62
  256
370
   -1
100
AcDbCircle
 10
15859.78130530591
 20
10238.5314523581
 40
237.4428734487027
100
AcDbArc
 50
9.121033975121762
 51
86.32044296654603
  0
ARC
  5
27A
100
AcDbEntity
  8
outline
  6
ByLayer
 62
  256
370
   -1
100
AcDbCircle
 10
12080.79212707992
 20
10150.76449679329
 40
4015.388541224684
100
AcDbArc
 50
353.2094558036321
 51
1.789723067614002
  0
ARC
  5
27B
100
AcDbEntity
  8
outline
  6
ByLayer
 62
  256
370
   -1
100
AcDbCircle
 10
15064.79940175101
 20
9798.406046958324
 40
1010.655360150369
100
AcDbArc
 50
333.3920788125808
 51
353.0426328968778
  0
ARC
  5
27C
100
AcDbEntity
  8
outline
  6
ByLayer
 62
  256
370
   -1
100
AcDbCircle
 10
15828.63753468828
 20
9409.999458134136
 40
153.8395660332047
100
AcDbArc
 50
287.5474590757671
 51
335.3147676171476
  0
LINE
  5
27D
100
AcDbEntity
  8
outline
  6
ByLayer
 62
  256
370
   -1
100
AcDbLine
 10
12219.9929144482
 20
9106.355247160916
 11
10991.1805106663
 21
8233.251697105354
  0
LINE
  5
27E
100
AcDbEntity
  8
outline
  6
ByLayer
 62
  256
370
   -1
100
AcDbLine
 10
15875.01949869806
 20
10475.48485624529
 11
10991.1805106663
 21
10752.53435521306
  0
LINE
  5
27F
100
AcDbEntity
  8
outline
  6
ByLayer
 62
  256
370
   -1
100
AcDbLine
 10
15875.01949869806
 20
9263.318424963927
 11
10991.1805106663
 21
9053.584550320427
  0
LINE
  5
280
100
AcDbEntity
  8
outline
  6
ByLayer
 62
  256
370
   -1
100
AcDbLine
 10
10380.97286438023
 20
2736.641290325942
 11
11601.38815695237
 21
2736.641290325942
  0
ARC
  5
281
100
AcDbEntity
  8
outline
  6
ByLayer
 62
  256
370
   -1
100
AcDbCircle
 10
11294.2582266317
 20
3483.544160795771
 40
926.3356542291673
100
AcDbArc
 50
144.3448814662573
 51
170.3711429098516
  0
LINE
  5
282
100
AcDbEntity
  8
outline
  6
ByLayer
 62
  256
370
   -1
100
AcDbLine
 10
10380.97286438023
 20
3638.487993823626
 11
10380.97286438023
 21
2736.641290325942
  0
ARC
  5
283
100
AcDbEntity
  8
outline
  6
ByLayer
 62
  256
370
   -1
100
AcDbCircle
 10
10688.10279470091
 20
3483.544160795771
 40
926.3356542291673
100
AcDbArc
 50
9.628857090148417
 51
35.65511853374267
  0
LINE
  5
284
100
AcDbEntity
  8
outline
  6
ByLayer
 62
  256
370
   -1
100
AcDbLine
 10
10541.57309967362
 20
4023.509755951775
 11
11440.78792165902
 21
4023.509755951776
  0
LINE
  5
285
100
AcDbEntity
  8
outline
  6
ByLayer
 62
  256
370
   -1
100
AcDbLine
 10
11601.38815695237
 20
3638.487993823797
 11
11601.38815695237
 21
2736.641290325942
  0
ARC
  5
286
100
AcDbEntity
  8
outline
  6
ByLayer
 62
  256
370
   -1
100
AcDbCircle
 10
10991.1805106663
 20
2301.319369391453
 40
1291.878282337559
100
AcDbArc
 50
90
 51
118.1863920285625
  0
ARC
  5
287
100
AcDbEntity
  8
outline
  6
ByLayer
 62
  256
370
   -1
100
AcDbCircle
 10
10991.1805106663
 20
2301.319369391453
 40
1291.878282337559
100
AcDbArc
 50
61.81360797143754
 51
90
  0
LINE
  5
288
100
AcDbEntity
  8
outline
  6
ByLayer
 62
  256
370
   -1
100
AcDbLine
 10
11601.38815695237
 20
2736.641290325942
 11
15875.01949869807
 21
3195.097539665217
  0
LINE
  5
289
100
AcDbEntity
  8
outline
  6
ByLayer
 62
  256
370
   -1
100
AcDbLine
 10
11601.38815695237
 20
2975.681140111752
 11
15875.01949869807
 21
3380.802326782846
  0
ARC
  5
28A
100
AcDbEntity
  8
outline
  6
ByLayer
 62
  256
370
   -1
100
AcDbCircle
 10
15925.85570344648
 20
2245.474689673787
 40
1136.465205493269
100
AcDbArc
 50
84.33140370225446
 51
92.56380239025366
  0
ARC
  5
28B
100
AcDbEntity
  8
outline
  6
ByLayer
 62
  256
370
   -1
100
AcDbCircle
 10
16021.88592311509
 20
3300.846166985826
 40
77.2588092525547
100
AcDbArc
 50
15.94377022594359
 51
77.87837683352149
  0
ARC
  5
28C
100
AcDbEntity
  8
outline
  6
ByLayer
 62
  256
370
   -1
100
AcDbCircle
 10
15985.32083693502
 20
3314.147692527691
 40
111.1345232064272
100
AcDbArc
 50
324.314938297138
 51
4.087160655996525
  0
ARC
  5
28D
100
AcDbEntity
  8
outline
  6
ByLayer
 62
  256
370
   -1
100
AcDbCircle
 10
15866.38023583912
 20
3625.119498658455
 40
430.1087328561557
100
AcDbArc
 50
271.1509335962571
 51
299.104715229637
  0
LINE
  5
28E
100
AcDbEntity
  8
outline
  6
ByLayer
 62
  256
370
   -1
100
AcDbLine
 10
11601.38815695237
 20
2849.647792202462
 11
15875.01949869807
 21
3298.824546184068
  0
LINE
  5
28F
100
AcDbEntity
  8
outline
  6
ByLayer
 62
  256
370
   -1
100
AcDbLine
 10
15875.01949869807
 20
3380.802326782844
 11
15875.01949869807
 21
3195.097539665217
  0
LINE
  5
290
100
AcDbEntity
  8
outline
  6
ByLayer
 62
  256
370
   -1
100
AcDbLine
 10
10380.97286438023
 20
2736.641290325942
 11
6107.341522634539
 21
3195.097539665217
  0
LINE
  5
291
100
AcDbEntity
  8
outline
  6
ByLayer
 62
  256
370
   -1
100
AcDbLine
 10
10380.97286438023
 20
2975.681140111752
 11
6107.341522634539
 21
3380.802326782846
  0
ARC
  5
292
100
AcDbEntity
  8
outline
  6
ByLayer
 62
  256
370
   -1
100
AcDbCircle
 10
6056.50531788613
 20
2245.474689673787
 40
1136.465205493269
100
AcDbArc
 50
87.43619760974633
 51
95.66859629774557
  0
ARC
  5
293
100
AcDbEntity
  8
outline
  6
ByLayer
 62
  256
370
   -1
100
AcDbCircle
 10
5960.475098217515
 20
3300.846166985826
 40
77.2588092525547
100
AcDbArc
 50
102.1216231664786
 51
164.0562297740564
  0
ARC
  5
294
100
AcDbEntity
  8
outline
  6
ByLayer
 62
  256
370
   -1
100
AcDbCircle
 10
5997.040184397588
 20
3314.147692527691
 40
111.1345232064272
100
AcDbArc
 50
175.9128393440035
 51
215.685061702862
  0
ARC
  5
295
100
AcDbEntity
  8
outline
  6
ByLayer
 62
  256
370
   -1
100
AcDbCircle
 10
6115.980785493488
 20
3625.119498658455
 40
430.1087328561557
100
AcDbArc
 50
240.8952847703631
 51
268.8490664037429
  0
LINE
  5
296
100
AcDbEntity
  8
outline
  6
ByLayer
 62
  256
370
   -1
100
AcDbLine
 10
10380.97286438023
 20
2849.647792202462
 11
6107.341522634539
 21
3298.824546184068
  0
LINE
  5
297
100
AcDbEntity
  8
outline
  6
ByLayer
 62
  256
370
   -1
100
AcDbLine
 10
6107.341522634539
 20
3380.802326782844
 11
6107.341522634539
 21
3195.097539665217
  0
LINE
  5
298
100
AcDbEntity
  8
outline
  6
ByLayer
 62
  256
370
   -1
100
AcDbLine
 10
10221.11899772514
 20
225.4267407216996
 11
11.11868244853611
 21
225.4267407217002
  0
LINE
  5
299
100
AcDbEntity
  8
dimensions
  6
ByLayer
 62
  256
370
   -1
100
AcDbLine
 10
11393.04481604353
 20
-2817.311383743703
 11
11393.04481604353
 21
-1575.628786007606
  0
LINE
  5
29A
100
AcDbEntity
  8
dimensions
  6
ByLayer
 62
  256
370
   -1
100
AcDbLine
 10
9235.019191439238
 20
-1946.558018730473
 11
9235.019191439238
 21
-2802.90159909107
  0
LINE
  5
29B
100
AcDbEntity
  8
dimensions
  6
ByLayer
 62
  256
370
   -1
100
AcDbLine
 10
10704.04204548246
 20
-9558.817856295522
 11
10704.04204548246
 21
-10779.23314886766
  0
LINE
  5
29C
100
AcDbEntity
  8
dimensions
  6
ByLayer
 62
  256
370
   -1
100
AcDbLine
 10
10704.04204548246
 20
-2812.710705496116
 11
10704.04204548246
 21
-1540.187356463948
  0
LINE
  5
29D
100
AcDbEntity
  8
dimensions
  6
ByLayer
 62
  256
370
   -1
100
AcDbLine
 10
14805.34157136306
 20
-9972.098244116707
 11
14805.34157136306
 21
-10365.95276104647
  0
LINE
  5
29E
100
AcDbEntity
  8
dimensions
  6
ByLayer
 62
  256
370
   -1
100
AcDbLine
 10
14805.34157136298
 20
-2199.754490545151
 11
14805.34157136298
 21
-1751.153007684142
  0
DIMENSION
  5
29F
100
AcDbEntity
  8
dimensions
  6
ByLayer
 62
  256
370
   -1
100
AcDbDimension
  2
*D1
 10
9062.874656490087
 20
-1820.38796517602
 30
0
 11
8575.040567584731
 21
-1794.76296517602
 31
0
 70
   32
 71
    5
  3
Standard
 53
0
210
0
220
0
230
1
100
AcDbAlignedDimension
 13
8087.206478679374
 23
-2081.065969771433
 33
0
 14
9062.874656490087
 24
-1965.585585904641
 34
0
100
AcDbRotatedDimension
  0
DIMENSION
  5
2A0
100
AcDbEntity
  8
dimensions
  6
ByLayer
 62
  256
370
   -1
100
AcDbDimension
  2
*D2
 10
9235.019191438849
 20
-1627.316514324018
 30
0
 11
8661.112835059112
 21
-1601.691514324018
 31
0
 70
   32
 71
    5
  3
Standard
 53
0
210
0
220
0
230
1
100
AcDbAlignedDimension
 13
8087.206478679374
 23
-2081.065969771433
 33
0
 14
9235.019191438849
 24
-1946.558018730515
 34
0
100
AcDbRotatedDimension
  0
DIMENSION
  5
2A1
100
AcDbEntity
  8
dimensions
  6
ByLayer
 62
  256
370
   -1
100
AcDbDimension
  2
*D3
 10
10704.04204548246
 20
-1351.500155964015
 30
0
 11
9395.624262080919
 21
-1325.875155964015
 31
0
 70
   32
 71
    5
  3
Standard
 53
0
210
0
220
0
230
1
100
AcDbAlignedDimension
 13
8087.206478679374
 23
-2081.065969771388
 33
0
 14
10704.04204548246
 24
-1540.187356463948
 34
0
100
AcDbRotatedDimension
  0
DIMENSION
  5
2A2
100
AcDbEntity
  8
dimensions
  6
ByLayer
 62
  256
370
   -1
100
AcDbDimension
  2
*D4
 10
11393.04481604353
 20
-1169.461359446413
 30
0
 11
9740.125647372606
 21
-1143.836359446413
 31
0
 70
   32
 71
    5
  3
Standard
 53
0
210
0
220
0
230
1
100
AcDbAlignedDimension
 13
8087.206478701681
 23
-2081.065969768645
 33
0
 14
11393.04481604353
 24
-1575.628786007606
 34
0
100
AcDbRotatedDimension
  0
DIMENSION
  5
2A3
100
AcDbEntity
  8
dimensions
  6
ByLayer
 62
  256
370
   -1
100
AcDbDimension
  2
*D5
 10
14805.34157136298
 20
-1005.518482541583
 30
0
 11
11446.27402502118
 21
-979.8934825415827
 31
0
 70
   32
 71
    5
  3
Standard
 53
0
210
0
220
0
230
1
100
AcDbAlignedDimension
 13
8087.206478679374
 23
-2081.065969771388
 33
0
 14
14805.34157136298
 24
-1751.153007684142
 34
0
100
AcDbRotatedDimension
  0
DIMENSION
  5
2A4
100
AcDbEntity
  8
dimensions
  6
ByLayer
 62
  256
370
   -1
100
AcDbDimension
  2
*D6
 10
15205.48558830741
 20
-784.4470431175467
 30
0
 11
11646.34603349339
 21
-758.8220431175467
 31
0
 70
   32
 71
    5
  3
Standard
 53
0
210
0
220
0
230
1
100
AcDbAlignedDimension
 13
8087.206478679374
 23
-2081.065969771433
 33
0
 14
15205.48558830741
 24
-1771.735908928943
 34
0
100
AcDbRotatedDimension
  0
DIMENSION
  5
2A5
100
AcDbEntity
  8
dimensions
  6
ByLayer
 62
  256
370
   -1
100
AcDbDimension
  2
*D7
 10
8918.162316274715
 20
-10779.23314886765
 30
0
 11
8892.537316274715
 21
-10169.02550258159
 31
0
 70
   32
 71
    5
  3
Standard
 53
0
210
0
220
0
230
1
100
AcDbAlignedDimension
 13
9062.874656490087
 23
-9558.817856295527
 33
0
 14
9062.874656490085
 24
-10779.23314886765
 34
0
 50
90
100
AcDbRotatedDimension
  0
DIMENSION
  5
2A6
100
AcDbEntity
  8
dimensions
  6
ByLayer
 62
  256
370
   -1
100
AcDbDimension
  2
*D8
 10
8969.464651751508
 20
-2801.752138375932
 30
0
 11
8943.839651751508
 21
-2383.668862140287
 31
0
 70
   32
 71
    5
  3
Standard
 53
0
210
0
220
0
230
1
100
AcDbAlignedDimension
 13
9062.874656490087
 23
-1965.585585904641
 33
0
 14
9062.874656490087
 24
-2801.752138375932
 34
0
 50
90
100
AcDbRotatedDimension
  0
LINE
  5
2A7
100
AcDbEntity
  8
dimensions
  6
ByLayer
 62
  256
370
   -1
100
AcDbLine
 10
9062.874656490087
 20
-2801.752138375932
 11
9062.874656490087
 21
-1965.585585904641
  0
LINE
  5
2A8
100
AcDbEntity
  8
dimensions
  6
ByLayer
 62
  256
370
   -1
100
AcDbLine
 10
9235.019191439238
 20
-1946.558018730473
 11
8347.83351751
 21
-1946.558018730473
  0
LINE
  5
2A9
100
AcDbEntity
  8
dimensions
  6
ByLayer
 62
  256
370
   -1
100
AcDbLine
 10
9235.019191439238
 20
-1946.558018730473
 11
8087.206478679378
 21
-2081.065969771429
  0
DIMENSION
  5
2AA
100
AcDbEntity
  8
dimensions
  6
ByLayer
 62
  256
370
   -1
100
AcDbDimension
  2
*D9
 10
8087.206478679378
 20
-2081.065969771429
 30
0
 11
0
 21
0
 31
0
 70
   34
 71
    5
  3
Standard
 53
0
210
0
220
0
230
1
100
AcDb2LineAngularDimension
 13
9235.019191439238
 23
-1946.558018730473
 33
0
 14
8347.83351751
 24
-1946.558018730473
 34
0
 15
9235.019191439238
 25
-1946.558018730473
 35
0
 16
8299.301197654921
 26
-2011.065385487479
 36
0
  0
LINE
  5
2AB
100
AcDbEntity
  8
dimensions
  6
ByLayer
 62
  256
370
   -1
100
AcDbLine
 10
8550.131947030199
 20
-2825.032757442081
 11
9235.019191439238
 21
-1946.558018730473
  0
DIMENSION
  5
2AC
100
AcDbEntity
  8
dimensions
  6
ByLayer
 62
  256
370
   -1
100
AcDbDimension
  2
*D10
 10
8550.131947030199
 20
-2825.032757442081
 30
0
 11
0
 21
0
 31
0
 70
   34
 71
    5
  3
Standard
 53
0
210
0
220
0
230
1
100
AcDb2LineAngularDimension
 13
9235.019191439238
 23
-1946.558018730473
 33
0
 14
8347.83351751
 24
-1946.558018730473
 34
0
 15
9235.019191439238
 25
-1946.558018730473
 35
0
 16
9100.661666965203
 26
-2022.708753913367
 36
0
  0
LINE
  5
2AD
100
AcDbEntity
  8
dimensions
  6
ByLayer
 62
  256
370
   -1
100
AcDbLine
 10
9235.019191439238
 20
-2802.90159909107
 11
9235.019191439236
 21
-10925.96676138356
  0
DIMENSION
  5
2AE
100
AcDbEntity
  8
dimensions
  6
ByLayer
 62
  256
370
   -1
100
AcDbDimension
  2
*D11
 10
8732.237200408157
 20
-2374.729808910772
 30
0
 11
8706.612200408157
 21
-2308.136207873932
 31
0
 70
   32
 71
    5
  3
Standard
 53
0
210
0
220
0
230
1
100
AcDbAlignedDimension
 13
8087.206478679374
 23
-2241.542606837093
 33
0
 14
9235.019191439238
 24
-2374.729808910772
 34
0
 50
90
100
AcDbRotatedDimension
  0
DIMENSION
  5
2AF
100
AcDbEntity
  8
dimensions
  6
ByLayer
 62
  256
370
   -1
100
AcDbDimension
  2
*D12
 10
10227.28027129137
 20
-2176.449030980032
 30
0
 11
10201.65527129137
 21
-2208.995818908562
 31
0
 70
   32
 71
    5
  3
Standard
 53
0
210
0
220
0
230
1
100
AcDbAlignedDimension
 13
8087.206478679374
 23
-2241.542606837093
 33
0
 14
10704.04204548246
 24
-2176.449030980032
 34
0
 50
90
100
AcDbRotatedDimension
  0
DIMENSION
  5
2B0
100
AcDbEntity
  8
dimensions
  6
ByLayer
 62
  256
370
   -1
100
AcDbDimension
  2
*D13
 10
10576.59914203758
 20
-2812.710705496116
 30
0
 11
10550.97414203758
 21
-2176.449030980032
 31
0
 70
   32
 71
    5
  3
Standard
 53
0
210
0
220
0
230
1
100
AcDbAlignedDimension
 13
10704.04204548246
 23
-1540.187356463948
 33
0
 14
10704.04204548246
 24
-2812.710705496116
 34
0
 50
90
100
AcDbRotatedDimension
  0
LINE
  5
2B1
100
AcDbEntity
  8
dimensions
  6
ByLayer
 62
  256
370
   -1
100
AcDbLine
 10
10704.04204548246
 20
-1540.187356463948
 11
11336.61993535519
 21
-1540.187356463948
  0
DIMENSION
  5
2B2
100
AcDbEntity
  8
dimensions
  6
ByLayer
 62
  256
370
   -1
100
AcDbDimension
  2
*D14
 10
11336.61993535519
 20
-1540.187356463948
 30
0
 11
0
 21
0
 31
0
 70
   34
 71
    5
  3
Standard
 53
0
210
0
220
0
230
1
100
AcDb2LineAngularDimension
 13
10307.08890945154
 23
-1519.768590090457
 33
0
 14
15205.48558830741
 24
-1771.735908928943
 34
0
 15
10704.04204548246
 25
-1540.187356463948
 35
0
 16
11711.59290215046
 26
-1557.460577787613
 36
0
  0
LINE
  5
2B3
100
AcDbEntity
  8
dimensions
  6
ByLayer
 62
  256
370
   -1
100
AcDbLine
 10
11393.04481604353
 20
-9582.079541581028
 11
11393.04481604353
 21
-10755.97146358215
  0
DIMENSION
  5
2B4
100
AcDbEntity
  8
dimensions
  6
ByLayer
 62
  256
370
   -1
100
AcDbDimension
  2
*D15
 10
11280.08853451278
 20
-10755.97146358215
 30
0
 11
11254.46353451278
 21
-10169.02550258159
 31
0
 70
   32
 71
    5
  3
Standard
 53
0
210
0
220
0
230
1
100
AcDbAlignedDimension
 13
11393.04481604353
 23
-9582.079541581028
 33
0
 14
11393.04481604353
 24
-10755.97146358215
 34
0
 50
90
100
AcDbRotatedDimension
  0
DIMENSION
  5
2B5
100
AcDbEntity
  8
dimensions
  6
ByLayer
 62
  256
370
   -1
100
AcDbDimension
  2
*D16
 10
11255.83027959988
 20
-2817.311383743703
 30
0
 11
11230.20527959988
 21
-2196.470084875655
 31
0
 70
   32
 71
    5
  3
Standard
 53
0
210
0
220
0
230
1
100
AcDbAlignedDimension
 13
11393.04481604353
 23
-1575.628786007606
 33
0
 14
11393.04481604353
 24
-2817.311383743703
 34
0
 50
90
100
AcDbRotatedDimension
  0
DIMENSION
  5
2B6
100
AcDbEntity
  8
dimensions
  6
ByLayer
 62
  256
370
   -1
100
AcDbDimension
  2
*D17
 10
11054.71964306974
 20
-2196.470084875655
 30
0
 11
11029.09464306974
 21
-2219.006345856374
 31
0
 70
   32
 71
    5
  3
Standard
 53
0
210
0
220
0
230
1
100
AcDbAlignedDimension
 13
8087.206478679374
 23
-2241.542606837093
 33
0
 14
11393.04481604353
 24
-2196.470084875655
 34
0
 50
90
100
AcDbRotatedDimension
  0
LINE
  5
2B7
100
AcDbEntity
  8
dimensions
  6
ByLayer
 62
  256
370
   -1
100
AcDbLine
 10
11393.04481604353
 20
-2817.311383743703
 11
13171.92774688305
 21
-2817.311383743704
  0
DIMENSION
  5
2B8
100
AcDbEntity
  8
dimensions
  6
ByLayer
 62
  256
370
   -1
100
AcDbDimension
  2
*D18
 10
14805.34157136298
 20
-2199.754490545151
 30
0
 11
0
 21
0
 31
0
 70
   34
 71
    5
  3
Standard
 53
0
210
0
220
0
230
1
100
AcDb2LineAngularDimension
 13
11393.04481604353
 23
-2817.311383743703
 33
0
 14
13171.92774688305
 24
-2817.311383743704
 34
0
 15
11393.04481604353
 25
-2817.311383743703
 35
0
 16
13299.94304922126
 26
-2702.77663037794
 36
0
  0
DIMENSION
  5
2B9
100
AcDbEntity
  8
dimensions
  6
ByLayer
 62
  256
370
   -1
100
AcDbDimension
  2
*D19
 10
13202.86395859656
 20
-1975.453749114647
 30
0
 11
13177.23895859656
 21
-2108.49817797587
 31
0
 70
   32
 71
    5
  3
Standard
 53
0
210
0
220
0
230
1
100
AcDbAlignedDimension
 13
8087.206478679374
 23
-2241.542606837093
 33
0
 14
14805.34157136298
 24
-1975.453749114647
 34
0
 50
90
100
AcDbRotatedDimension
  0
DIMENSION
  5
2BA
100
AcDbEntity
  8
dimensions
  6
ByLayer
 62
  256
370
   -1
100
AcDbDimension
  2
*D20
 10
14426.94104848209
 20
-2199.754490545109
 30
0
 11
14401.31604848209
 21
-1975.453749114625
 31
0
 70
   32
 71
    5
  3
Standard
 53
0
210
0
220
0
230
1
100
AcDbAlignedDimension
 13
14805.34157136298
 23
-1751.153007684142
 33
0
 14
14805.34157136298
 24
-2199.754490545109
 34
0
 50
90
100
AcDbRotatedDimension
  0
DIMENSION
  5
2BB
100
AcDbEntity
  8
dimensions
  6
ByLayer
 62
  256
370
   -1
100
AcDbDimension
  2
*D21
 10
14533.6176312127
 20
-10365.95276104647
 30
0
 11
14507.9926312127
 21
-10169.02550258159
 31
0
 70
   32
 71
    5
  3
Standard
 53
0
210
0
220
0
230
1
100
AcDbAlignedDimension
 13
14805.34157136306
 23
-9972.098244116707
 33
0
 14
14805.34157136306
 24
-10365.95276104647
 34
0
 50
90
100
AcDbRotatedDimension
  0
DIMENSION
  5
2BC
100
AcDbEntity
  8
dimensions
  6
ByLayer
 62
  256
370
   -1
100
AcDbDimension
  2
*D22
 10
15788.13424412437
 20
-1771.735908929093
 30
0
 11
15762.50924412437
 21
-2006.639257883093
 31
0
 70
   32
 71
    5
  3
Standard
 53
0
210
0
220
0
230
1
100
AcDbAlignedDimension
 13
8087.206478679374
 23
-2241.542606837093
 33
0
 14
15205.48558830737
 24
-1771.735908929093
 34
0
 50
90
100
AcDbRotatedDimension
  0
LINE
  5
2BD
100
AcDbEntity
  8
dimensions
  6
ByLayer
 62
  256
370
   -1
100
AcDbLine
 10
15314.71113413537
 20
-1225.912094988321
 11
15205.48558830734
 21
-1771.735908928939
  0
DIMENSION
  5
2BE
100
AcDbEntity
  8
dimensions
  6
ByLayer
 62
  256
370
   -1
100
AcDbDimension
  2
*D23
 10
15314.71113413537
 20
-1225.912094988321
 30
0
 11
0
 21
0
 31
0
 70
   34
 71
    5
  3
Standard
 53
0
210
0
220
0
230
1
100
AcDb2LineAngularDimension
 13
15206.11058830737
 23
-1771.735908929093
 33
0
 14
15789.38424412437
 24
-1771.735908929093
 34
0
 15
15205.48558830734
 25
-1771.735908928939
 35
0
 16
15513.36515135134
 26
-1511.727923259343
 36
0
  0
DIMENSION
  5
2BF
100
AcDbEntity
  8
dimensions
  6
ByLayer
 62
  256
370
   -1
100
AcDbDimension
  2
*D24
 10
7737.724024625383
 20
-10169.02550258159
 30
0
 11
0
 21
0
 31
0
 70
   34
 71
    5
  3
Standard
 53
0
210
0
220
0
230
1
100
AcDb2LineAngularDimension
 13
14790.86723050555
 23
-9970.162606989214
 33
0
 14
12674.15756929068
 24
-9705.900897260075
 34
0
 15
15885.04509744348
 25
-10169.02550258159
 35
0
 16
14216.03853591569
 26
-10020.28059421723
 36
0
  0
DIMENSION
  5
2C0
100
AcDbEntity
  8
dimensions
  6
ByLayer
 62
  256
370
   -1
100
AcDbDimension
  2
*D25
 10
4232.926802749077
 20
2142.939540409635
 30
0
 11
4207.301802749077
 21
2849.473549642808
 31
0
 70
   32
 71
    5
  3
Standard
 53
0
210
0
220
0
230
1
100
AcDbAlignedDimension
 13
5116.118840086834
 23
3556.007558875981
 33
0
 14
5116.118840086834
 24
2142.939540409635
 34
0
 50
90
100
AcDbRotatedDimension
  0
ARC
  5
2C1
100
AcDbEntity
  8
outline
  6
ByLayer
 62
  256
370
   -1
100
AcDbCircle
 10
17118.91844636296
 20
2864.410141133037
 40
595.5610978317394
100
AcDbArc
 50
95.82784399012986
 51
133.4997854348221
  0
ARC
  5
2C2
100
AcDbEntity
  8
outline
  6
ByLayer
 62
  256
370
   -1
100
AcDbCircle
 10
17118.91844636296
 20
3728.422725077068
 40
595.5610978317394
100
AcDbArc
 50
226.5002145651779
 51
264.1721560098702
  0
LINE
  5
2C3
100
AcDbEntity
  8
outline
  6
ByLayer
 62
  256
370
   -1
100
AcDbLine
 10
17058.44531142331
 20
3456.893070170758
 11
17058.44531142331
 21
3135.939796039349
  0
ARC
  5
2C4
100
AcDbEntity
  8
outline
  6
ByLayer
 62
  256
370
   -1
100
AcDbCircle
 10
26336.43904925822
 20
-70751.47809087791
 40
74786.11848582099
100
AcDbArc
 50
96.24109840033465
 51
97.12649674296776
  0
ARC
  5
2C5
100
AcDbEntity
  8
outline
  6
ByLayer
 62
  256
370
   -1
100
AcDbCircle
 10
19084.73276289478
 20
2906.513776802633
 40
1113.906820209236
100
AcDbArc
 50
101.9802662199228
 51
142.0588714655416
  0
ARC
  5
2C6
100
AcDbEntity
  8
outline
  6
ByLayer
 62
  256
370
   -1
100
AcDbCircle
 10
19164.01064733923
 20
2115.810309814168
 40
1905.811794324285
100
AcDbArc
 50
86.56113934561337
 51
99.3764851213615
  0
LINE
  5
2C7
100
AcDbEntity
  8
outline
  6
ByLayer
 62
  256
370
   -1
100
AcDbLine
 10
19278.32774219547
 20
4018.190449851689
 11
24176.72442105135
 21
3766.223131013203
  0
ARC
  5
2C8
100
AcDbEntity
  8
outline
  6
ByLayer
 62
  256
370
   -1
100
AcDbCircle
 10
23630.90060711066
 20
3875.448676841232
 40
556.645179379278
100
AcDbArc
 50
285.1715716699925
 51
348.6839325915194
  0
LINE
  5
2C9
100
AcDbEntity
  8
outline
  6
ByLayer
 62
  256
370
   -1
100
AcDbLine
 10
23776.58040410691
 20
3338.204549396995
 11
20364.28364878746
 21
2720.647656198443
  0
LINE
  5
2CA
100
AcDbEntity
  8
outline
  6
ByLayer
 62
  256
370
   -1
100
AcDbLine
 10
20364.28364878746
 20
2720.647656198443
 11
17969.05893796018
 21
2736.64129032594
  0
ARC
  5
2CB
100
AcDbEntity
  8
outline
  6
ByLayer
 62
  256
370
   -1
100
AcDbCircle
 10
17342.7608229296
 20
3168.756994962724
 40
286.2032121207963
100
AcDbArc
 50
186.5842442217114
 51
240.8178578672716
  0
ARC
  5
2CC
100
AcDbEntity
  8
outline
  6
ByLayer
 62
  256
370
   -1
100
AcDbCircle
 10
17796.59117171782
 20
3878.469394462747
 40
1128.233250595516
100
AcDbArc
 50
238.2686650000911
 51
260.1868256358174
  0
ARC
  5
2CD
100
AcDbEntity
  8
outline
  6
ByLayer
 62
  256
370
   -1
100
AcDbCircle
 10
18112.46521011593
 20
6699.343373069883
 40
3965.29609934451
100
AcDbArc
 50
262.6371097888863
 51
267.9274268254107
  0
LINE
  5
2CE
100
AcDbEntity
  8
outline
  6
ByLayer
 62
  256
370
   -1
100
AcDbLine
 10
22195.47765145483
 20
3852.678398262556
 11
23049.24398423566
 21
4025.086785334613
  0
LINE
  5
2CF
100
AcDbEntity
  8
outline
  6
ByLayer
 62
  256
370
   -1
100
AcDbLine
 10
23049.24398423566
 20
4025.086785334613
 11
23714.17282302599
 21
4923.357108856758
  0
LINE
  5
2D0
100
AcDbEntity
  8
outline
  6
ByLayer
 62
  256
370
   -1
100
AcDbLine
 10
23714.17282302599
 20
4923.357108856758
 11
24488.02682843153
 21
4955.452436269891
  0
LINE
  5
2D1
100
AcDbEntity
  8
outline
  6
ByLayer
 62
  256
370
   -1
100
AcDbLine
 10
24488.02682843153
 20
4955.452436269891
 11
24176.72442105135
 21
3766.223131013203
  0
SPLINE
  5
2D2
100
AcDbEntity
  8
outline
  6
ByLayer
 62
  256
370
   -1
100
AcDbSpline
210
0
220
0
230
0
 70
    8
 71
    2
 72
   18
 73
   15
 74
    0
 42
1e-07
 43
1e-07
 40
0
 40
0
 40
0
 40
0.07692307692307693
 40
0.1538461538461539
 40
0.2307692307692308
 40
0.3076923076923077
 40
0.3846153846153846
 40
0.4615384615384616
 40
0.5384615384615384
 40
0.6153846153846154
 40
0.6923076923076923
 40
0.7692307692307693
 40
0.8461538461538461
 40
0.9230769230769231
 40
1
 40
1
 40
1
 10
24411.08991754453
 20
3578.944234379371
 30
0
 10
24261.12515140816
 20
3602.691715518061
 30
0
 10
24045.6711310297
 20
3635.567988933404
 30
0
 10
23884.36719070331
 20
3641.711489544631
 30
0
 10
23773.05636634475
 20
3641.461684037271
 30
0
 10
23702.61558410546
 20
3626.563560130081
 30
0
 10
23649.74771931332
 20
3617.463050718622
 30
0
 10
23589.66133817365
 20
3592.200066849129
 30
0
 10
23650.15775349861
 20
3563.19586697308
 30
0
 10
23703.96210787772
 20
3551.487858894995
 30
0
 10
23774.63523937849
 20
3546.491953190514
 30
0
 10
23883.14422418671
 20
3538.902086231051
 30
0
 10
24045.63021173025
 20
3539.146483015931
 30
0
 10
24262.64963543912
 20
3557.722922357424
 30
0
 10
24411.08991754453
 20
3578.944234379371
 30
0
  0
LINE
  5
2D3
100
AcDbEntity
  8
outline
  6
ByLayer
 62
  256
370
   -1
100
AcDbLine
 10
23604.7441381023
 20
3592.129762848238
 11
24411.08991754453
 21
3578.944234379371
  0
LINE
  5
2D4
100
AcDbEntity
  8
outline
  6
ByLayer
 62
  256
370
   -1
100
AcDbLine
 10
11601.38815695237
 20
2736.641290325942
 11
21437.86375128796
 21
2736.641290325942
  0
LINE
  5
2D5
100
AcDbEntity
  8
outline
  6
ByLayer
 62
  256
370
   -1
100
AcDbLine
 10
11601.38815695237
 20
2975.681140111752
 11
22070.5699808783
 21
2975.681140111752
  0
LINE
  5
2D6
100
AcDbEntity
  8
outline
  6
ByLayer
 62
  256
370
   -1
100
AcDbLine
 10
11601.38815695237
 20
2849.647792202462
 11
23683.65195143705
 21
2849.647792202462
  0
DIMENSION
  5
2D7
100
AcDbEntity
  8
dimensions
  6
ByLayer
 62
  256
370
   -1
100
AcDbDimension
  2
*D26
 10
16557.20963769619
 20
2849.647792202462
 30
0
 11
16531.58463769619
 21
3073.032112653757
 31
0
 70
   32
 71
    5
  3
Standard
 53
0
210
0
220
0
230
1
100
AcDbAlignedDimension
 13
16708.96285736931
 23
3296.416433105052
 33
0
 14
23683.65195143705
 24
2849.647792202462
 34
0
 50
90
100
AcDbRotatedDimension
  0
DIMENSION
  5
2D8
100
AcDbEntity
  8
dimensions
  6
ByLayer
 62
  256
370
   -1
100
AcDbDimension
  2
*D27
 10
4931.596487477557
 20
-376.3431176980676
 30
0
 11
4905.971487477557
 21
883.2982113557841
 31
0
 70
   32
 71
    5
  3
Standard
 53
0
210
0
220
0
230
1
100
AcDbAlignedDimension
 13
5116.118840086835
 23
2142.939540409636
 33
0
 14
5116.118840086835
 24
-376.3431176980676
 34
0
 50
90
100
AcDbRotatedDimension
  0
LINE
  5
2D9
100
AcDbEntity
  8
dimensions
  6
ByLayer
 62
  256
370
   -1
100
AcDbLine
 10
3887.306436304937
 20
1269.835990354075
 11
3887.306436304936
 21
-306.6352789205313
  0
DIMENSION
  5
2DA
100
AcDbEntity
  8
dimensions
  6
ByLayer
 62
  256
370
   -1
100
AcDbDimension
  2
*D28
 10
3719.333945540672
 20
-306.6352789205313
 30
0
 11
3693.708945540672
 21
481.6003557167718
 31
0
 70
   32
 71
    5
  3
Standard
 53
0
210
0
220
0
230
1
100
AcDbAlignedDimension
 13
3887.306436304937
 23
1269.835990354075
 33
0
 14
3887.306436304936
 24
-306.6352789205313
 34
0
 50
90
100
AcDbRotatedDimension
  0
DIMENSION
  5
2DB
100
AcDbEntity
  8
dimensions
  6
ByLayer
 62
  256
370
   -1
100
AcDbDimension
  2
*D29
 10
5116.118840086835
 20
2453.17984393159
 30
0
 11
4501.712638195886
 21
2478.80484393159
 31
0
 70
   32
 71
    5
  3
Standard
 53
0
210
0
220
0
230
1
100
AcDbAlignedDimension
 13
3887.306436304937
 23
1269.835990354075
 33
0
 14
5116.118840086835
 24
2142.939540409636
 34
0
100
AcDbRotatedDimension
  0
LINE
  5
2DC
100
AcDbEntity
  8
dimensions
  6
ByLayer
 62
  256
370
   -1
100
AcDbLine
 10
5116.118840086835
 20
2142.939540409636
 11
3291.116192345823
 21
2142.939540409636
  0
DIMENSION
  5
2DD
100
AcDbEntity
  8
dimensions
  6
ByLayer
 62
  256
370
   -1
100
AcDbDimension
  2
*D30
 10
3887.306436304937
 20
1269.835990354075
 30
0
 11
0
 21
0
 31
0
 70
   34
 71
    5
  3
Standard
 53
0
210
0
220
0
230
1
100
AcDb2LineAngularDimension
 13
5116.118840086835
 23
2142.939540409636
 33
0
 14
3291.116192345823
 24
2142.939540409636
 34
0
 15
5116.118840086835
 25
2142.939540409636
 35
0
 16
4225.781254340428
 26
1853.939555634255
 36
0
  0
DIMENSION
  5
2DE
100
AcDbEntity
  8
dimensions
  6
ByLayer
 62
  256
370
   -1
100
AcDbDimension
  2
*D31
 10
-184.3627373382877
 20
-99.2936187302912
 30
0
 11
-209.9877373382877
 21
506.7895969103861
 31
0
 70
   32
 71
    5
  3
Standard
 53
0
210
0
220
0
230
1
100
AcDbAlignedDimension
 13
232.2798520550726
 23
1112.872812551063
 33
0
 14
232.2798520550724
 24
-99.29361873029126
 34
0
 50
90
100
AcDbRotatedDimension
  0
DIMENSION
  5
2DF
100
AcDbEntity
  8
dimensions
  6
ByLayer
 62
  256
370
   -1
100
AcDbDimension
  2
*D32
 10
232.2798520550726
 20
2091.949111912673
 30
0
 11
2059.793144180005
 21
2117.574111912673
 31
0
 70
   32
 71
    5
  3
Standard
 53
0
210
0
220
0
230
1
100
AcDbAlignedDimension
 13
3887.306436304937
 23
1269.835990354075
 33
0
 14
232.2798520550726
 24
1112.872812551063
 34
0
100
AcDbRotatedDimension
  0
DIMENSION
  5
2E0
100
AcDbEntity
  8
dimensions
  6
ByLayer
 62
  256
370
   -1
100
AcDbDimension
  2
*D33
 10
7737.724024625382
 20
-8997.91098015058
 30
0
 11
11185.61466499187
 21
-8972.28598015058
 31
0
 70
   32
 71
    5
  3
Standard
 53
0
210
0
220
0
230
1
100
AcDbAlignedDimension
 13
14633.50530535837
 23
-10169.02550258159
 33
0
 14
7737.724024625382
 24
-10169.02550258159
 34
0
100
AcDbRotatedDimension
  0
DIMENSION
  5
2E1
100
AcDbEntity
  8
dimensions
  6
ByLayer
 62
  256
370
   -1
100
AcDbDimension
  2
*D34
 10
14577.44809106042
 20
-1945.829277093908
 30
0
 11
14551.82309106042
 21
-2093.685941965501
 31
0
 70
   32
 71
    5
  3
Standard
 53
0
210
0
220
0
230
1
100
AcDbAlignedDimension
 13
7737.72402462537
 23
-2241.542606837093
 33
0
 14
14633.50530535837
 24
-1945.829277093908
 34
0
 50
90
100
AcDbRotatedDimension
  0
DIMENSION
  5
2E2
100
AcDbEntity
  8
dimensions
  6
ByLayer
 62
  256
370
   -1
100
AcDbDimension
  2
*D35
 10
15439.85108480059
 20
-9802.611577564323
 30
0
 11
15036.67819507948
 21
-9776.986577564323
 31
0
 70
   32
 71
    5
  3
Standard
 53
0
210
0
220
0
230
1
100
AcDbAlignedDimension
 13
14633.50530535837
 23
-10169.0255025816
 33
0
 14
15439.85108480059
 24
-10169.02550258159
 34
0
100
AcDbRotatedDimension
  0
DIMENSION
  5
2E3
100
AcDbEntity
  8
dimensions
  6
ByLayer
 62
  256
370
   -1
100
AcDbDimension
  2
*D36
 10
15337.38014734072
 20
-8191.74584329348
 30
0
 11
15025.27375225995
 21
-8166.12084329348
 31
0
 70
   32
 71
    5
  3
Standard
 53
0
210
0
220
0
230
1
100
AcDbAlignedDimension
 13
14713.16735717918
 23
-8486.085612788855
 33
0
 14
15337.38014734072
 24
-8486.085612788855
 34
0
100
AcDbRotatedDimension
  0
DIMENSION
  5
2E4
100
AcDbEntity
  8
dimensions
  6
ByLayer
 62
  256
370
   -1
100
AcDbDimension
  2
*D37
 10
14633.50530535837
 20
-8996.66098015058
 30
0
 11
0
 21
0
 31
0
 70
   34
 71
    5
  3
Standard
 53
0
210
0
220
0
230
1
100
AcDb2LineAngularDimension
 13
14633.50530535837
 23
-10169.02550258159
 33
0
 14
14713.16735717918
 24
-8486.085612788855
 34
0
 15
14633.50530535837
 25
-10168.40050258159
 35
0
 16
14684.88543795021
 26
-8093.355606620345
 36
0
  0
LINE
  5
2E5
100
AcDbEntity
  8
outline
  6
ByLayer
 62
  256
370
   -1
100
AcDbLine
 10
12796.1123352921
 20
-1771.735908928943
 11
14078.00515149172
 21
-1512.872254607533
  0
LINE
  5
2E6
100
AcDbEntity
  8
dimensions
  6
ByLayer
 62
  256
370
   -1
100
AcDbLine
 10
15205.48558830741
 20
-1771.735908928943
 11
12796.11233529209
 21
-1771.735908928943
  0
DIMENSION
  5
2E7
100
AcDbEntity
  8
dimensions
  6
ByLayer
 62
  256
370
   -1
100
AcDbDimension
  2
*D38
 10
12446.28638289179
 20
-1771.735908928943
 30
0
 11
12420.66138289179
 21
-2006.639257883018
 31
0
 70
   32
 71
    5
  3
Standard
 53
0
210
0
220
0
230
1
100
AcDbAlignedDimension
 13
7737.72402462537
 23
-2241.542606837093
 33
0
 14
12796.1123352921
 24
-1771.735908928943
 34
0
 50
90
100
AcDbRotatedDimension
  0
DIMENSION
  5
2E8
100
AcDbEntity
  8
dimensions
  6
ByLayer
 62
  256
370
   -1
100
AcDbDimension
  2
*D39
 10
12796.11233529209
 20
-3275.765276018427
 30
0
 11
10266.91817995873
 21
-3250.140276018427
 31
0
 70
   32
 71
    5
  3
Standard
 53
0
210
0
220
0
230
1
100
AcDbAlignedDimension
 13
7737.72402462537
 23
-2241.542606837093
 33
0
 14
12796.11233529209
 24
-1771.735908928943
 34
0
100
AcDbRotatedDimension
  0
LINE
  5
2E9
100
AcDbEntity
  8
dimensions
  6
ByLayer
 62
  256
370
   -1
100
AcDbLine
 10
14078.00515149172
 20
-1512.872254607532
 11
16279.89557998272
 21
-1512.872254607532
  0
LINE
  5
2EA
100
AcDbEntity
  8
dimensions
  6
ByLayer
 62
  256
370
   -1
100
AcDbLine
 10
15516.7879956876
 20
-582.5066036722549
 11
14203.87348368303
 21
-582.5066036722548
  0
LINE
  5
2EB
100
AcDbEntity
  8
outline
  6
ByLayer
 62
  256
370
   -1
100
AcDbLine
 10
14078.00515149172
 20
-1512.872254607533
 11
14766.69199299969
 21
-582.5066036722549
  0
DIMENSION
  5
2EC
100
AcDbEntity
  8
dimensions
  6
ByLayer
 62
  256
370
   -1
100
AcDbDimension
  2
*D40
 10
15205.48558830734
 20
115.8428705112242
 30
0
 11
14000.79896179972
 21
141.4678705112242
 31
0
 70
   32
 71
    5
  3
Standard
 53
0
210
0
220
0
230
1
100
AcDbAlignedDimension
 13
12796.1123352921
 23
-1771.735908928943
 33
0
 14
15205.48558830734
 24
-1771.735908928939
 34
0
100
AcDbRotatedDimension
  0
DIMENSION
  5
2ED
100
AcDbEntity
  8
dimensions
  6
ByLayer
 62
  256
370
   -1
100
AcDbDimension
  2
*D41
 10
15273.2478595677
 20
-182.0387965176378
 30
0
 11
14675.62650552971
 21
-156.4137965176378
 31
0
 70
   32
 71
    5
  3
Standard
 53
0
210
0
220
0
230
1
100
AcDbAlignedDimension
 13
14078.00515149172
 23
-1512.872254607532
 33
0
 14
15273.2478595677
 24
-1512.872254607532
 34
0
100
AcDbRotatedDimension
  0
DIMENSION
  5
2EE
100
AcDbEntity
  8
dimensions
  6
ByLayer
 62
  256
370
   -1
100
AcDbDimension
  2
*D42
 10
12796.1123352921
 20
117.0928705112242
 30
0
 11
0
 21
0
 31
0
 70
   34
 71
    5
  3
Standard
 53
0
210
0
220
0
230
1
100
AcDb2LineAngularDimension
 13
12796.1123352921
 23
-1771.735908928943
 33
0
 14
14078.00515149172
 24
-1512.872254607533
 34
0
 15
12796.1123352921
 25
-1771.110908928943
 35
0
 16
13415.70767063319
 26
-1373.565464633085
 36
0
  0
DIMENSION
  5
2EF
100
AcDbEntity
  8
dimensions
  6
ByLayer
 62
  256
370
   -1
100
AcDbDimension
  2
*D43
 10
16569.00682971363
 20
-1512.872254607532
 30
0
 11
16543.38182971363
 21
-1642.304081768313
 31
0
 70
   32
 71
    5
  3
Standard
 53
0
210
0
220
0
230
1
100
AcDbAlignedDimension
 13
15205.48558830737
 23
-1771.735908929093
 33
0
 14
16279.89557998272
 24
-1512.872254607532
 34
0
 50
90
100
AcDbRotatedDimension
  0
DIMENSION
  5
2F0
100
AcDbEntity
  8
dimensions
  6
ByLayer
 62
  256
370
   -1
100
AcDbDimension
  2
*D44
 10
15516.7879956876
 20
-371.5384939429164
 30
0
 11
15141.73999434364
 21
-345.9134939429164
 31
0
 70
   32
 71
    5
  3
Standard
 53
0
210
0
220
0
230
1
100
AcDbAlignedDimension
 13
14766.69199299969
 23
-582.5066036722549
 33
0
 14
15516.7879956876
 24
-582.5066036722549
 34
0
100
AcDbRotatedDimension
  0
DIMENSION
  5
2F1
100
AcDbEntity
  8
dimensions
  6
ByLayer
 62
  256
370
   -1
100
AcDbDimension
  2
*D45
 10
15927.3673565024
 20
-582.5066036722549
 30
0
 11
15901.7423565024
 21
-1047.689429139893
 31
0
 70
   32
 71
    5
  3
Standard
 53
0
210
0
220
0
230
1
100
AcDbAlignedDimension
 13
15273.2478595677
 23
-1512.872254607532
 33
0
 14
15516.7879956876
 24
-582.5066036722549
 34
0
 50
90
100
AcDbRotatedDimension
  0
DIMENSION
  5
2F2
100
AcDbEntity
  8
dimensions
  6
ByLayer
 62
  256
370
   -1
100
AcDbDimension
  2
*D46
 10
14078.00515149172
 20
-180.7887965176378
 30
0
 11
0
 21
0
 31
0
 70
   34
 71
    5
  3
Standard
 53
0
210
0
220
0
230
1
100
AcDb2LineAngularDimension
 13
14078.00515149172
 23
-1512.872254607533
 33
0
 14
14766.69199299969
 24
-582.5066036722549
 34
0
 15
14078.00515149172
 25
-1512.247254607532
 35
0
 16
14201.02687959592
 26
-1170.909193032221
 36
0
  0
ENDSEC
  0
SECTION
  2
OBJECTS
  0
DICTIONARY
  5
C
330
0
100
AcDbDictionary
281
    1
  3
ACAD_GROUP
350
D
  3
ACAD_IMAGE_DICT
350
2F3
  0
DICTIONARY
  5
D
330
C
100
AcDbDictionary
281
    1
  0
IMAGEDEF_REACTOR
  5
1DF
330
1E0
100
AcDbRasterImageDefReactor
 90
    2
330
1E0
  0
DICTIONARY
  5
2F3
330
C
100
AcDbDictionary
281
    1
  3
CHGO
350
1DE
  0
IMAGEDEF
  5
1DE
102
{ACAD_REACTORS
330
1DF
102
}
100
AcDbRasterImageDef
 90
    0
  1
J:/KAL CHK-91/CHGO.jpg
 10
770
 20
455
 11
1
 21
1
280
    1
281
    0
  0
PLOTSETTINGS
  5
2F4
100
AcDbPlotSettings
  6
1x1
 40
0
 41
0
 42
0
 43
0
  0
ENDSEC
  0
EOF
